<svg xmlns="http://www.w3.org/2000/svg" viewBox="0 0 400 400" preserveAspectRatio="xMidYMid slice" role="img" aria-hidden="true"><defs>
  <linearGradient id="bg-gt-dragon-14" x1="0" y1="0" x2="1" y2="1">
    <stop offset="0%" stop-color="#3b0b0b"/>
    <stop offset="100%" stop-color="#0a0a12"/>
  </linearGradient>
  <radialGradient id="glow-gt-dragon-14" cx="50%" cy="50%" r="60%">
    <stop offset="0%" stop-color="#ef4444" stop-opacity="0.55"/>
    <stop offset="60%" stop-color="#b91c1c" stop-opacity="0.15"/>
    <stop offset="100%" stop-color="#000000" stop-opacity="0"/>
  </radialGradient>
  <linearGradient id="gold-gt-dragon-14" x1="0" y1="0" x2="0" y2="1">
    <stop offset="0%" stop-color="#fecaca"/>
    <stop offset="50%" stop-color="#ef4444"/>
    <stop offset="100%" stop-color="#b91c1c"/>
  </linearGradient>
  <filter id="blur-gt-dragon-14" x="-10%" y="-10%" width="120%" height="120%">
    <feGaussianBlur stdDeviation="8"/>
  </filter>
  <filter id="shadow-gt-dragon-14" x="-10%" y="-10%" width="120%" height="120%">
    <feDropShadow dx="0" dy="4" stdDeviation="6" flood-color="#000" flood-opacity="0.45"/>
  </filter>
  <filter id="neon-gt-dragon-14" x="-20%" y="-20%" width="140%" height="140%">
    <feGaussianBlur stdDeviation="4" result="b"/>
    <feMerge>
      <feMergeNode in="b"/>
      <feMergeNode in="SourceGraphic"/>
    </feMerge>
  </filter>
</defs><rect width="400" height="400" fill="url(#bg-gt-dragon-14)"/><rect x="286.7" y="378.2" width="6.7" height="3.4" fill="#fecaca" opacity="0.7" transform="rotate(219 286.7 378.2)"/><rect x="308.9" y="202.9" width="5.4" height="2.7" fill="#fecaca" opacity="0.7" transform="rotate(64 308.9 202.9)"/><rect x="180.1" y="156.4" width="5.7" height="2.8" fill="#fecaca" opacity="0.7" transform="rotate(156 180.1 156.4)"/><rect x="294.6" y="62.5" width="3.6" height="1.8" fill="#b91c1c" opacity="0.7" transform="rotate(136 294.6 62.5)"/><rect x="387.0" y="368.1" width="6.5" height="3.2" fill="#ef4444" opacity="0.7" transform="rotate(171 387.0 368.1)"/><rect x="5.3" y="132.0" width="4.5" height="2.2" fill="#ef4444" opacity="0.7" transform="rotate(89 5.3 132.0)"/><rect x="154.6" y="282.6" width="6.4" height="3.2" fill="#ef4444" opacity="0.7" transform="rotate(35 154.6 282.6)"/><rect x="232.6" y="352.5" width="3.5" height="1.7" fill="#fecaca" opacity="0.7" transform="rotate(265 232.6 352.5)"/><rect x="341.2" y="303.4" width="3.8" height="1.9" fill="#fecaca" opacity="0.7" transform="rotate(287 341.2 303.4)"/><rect x="216.6" y="352.7" width="5.2" height="2.6" fill="#fecaca" opacity="0.7" transform="rotate(152 216.6 352.7)"/><rect x="53.7" y="67.8" width="4.0" height="2.0" fill="#ef4444" opacity="0.7" transform="rotate(46 53.7 67.8)"/><rect x="178.9" y="368.9" width="3.5" height="1.7" fill="#b91c1c" opacity="0.7" transform="rotate(348 178.9 368.9)"/><rect x="129.9" y="356.5" width="4.0" height="2.0" fill="#b91c1c" opacity="0.7" transform="rotate(68 129.9 356.5)"/><rect x="94.2" y="60.1" width="6.4" height="3.2" fill="#fecaca" opacity="0.7" transform="rotate(15 94.2 60.1)"/><rect x="301.0" y="92.1" width="5.4" height="2.7" fill="#b91c1c" opacity="0.7" transform="rotate(268 301.0 92.1)"/><rect x="31.1" y="39.6" width="4.3" height="2.1" fill="#b91c1c" opacity="0.7" transform="rotate(213 31.1 39.6)"/><rect x="118.0" y="246.6" width="3.5" height="1.7" fill="#fecaca" opacity="0.7" transform="rotate(309 118.0 246.6)"/><rect x="92.7" y="168.3" width="4.4" height="2.2" fill="#fecaca" opacity="0.7" transform="rotate(354 92.7 168.3)"/><rect x="156.8" y="112.8" width="3.1" height="1.6" fill="#b91c1c" opacity="0.7" transform="rotate(218 156.8 112.8)"/><rect x="330.6" y="242.9" width="3.2" height="1.6" fill="#b91c1c" opacity="0.7" transform="rotate(108 330.6 242.9)"/><rect x="251.6" y="222.6" width="6.7" height="3.4" fill="#b91c1c" opacity="0.7" transform="rotate(172 251.6 222.6)"/><rect x="17.0" y="331.8" width="3.8" height="1.9" fill="#fecaca" opacity="0.7" transform="rotate(152 17.0 331.8)"/><rect x="113.2" y="328.9" width="6.6" height="3.3" fill="#ef4444" opacity="0.7" transform="rotate(251 113.2 328.9)"/><rect x="224.9" y="264.2" width="6.6" height="3.3" fill="#fecaca" opacity="0.7" transform="rotate(272 224.9 264.2)"/><rect x="119.3" y="294.4" width="6.9" height="3.4" fill="#ef4444" opacity="0.7" transform="rotate(232 119.3 294.4)"/><rect x="241.7" y="308.6" width="5.5" height="2.7" fill="#ef4444" opacity="0.7" transform="rotate(231 241.7 308.6)"/><rect x="14.8" y="350.9" width="4.0" height="2.0" fill="#fecaca" opacity="0.7" transform="rotate(224 14.8 350.9)"/><rect x="118.2" y="319.4" width="5.1" height="2.6" fill="#fecaca" opacity="0.7" transform="rotate(169 118.2 319.4)"/><rect x="164.9" y="90.6" width="4.1" height="2.1" fill="#ef4444" opacity="0.7" transform="rotate(143 164.9 90.6)"/><rect x="237.0" y="373.5" width="3.7" height="1.9" fill="#ef4444" opacity="0.7" transform="rotate(277 237.0 373.5)"/><rect x="216.5" y="146.3" width="3.9" height="2.0" fill="#b91c1c" opacity="0.7" transform="rotate(227 216.5 146.3)"/><rect x="273.4" y="10.3" width="6.1" height="3.1" fill="#ef4444" opacity="0.7" transform="rotate(263 273.4 10.3)"/><rect x="250.0" y="335.2" width="5.3" height="2.7" fill="#ef4444" opacity="0.7" transform="rotate(345 250.0 335.2)"/><rect x="10.9" y="146.5" width="5.2" height="2.6" fill="#fecaca" opacity="0.7" transform="rotate(237 10.9 146.5)"/><rect x="370.6" y="6.3" width="4.9" height="2.5" fill="#fecaca" opacity="0.7" transform="rotate(131 370.6 6.3)"/><rect x="110.1" y="19.4" width="5.4" height="2.7" fill="#fecaca" opacity="0.7" transform="rotate(344 110.1 19.4)"/><rect x="115.7" y="299.2" width="5.6" height="2.8" fill="#ef4444" opacity="0.7" transform="rotate(108 115.7 299.2)"/><rect x="236.1" y="119.6" width="4.4" height="2.2" fill="#b91c1c" opacity="0.7" transform="rotate(122 236.1 119.6)"/><rect x="250.2" y="77.7" width="6.1" height="3.1" fill="#ef4444" opacity="0.7" transform="rotate(291 250.2 77.7)"/><rect x="375.9" y="357.6" width="6.6" height="3.3" fill="#ef4444" opacity="0.7" transform="rotate(197 375.9 357.6)"/><circle cx="169.6" cy="305.3" r="1.10" fill="#ffffff" opacity="0.51"/><circle cx="261.2" cy="164.9" r="0.79" fill="#ffffff" opacity="0.83"/><circle cx="82.6" cy="248.2" r="0.53" fill="#ffffff" opacity="0.65"/><circle cx="172.6" cy="180.9" r="1.66" fill="#ffffff" opacity="0.56"/><circle cx="266.8" cy="85.2" r="1.28" fill="#ffffff" opacity="0.70"/><circle cx="363.3" cy="210.7" r="1.71" fill="#ffffff" opacity="0.63"/><circle cx="366.4" cy="358.9" r="1.23" fill="#ffffff" opacity="0.34"/><circle cx="21.9" cy="72.4" r="1.05" fill="#ffffff" opacity="0.66"/><circle cx="342.8" cy="18.3" r="0.60" fill="#ffffff" opacity="0.57"/><circle cx="347.0" cy="335.6" r="0.81" fill="#ffffff" opacity="0.30"/><circle cx="71.0" cy="351.3" r="1.58" fill="#ffffff" opacity="0.56"/><circle cx="56.7" cy="96.4" r="1.54" fill="#ffffff" opacity="0.85"/><circle cx="27.2" cy="398.1" r="0.86" fill="#ffffff" opacity="0.63"/><circle cx="19.6" cy="383.8" r="1.70" fill="#ffffff" opacity="0.37"/><circle cx="337.2" cy="292.7" r="1.12" fill="#ffffff" opacity="0.42"/><circle cx="250.6" cy="201.6" r="1.52" fill="#ffffff" opacity="0.41"/><circle cx="263.9" cy="295.6" r="1.12" fill="#ffffff" opacity="0.27"/><circle cx="87.1" cy="394.2" r="1.58" fill="#ffffff" opacity="0.21"/><circle cx="163.1" cy="13.1" r="1.38" fill="#ffffff" opacity="0.67"/><circle cx="340.6" cy="165.9" r="0.59" fill="#ffffff" opacity="0.45"/><circle cx="398.1" cy="202.7" r="0.54" fill="#ffffff" opacity="0.59"/><circle cx="247.6" cy="135.8" r="1.01" fill="#ffffff" opacity="0.41"/><circle cx="131.0" cy="75.3" r="1.26" fill="#ffffff" opacity="0.62"/><circle cx="273.1" cy="49.8" r="0.78" fill="#ffffff" opacity="0.47"/><circle cx="258.7" cy="61.9" r="1.70" fill="#ffffff" opacity="0.66"/><circle cx="282.1" cy="304.2" r="0.61" fill="#ffffff" opacity="0.46"/><circle cx="27.7" cy="95.4" r="1.71" fill="#ffffff" opacity="0.65"/><circle cx="359.5" cy="343.1" r="0.57" fill="#ffffff" opacity="0.30"/><circle cx="64.6" cy="167.7" r="1.36" fill="#ffffff" opacity="0.72"/><circle cx="378.2" cy="8.4" r="0.66" fill="#ffffff" opacity="0.57"/><line x1="253.9" y1="180.0" x2="354.0" y2="180.0" stroke="#fecaca" stroke-width="2" opacity="0.55" stroke-linecap="round"/><line x1="248.6" y1="203.4" x2="338.7" y2="246.8" stroke="#fecaca" stroke-width="2" opacity="0.55" stroke-linecap="round"/><line x1="233.6" y1="222.1" x2="296.0" y2="300.4" stroke="#fecaca" stroke-width="2" opacity="0.55" stroke-linecap="round"/><line x1="212.0" y1="232.5" x2="234.3" y2="330.1" stroke="#fecaca" stroke-width="2" opacity="0.55" stroke-linecap="round"/><line x1="188.0" y1="232.5" x2="165.7" y2="330.1" stroke="#fecaca" stroke-width="2" opacity="0.55" stroke-linecap="round"/><line x1="166.4" y1="222.1" x2="104.0" y2="300.4" stroke="#fecaca" stroke-width="2" opacity="0.55" stroke-linecap="round"/><line x1="151.4" y1="203.4" x2="61.3" y2="246.8" stroke="#fecaca" stroke-width="2" opacity="0.55" stroke-linecap="round"/><line x1="146.1" y1="180.0" x2="46.0" y2="180.0" stroke="#fecaca" stroke-width="2" opacity="0.55" stroke-linecap="round"/><line x1="151.4" y1="156.6" x2="61.3" y2="113.2" stroke="#fecaca" stroke-width="2" opacity="0.55" stroke-linecap="round"/><line x1="166.4" y1="137.9" x2="104.0" y2="59.6" stroke="#fecaca" stroke-width="2" opacity="0.55" stroke-linecap="round"/><line x1="188.0" y1="127.5" x2="165.7" y2="29.9" stroke="#fecaca" stroke-width="2" opacity="0.55" stroke-linecap="round"/><line x1="212.0" y1="127.5" x2="234.3" y2="29.9" stroke="#fecaca" stroke-width="2" opacity="0.55" stroke-linecap="round"/><line x1="233.6" y1="137.9" x2="296.0" y2="59.6" stroke="#fecaca" stroke-width="2" opacity="0.55" stroke-linecap="round"/><line x1="248.6" y1="156.6" x2="338.7" y2="113.2" stroke="#fecaca" stroke-width="2" opacity="0.55" stroke-linecap="round"/><g transform="translate(200.0 180.0)">
      <!-- horns -->
      <path d="M -77.0 -121.00000000000001 L -110.0 -176.0 L -55.0 -121.00000000000001 Z" fill="#3b0b0b"/>
      <path d="M 77.0 -121.00000000000001 L 110.0 -176.0 L 55.0 -121.00000000000001 Z" fill="#3b0b0b"/>
      <!-- head/body scales -->
      <ellipse rx="114.4" ry="101.2" fill="#ef4444"/>
      <!-- scales pattern -->
      <circle cx="-44.0" cy="39.6" r="19.8" fill="#3b0b0b" opacity="0.35"/>
      <circle cx="44.0" cy="39.6" r="19.8" fill="#3b0b0b" opacity="0.35"/>
      <circle cx="0" cy="61.60000000000001" r="19.8" fill="#3b0b0b" opacity="0.35"/>
      <!-- eyes -->
      <ellipse cx="-35.2" cy="-22.0" rx="17.6" ry="22.0" fill="#ffd65a"/>
      <ellipse cx="35.2" cy="-22.0" rx="17.6" ry="22.0" fill="#ffd65a"/>
      <ellipse cx="-35.2" cy="-22.0" rx="4.4" ry="17.6" fill="#3b0b0b"/>
      <ellipse cx="35.2" cy="-22.0" rx="4.4" ry="17.6" fill="#3b0b0b"/>
      <!-- nostrils -->
      <circle cx="-13.2" cy="17.6" r="4.84" fill="#3b0b0b"/>
      <circle cx="13.2" cy="17.6" r="4.84" fill="#3b0b0b"/>
      <!-- fangs -->
      <path d="M -17.6 48.4 L -11.0 70.4 L -4.4 48.4 Z" fill="#fff"/>
      <path d="M 17.6 48.4 L 11.0 70.4 L 4.4 48.4 Z" fill="#fff"/>
      <!-- whiskers -->
      <path d="M -110.0 11.0 Q -154.0 22.0 -165.0 55.0" stroke="#3b0b0b" stroke-width="4.4" fill="none"/>
      <path d="M 110.0 11.0 Q 154.0 22.0 165.0 55.0" stroke="#3b0b0b" stroke-width="4.4" fill="none"/>
    </g><g transform="translate(70 70)">
      <circle r="26" fill="#ffd65a" stroke="#7a5100" stroke-width="2.1"/>
      <circle r="20.3" fill="none" stroke="#b57e05" stroke-width="1.6" stroke-dasharray="2 3" opacity="0.8"/>
      <text x="0" y="9.9" text-anchor="middle" font-family="Georgia, serif" font-weight="900" font-size="31.2" fill="#b57e05">$</text>
      <ellipse cx="-9.1" cy="-9.1" rx="9.1" ry="4.7" fill="#ffffff" opacity="0.55"/>
    </g><g transform="translate(330 70)">
      <circle r="22" fill="#ffd65a" stroke="#7a5100" stroke-width="1.8"/>
      <circle r="17.2" fill="none" stroke="#b57e05" stroke-width="1.3" stroke-dasharray="2 3" opacity="0.8"/>
      <text x="0" y="8.4" text-anchor="middle" font-family="Georgia, serif" font-weight="900" font-size="26.4" fill="#b57e05">$</text>
      <ellipse cx="-7.7" cy="-7.7" rx="7.7" ry="4.0" fill="#ffffff" opacity="0.55"/>
    </g><g transform="translate(80 320)">
      <circle r="18" fill="#ffd65a" stroke="#7a5100" stroke-width="1.4"/>
      <circle r="14.0" fill="none" stroke="#b57e05" stroke-width="1.1" stroke-dasharray="2 3" opacity="0.8"/>
      <text x="0" y="6.8" text-anchor="middle" font-family="Georgia, serif" font-weight="900" font-size="21.6" fill="#b57e05">$</text>
      <ellipse cx="-6.3" cy="-6.3" rx="6.3" ry="3.2" fill="#ffffff" opacity="0.55"/>
    </g><g>
      <path d="M 340 308 L 355.4 325.6 L 348.8 352 L 331.2 352 L 324.6 325.6 Z" fill="#ef4444" stroke="#ffffff" stroke-width="1.5" opacity="0.95"/>
      <path d="M 329.0 326.7 L 351.0 326.7" stroke="#e0f7ff" stroke-width="1.5" opacity="0.8"/>
      <path d="M 340 308 L 340 352" stroke="#e0f7ff" stroke-width="1" opacity="0.5"/>
      <path d="M 334.5 316.8 L 337.8 321.2" stroke="#ffffff" stroke-width="2" opacity="0.9"/>
    </g><g transform="translate(0 310)">
          <rect x="0" y="0" width="400" height="90" fill="rgba(0,0,0,0.55)"/>
          <rect x="0" y="0" width="400" height="3" fill="url(#gold-gt-dragon-14)"/>
          <text x="200.0" y="38" text-anchor="middle" font-family="Georgia, serif" font-weight="900" font-size="24" fill="url(#gold-gt-dragon-14)" filter="url(#shadow-gt-dragon-14)">DRAGON TEMPEST</text>
          <text x="200.0" y="64" text-anchor="middle" font-family="system-ui, sans-serif" font-weight="600" font-size="13" fill="#ffffff" opacity="0.85">DRAGON • 6726.BET</text>
        </g></svg>