<svg xmlns="http://www.w3.org/2000/svg" viewBox="0 0 400 400" preserveAspectRatio="xMidYMid slice" role="img" aria-hidden="true"><defs>
  <linearGradient id="bg-gt-dragon-4" x1="0" y1="0" x2="1" y2="1">
    <stop offset="0%" stop-color="#3b0b0b"/>
    <stop offset="100%" stop-color="#0a0a12"/>
  </linearGradient>
  <radialGradient id="glow-gt-dragon-4" cx="50%" cy="50%" r="60%">
    <stop offset="0%" stop-color="#ef4444" stop-opacity="0.55"/>
    <stop offset="60%" stop-color="#b91c1c" stop-opacity="0.15"/>
    <stop offset="100%" stop-color="#000000" stop-opacity="0"/>
  </radialGradient>
  <linearGradient id="gold-gt-dragon-4" x1="0" y1="0" x2="0" y2="1">
    <stop offset="0%" stop-color="#fecaca"/>
    <stop offset="50%" stop-color="#ef4444"/>
    <stop offset="100%" stop-color="#b91c1c"/>
  </linearGradient>
  <filter id="blur-gt-dragon-4" x="-10%" y="-10%" width="120%" height="120%">
    <feGaussianBlur stdDeviation="8"/>
  </filter>
  <filter id="shadow-gt-dragon-4" x="-10%" y="-10%" width="120%" height="120%">
    <feDropShadow dx="0" dy="4" stdDeviation="6" flood-color="#000" flood-opacity="0.45"/>
  </filter>
  <filter id="neon-gt-dragon-4" x="-20%" y="-20%" width="140%" height="140%">
    <feGaussianBlur stdDeviation="4" result="b"/>
    <feMerge>
      <feMergeNode in="b"/>
      <feMergeNode in="SourceGraphic"/>
    </feMerge>
  </filter>
</defs><rect width="400" height="400" fill="url(#bg-gt-dragon-4)"/><rect x="252.6" y="144.6" width="4.3" height="2.2" fill="#fecaca" opacity="0.7" transform="rotate(73 252.6 144.6)"/><rect x="315.2" y="283.4" width="4.0" height="2.0" fill="#fecaca" opacity="0.7" transform="rotate(114 315.2 283.4)"/><rect x="273.8" y="32.9" width="5.8" height="2.9" fill="#fecaca" opacity="0.7" transform="rotate(70 273.8 32.9)"/><rect x="115.8" y="181.8" width="5.2" height="2.6" fill="#b91c1c" opacity="0.7" transform="rotate(251 115.8 181.8)"/><rect x="120.6" y="151.2" width="3.8" height="1.9" fill="#ef4444" opacity="0.7" transform="rotate(132 120.6 151.2)"/><rect x="170.3" y="135.5" width="5.4" height="2.7" fill="#fecaca" opacity="0.7" transform="rotate(352 170.3 135.5)"/><rect x="255.5" y="95.3" width="3.6" height="1.8" fill="#b91c1c" opacity="0.7" transform="rotate(59 255.5 95.3)"/><rect x="349.5" y="255.4" width="3.1" height="1.5" fill="#ef4444" opacity="0.7" transform="rotate(327 349.5 255.4)"/><rect x="153.7" y="215.8" width="4.7" height="2.4" fill="#b91c1c" opacity="0.7" transform="rotate(190 153.7 215.8)"/><rect x="41.6" y="65.9" width="6.3" height="3.1" fill="#ef4444" opacity="0.7" transform="rotate(347 41.6 65.9)"/><rect x="52.9" y="254.2" width="6.0" height="3.0" fill="#fecaca" opacity="0.7" transform="rotate(221 52.9 254.2)"/><rect x="130.9" y="251.8" width="5.1" height="2.6" fill="#fecaca" opacity="0.7" transform="rotate(171 130.9 251.8)"/><rect x="73.3" y="289.2" width="5.8" height="2.9" fill="#b91c1c" opacity="0.7" transform="rotate(122 73.3 289.2)"/><rect x="343.7" y="203.8" width="3.1" height="1.6" fill="#ef4444" opacity="0.7" transform="rotate(277 343.7 203.8)"/><rect x="319.3" y="55.3" width="4.5" height="2.3" fill="#b91c1c" opacity="0.7" transform="rotate(71 319.3 55.3)"/><rect x="50.9" y="249.7" width="4.7" height="2.4" fill="#fecaca" opacity="0.7" transform="rotate(142 50.9 249.7)"/><rect x="137.1" y="13.9" width="4.1" height="2.1" fill="#ef4444" opacity="0.7" transform="rotate(269 137.1 13.9)"/><rect x="333.5" y="296.1" width="4.3" height="2.1" fill="#b91c1c" opacity="0.7" transform="rotate(250 333.5 296.1)"/><rect x="342.8" y="118.2" width="6.9" height="3.4" fill="#b91c1c" opacity="0.7" transform="rotate(358 342.8 118.2)"/><rect x="97.0" y="358.7" width="6.7" height="3.3" fill="#b91c1c" opacity="0.7" transform="rotate(64 97.0 358.7)"/><rect x="287.9" y="386.8" width="6.4" height="3.2" fill="#b91c1c" opacity="0.7" transform="rotate(172 287.9 386.8)"/><rect x="191.8" y="255.5" width="6.5" height="3.3" fill="#fecaca" opacity="0.7" transform="rotate(16 191.8 255.5)"/><rect x="300.6" y="319.6" width="3.2" height="1.6" fill="#b91c1c" opacity="0.7" transform="rotate(162 300.6 319.6)"/><rect x="55.5" y="119.9" width="4.6" height="2.3" fill="#fecaca" opacity="0.7" transform="rotate(197 55.5 119.9)"/><rect x="177.2" y="337.4" width="4.8" height="2.4" fill="#ef4444" opacity="0.7" transform="rotate(115 177.2 337.4)"/><rect x="10.4" y="116.7" width="6.8" height="3.4" fill="#b91c1c" opacity="0.7" transform="rotate(183 10.4 116.7)"/><rect x="51.4" y="186.4" width="6.1" height="3.1" fill="#ef4444" opacity="0.7" transform="rotate(97 51.4 186.4)"/><rect x="89.8" y="389.4" width="4.3" height="2.2" fill="#ef4444" opacity="0.7" transform="rotate(219 89.8 389.4)"/><rect x="176.1" y="66.0" width="4.3" height="2.1" fill="#b91c1c" opacity="0.7" transform="rotate(220 176.1 66.0)"/><rect x="156.7" y="313.7" width="5.3" height="2.6" fill="#fecaca" opacity="0.7" transform="rotate(345 156.7 313.7)"/><rect x="268.5" y="28.8" width="6.0" height="3.0" fill="#ef4444" opacity="0.7" transform="rotate(94 268.5 28.8)"/><rect x="243.7" y="7.5" width="4.9" height="2.5" fill="#b91c1c" opacity="0.7" transform="rotate(167 243.7 7.5)"/><rect x="17.5" y="326.2" width="6.5" height="3.2" fill="#fecaca" opacity="0.7" transform="rotate(323 17.5 326.2)"/><rect x="375.4" y="388.7" width="6.3" height="3.1" fill="#ef4444" opacity="0.7" transform="rotate(210 375.4 388.7)"/><rect x="255.4" y="365.4" width="4.1" height="2.0" fill="#b91c1c" opacity="0.7" transform="rotate(63 255.4 365.4)"/><rect x="276.3" y="202.8" width="4.7" height="2.3" fill="#fecaca" opacity="0.7" transform="rotate(139 276.3 202.8)"/><rect x="201.2" y="342.2" width="4.6" height="2.3" fill="#fecaca" opacity="0.7" transform="rotate(48 201.2 342.2)"/><rect x="128.5" y="279.9" width="4.6" height="2.3" fill="#fecaca" opacity="0.7" transform="rotate(142 128.5 279.9)"/><rect x="301.8" y="301.2" width="4.7" height="2.3" fill="#b91c1c" opacity="0.7" transform="rotate(117 301.8 301.2)"/><rect x="396.0" y="385.0" width="5.0" height="2.5" fill="#b91c1c" opacity="0.7" transform="rotate(330 396.0 385.0)"/><circle cx="209.1" cy="159.9" r="1.64" fill="#ffffff" opacity="0.84"/><circle cx="62.4" cy="108.6" r="1.37" fill="#ffffff" opacity="0.63"/><circle cx="151.8" cy="225.7" r="1.18" fill="#ffffff" opacity="0.69"/><circle cx="190.3" cy="265.9" r="1.23" fill="#ffffff" opacity="0.80"/><circle cx="56.9" cy="360.0" r="1.70" fill="#ffffff" opacity="0.54"/><circle cx="171.9" cy="50.1" r="1.08" fill="#ffffff" opacity="0.53"/><circle cx="92.3" cy="40.4" r="1.64" fill="#ffffff" opacity="0.22"/><circle cx="391.9" cy="372.1" r="0.67" fill="#ffffff" opacity="0.66"/><circle cx="40.9" cy="255.8" r="1.49" fill="#ffffff" opacity="0.28"/><circle cx="117.4" cy="306.9" r="0.77" fill="#ffffff" opacity="0.62"/><circle cx="73.7" cy="370.3" r="1.49" fill="#ffffff" opacity="0.54"/><circle cx="107.7" cy="282.6" r="1.75" fill="#ffffff" opacity="0.47"/><circle cx="304.0" cy="188.5" r="0.73" fill="#ffffff" opacity="0.66"/><circle cx="302.6" cy="221.4" r="1.53" fill="#ffffff" opacity="0.45"/><circle cx="19.7" cy="256.3" r="0.95" fill="#ffffff" opacity="0.57"/><circle cx="266.4" cy="107.7" r="1.65" fill="#ffffff" opacity="0.48"/><circle cx="97.0" cy="226.9" r="1.78" fill="#ffffff" opacity="0.26"/><circle cx="57.1" cy="317.8" r="1.12" fill="#ffffff" opacity="0.21"/><circle cx="71.7" cy="30.8" r="1.54" fill="#ffffff" opacity="0.72"/><circle cx="390.4" cy="274.9" r="1.18" fill="#ffffff" opacity="0.66"/><circle cx="297.2" cy="8.3" r="0.88" fill="#ffffff" opacity="0.65"/><circle cx="385.8" cy="381.5" r="0.96" fill="#ffffff" opacity="0.83"/><circle cx="354.1" cy="37.1" r="0.79" fill="#ffffff" opacity="0.46"/><circle cx="232.6" cy="330.0" r="0.76" fill="#ffffff" opacity="0.40"/><circle cx="43.6" cy="152.0" r="1.13" fill="#ffffff" opacity="0.36"/><circle cx="18.7" cy="380.4" r="0.72" fill="#ffffff" opacity="0.83"/><circle cx="126.1" cy="346.1" r="0.51" fill="#ffffff" opacity="0.47"/><circle cx="166.1" cy="221.3" r="0.73" fill="#ffffff" opacity="0.28"/><circle cx="361.7" cy="91.1" r="1.64" fill="#ffffff" opacity="0.62"/><circle cx="294.9" cy="108.7" r="0.92" fill="#ffffff" opacity="0.22"/><line x1="250.4" y1="180.0" x2="344.0" y2="180.0" stroke="#fecaca" stroke-width="2" opacity="0.55" stroke-linecap="round"/><line x1="245.4" y1="201.9" x2="329.7" y2="242.5" stroke="#fecaca" stroke-width="2" opacity="0.55" stroke-linecap="round"/><line x1="231.4" y1="219.4" x2="289.8" y2="292.6" stroke="#fecaca" stroke-width="2" opacity="0.55" stroke-linecap="round"/><line x1="211.2" y1="229.1" x2="232.0" y2="320.4" stroke="#fecaca" stroke-width="2" opacity="0.55" stroke-linecap="round"/><line x1="188.8" y1="229.1" x2="168.0" y2="320.4" stroke="#fecaca" stroke-width="2" opacity="0.55" stroke-linecap="round"/><line x1="168.6" y1="219.4" x2="110.2" y2="292.6" stroke="#fecaca" stroke-width="2" opacity="0.55" stroke-linecap="round"/><line x1="154.6" y1="201.9" x2="70.3" y2="242.5" stroke="#fecaca" stroke-width="2" opacity="0.55" stroke-linecap="round"/><line x1="149.6" y1="180.0" x2="56.0" y2="180.0" stroke="#fecaca" stroke-width="2" opacity="0.55" stroke-linecap="round"/><line x1="154.6" y1="158.1" x2="70.3" y2="117.5" stroke="#fecaca" stroke-width="2" opacity="0.55" stroke-linecap="round"/><line x1="168.6" y1="140.6" x2="110.2" y2="67.4" stroke="#fecaca" stroke-width="2" opacity="0.55" stroke-linecap="round"/><line x1="188.8" y1="130.9" x2="168.0" y2="39.6" stroke="#fecaca" stroke-width="2" opacity="0.55" stroke-linecap="round"/><line x1="211.2" y1="130.9" x2="232.0" y2="39.6" stroke="#fecaca" stroke-width="2" opacity="0.55" stroke-linecap="round"/><line x1="231.4" y1="140.6" x2="289.8" y2="67.4" stroke="#fecaca" stroke-width="2" opacity="0.55" stroke-linecap="round"/><line x1="245.4" y1="158.1" x2="329.7" y2="117.5" stroke="#fecaca" stroke-width="2" opacity="0.55" stroke-linecap="round"/><g transform="translate(200.0 180.0)">
      <!-- horns -->
      <path d="M -77.0 -121.00000000000001 L -110.0 -176.0 L -55.0 -121.00000000000001 Z" fill="#3b0b0b"/>
      <path d="M 77.0 -121.00000000000001 L 110.0 -176.0 L 55.0 -121.00000000000001 Z" fill="#3b0b0b"/>
      <!-- head/body scales -->
      <ellipse rx="114.4" ry="101.2" fill="#ef4444"/>
      <!-- scales pattern -->
      <circle cx="-44.0" cy="39.6" r="19.8" fill="#3b0b0b" opacity="0.35"/>
      <circle cx="44.0" cy="39.6" r="19.8" fill="#3b0b0b" opacity="0.35"/>
      <circle cx="0" cy="61.60000000000001" r="19.8" fill="#3b0b0b" opacity="0.35"/>
      <!-- eyes -->
      <ellipse cx="-35.2" cy="-22.0" rx="17.6" ry="22.0" fill="#ffd65a"/>
      <ellipse cx="35.2" cy="-22.0" rx="17.6" ry="22.0" fill="#ffd65a"/>
      <ellipse cx="-35.2" cy="-22.0" rx="4.4" ry="17.6" fill="#3b0b0b"/>
      <ellipse cx="35.2" cy="-22.0" rx="4.4" ry="17.6" fill="#3b0b0b"/>
      <!-- nostrils -->
      <circle cx="-13.2" cy="17.6" r="4.84" fill="#3b0b0b"/>
      <circle cx="13.2" cy="17.6" r="4.84" fill="#3b0b0b"/>
      <!-- fangs -->
      <path d="M -17.6 48.4 L -11.0 70.4 L -4.4 48.4 Z" fill="#fff"/>
      <path d="M 17.6 48.4 L 11.0 70.4 L 4.4 48.4 Z" fill="#fff"/>
      <!-- whiskers -->
      <path d="M -110.0 11.0 Q -154.0 22.0 -165.0 55.0" stroke="#3b0b0b" stroke-width="4.4" fill="none"/>
      <path d="M 110.0 11.0 Q 154.0 22.0 165.0 55.0" stroke="#3b0b0b" stroke-width="4.4" fill="none"/>
    </g><g transform="translate(70 70)">
      <circle r="26" fill="#ffd65a" stroke="#7a5100" stroke-width="2.1"/>
      <circle r="20.3" fill="none" stroke="#b57e05" stroke-width="1.6" stroke-dasharray="2 3" opacity="0.8"/>
      <text x="0" y="9.9" text-anchor="middle" font-family="Georgia, serif" font-weight="900" font-size="31.2" fill="#b57e05">$</text>
      <ellipse cx="-9.1" cy="-9.1" rx="9.1" ry="4.7" fill="#ffffff" opacity="0.55"/>
    </g><g transform="translate(330 70)">
      <circle r="22" fill="#ffd65a" stroke="#7a5100" stroke-width="1.8"/>
      <circle r="17.2" fill="none" stroke="#b57e05" stroke-width="1.3" stroke-dasharray="2 3" opacity="0.8"/>
      <text x="0" y="8.4" text-anchor="middle" font-family="Georgia, serif" font-weight="900" font-size="26.4" fill="#b57e05">$</text>
      <ellipse cx="-7.7" cy="-7.7" rx="7.7" ry="4.0" fill="#ffffff" opacity="0.55"/>
    </g><g transform="translate(80 320)">
      <circle r="18" fill="#ffd65a" stroke="#7a5100" stroke-width="1.4"/>
      <circle r="14.0" fill="none" stroke="#b57e05" stroke-width="1.1" stroke-dasharray="2 3" opacity="0.8"/>
      <text x="0" y="6.8" text-anchor="middle" font-family="Georgia, serif" font-weight="900" font-size="21.6" fill="#b57e05">$</text>
      <ellipse cx="-6.3" cy="-6.3" rx="6.3" ry="3.2" fill="#ffffff" opacity="0.55"/>
    </g><g>
      <path d="M 340 308 L 355.4 325.6 L 348.8 352 L 331.2 352 L 324.6 325.6 Z" fill="#ef4444" stroke="#ffffff" stroke-width="1.5" opacity="0.95"/>
      <path d="M 329.0 326.7 L 351.0 326.7" stroke="#e0f7ff" stroke-width="1.5" opacity="0.8"/>
      <path d="M 340 308 L 340 352" stroke="#e0f7ff" stroke-width="1" opacity="0.5"/>
      <path d="M 334.5 316.8 L 337.8 321.2" stroke="#ffffff" stroke-width="2" opacity="0.9"/>
    </g><g transform="translate(0 310)">
          <rect x="0" y="0" width="400" height="90" fill="rgba(0,0,0,0.55)"/>
          <rect x="0" y="0" width="400" height="3" fill="url(#gold-gt-dragon-4)"/>
          <text x="200.0" y="38" text-anchor="middle" font-family="Georgia, serif" font-weight="900" font-size="24" fill="url(#gold-gt-dragon-4)" filter="url(#shadow-gt-dragon-4)">DRAGON ANCIENT</text>
          <text x="200.0" y="64" text-anchor="middle" font-family="system-ui, sans-serif" font-weight="600" font-size="13" fill="#ffffff" opacity="0.85">DRAGON • 6726.BET</text>
        </g></svg>