<svg xmlns="http://www.w3.org/2000/svg" viewBox="0 0 400 400" preserveAspectRatio="xMidYMid slice" role="img" aria-hidden="true"><defs>
  <linearGradient id="bg-gt-fortune-20" x1="0" y1="0" x2="1" y2="1">
    <stop offset="0%" stop-color="#0b3b1a"/>
    <stop offset="100%" stop-color="#0a0a12"/>
  </linearGradient>
  <radialGradient id="glow-gt-fortune-20" cx="50%" cy="50%" r="60%">
    <stop offset="0%" stop-color="#f59e0b" stop-opacity="0.55"/>
    <stop offset="60%" stop-color="#16a34a" stop-opacity="0.15"/>
    <stop offset="100%" stop-color="#000000" stop-opacity="0"/>
  </radialGradient>
  <linearGradient id="gold-gt-fortune-20" x1="0" y1="0" x2="0" y2="1">
    <stop offset="0%" stop-color="#fde68a"/>
    <stop offset="50%" stop-color="#f59e0b"/>
    <stop offset="100%" stop-color="#16a34a"/>
  </linearGradient>
  <filter id="blur-gt-fortune-20" x="-10%" y="-10%" width="120%" height="120%">
    <feGaussianBlur stdDeviation="8"/>
  </filter>
  <filter id="shadow-gt-fortune-20" x="-10%" y="-10%" width="120%" height="120%">
    <feDropShadow dx="0" dy="4" stdDeviation="6" flood-color="#000" flood-opacity="0.45"/>
  </filter>
  <filter id="neon-gt-fortune-20" x="-20%" y="-20%" width="140%" height="140%">
    <feGaussianBlur stdDeviation="4" result="b"/>
    <feMerge>
      <feMergeNode in="b"/>
      <feMergeNode in="SourceGraphic"/>
    </feMerge>
  </filter>
</defs><rect width="400" height="400" fill="url(#bg-gt-fortune-20)"/><circle cx="200.0" cy="200.0" r="240.0" fill="url(#glow-gt-fortune-20)"/><circle cx="209.9" cy="23.1" r="1.49" fill="#ffffff" opacity="0.47"/><circle cx="56.5" cy="230.0" r="1.67" fill="#ffffff" opacity="0.57"/><circle cx="68.1" cy="53.4" r="1.55" fill="#ffffff" opacity="0.38"/><circle cx="260.3" cy="67.3" r="1.01" fill="#ffffff" opacity="0.70"/><circle cx="313.9" cy="311.3" r="0.84" fill="#ffffff" opacity="0.56"/><circle cx="132.0" cy="317.7" r="1.39" fill="#ffffff" opacity="0.46"/><circle cx="83.0" cy="252.6" r="1.05" fill="#ffffff" opacity="0.26"/><circle cx="188.7" cy="349.6" r="0.80" fill="#ffffff" opacity="0.47"/><circle cx="135.2" cy="157.8" r="1.38" fill="#ffffff" opacity="0.68"/><circle cx="152.4" cy="259.2" r="0.73" fill="#ffffff" opacity="0.53"/><circle cx="366.4" cy="114.8" r="1.29" fill="#ffffff" opacity="0.64"/><circle cx="179.7" cy="130.7" r="1.03" fill="#ffffff" opacity="0.81"/><circle cx="116.2" cy="381.8" r="1.01" fill="#ffffff" opacity="0.39"/><circle cx="152.8" cy="321.5" r="1.16" fill="#ffffff" opacity="0.27"/><circle cx="301.4" cy="311.5" r="0.71" fill="#ffffff" opacity="0.78"/><circle cx="80.1" cy="206.7" r="1.31" fill="#ffffff" opacity="0.74"/><circle cx="169.7" cy="231.7" r="0.75" fill="#ffffff" opacity="0.73"/><circle cx="336.1" cy="15.1" r="1.37" fill="#ffffff" opacity="0.46"/><circle cx="25.8" cy="198.6" r="1.13" fill="#ffffff" opacity="0.65"/><circle cx="249.7" cy="395.5" r="1.78" fill="#ffffff" opacity="0.63"/><circle cx="191.0" cy="153.3" r="1.07" fill="#ffffff" opacity="0.46"/><circle cx="155.5" cy="304.0" r="1.07" fill="#ffffff" opacity="0.25"/><circle cx="258.5" cy="180.8" r="1.58" fill="#ffffff" opacity="0.64"/><circle cx="295.5" cy="6.0" r="0.98" fill="#ffffff" opacity="0.52"/><circle cx="59.4" cy="58.3" r="1.50" fill="#ffffff" opacity="0.29"/><circle cx="248.1" cy="31.2" r="1.60" fill="#ffffff" opacity="0.48"/><circle cx="300.0" cy="356.8" r="1.70" fill="#ffffff" opacity="0.34"/><circle cx="171.1" cy="307.1" r="0.57" fill="#ffffff" opacity="0.20"/><circle cx="58.9" cy="125.4" r="1.68" fill="#ffffff" opacity="0.85"/><circle cx="65.8" cy="55.0" r="1.41" fill="#ffffff" opacity="0.71"/><line x1="256.0" y1="180.0" x2="360.0" y2="180.0" stroke="#fde68a" stroke-width="2" opacity="0.55" stroke-linecap="round"/><line x1="250.5" y1="204.3" x2="344.2" y2="249.4" stroke="#fde68a" stroke-width="2" opacity="0.55" stroke-linecap="round"/><line x1="234.9" y1="223.8" x2="299.8" y2="305.1" stroke="#fde68a" stroke-width="2" opacity="0.55" stroke-linecap="round"/><line x1="212.5" y1="234.6" x2="235.6" y2="336.0" stroke="#fde68a" stroke-width="2" opacity="0.55" stroke-linecap="round"/><line x1="187.5" y1="234.6" x2="164.4" y2="336.0" stroke="#fde68a" stroke-width="2" opacity="0.55" stroke-linecap="round"/><line x1="165.1" y1="223.8" x2="100.2" y2="305.1" stroke="#fde68a" stroke-width="2" opacity="0.55" stroke-linecap="round"/><line x1="149.5" y1="204.3" x2="55.8" y2="249.4" stroke="#fde68a" stroke-width="2" opacity="0.55" stroke-linecap="round"/><line x1="144.0" y1="180.0" x2="40.0" y2="180.0" stroke="#fde68a" stroke-width="2" opacity="0.55" stroke-linecap="round"/><line x1="149.5" y1="155.7" x2="55.8" y2="110.6" stroke="#fde68a" stroke-width="2" opacity="0.55" stroke-linecap="round"/><line x1="165.1" y1="136.2" x2="100.2" y2="54.9" stroke="#fde68a" stroke-width="2" opacity="0.55" stroke-linecap="round"/><line x1="187.5" y1="125.4" x2="164.4" y2="24.0" stroke="#fde68a" stroke-width="2" opacity="0.55" stroke-linecap="round"/><line x1="212.5" y1="125.4" x2="235.6" y2="24.0" stroke="#fde68a" stroke-width="2" opacity="0.55" stroke-linecap="round"/><line x1="234.9" y1="136.2" x2="299.8" y2="54.9" stroke="#fde68a" stroke-width="2" opacity="0.55" stroke-linecap="round"/><line x1="250.5" y1="155.7" x2="344.2" y2="110.6" stroke="#fde68a" stroke-width="2" opacity="0.55" stroke-linecap="round"/><g transform="translate(200.0 180.0)">
      <circle r="110.0" fill="#ffd65a" stroke="#7a5100" stroke-width="8.8"/>
      <circle r="85.8" fill="none" stroke="#b57e05" stroke-width="6.6" stroke-dasharray="2 3" opacity="0.8"/>
      <text x="0" y="41.8" text-anchor="middle" font-family="Georgia, serif" font-weight="900" font-size="132.0" fill="#b57e05">$</text>
      <ellipse cx="-38.5" cy="-38.5" rx="38.5" ry="19.8" fill="#ffffff" opacity="0.55"/>
    </g><g transform="translate(70 70)">
      <circle r="26" fill="#ffd65a" stroke="#7a5100" stroke-width="2.1"/>
      <circle r="20.3" fill="none" stroke="#b57e05" stroke-width="1.6" stroke-dasharray="2 3" opacity="0.8"/>
      <text x="0" y="9.9" text-anchor="middle" font-family="Georgia, serif" font-weight="900" font-size="31.2" fill="#b57e05">$</text>
      <ellipse cx="-9.1" cy="-9.1" rx="9.1" ry="4.7" fill="#ffffff" opacity="0.55"/>
    </g><g transform="translate(330 70)">
      <circle r="22" fill="#ffd65a" stroke="#7a5100" stroke-width="1.8"/>
      <circle r="17.2" fill="none" stroke="#b57e05" stroke-width="1.3" stroke-dasharray="2 3" opacity="0.8"/>
      <text x="0" y="8.4" text-anchor="middle" font-family="Georgia, serif" font-weight="900" font-size="26.4" fill="#b57e05">$</text>
      <ellipse cx="-7.7" cy="-7.7" rx="7.7" ry="4.0" fill="#ffffff" opacity="0.55"/>
    </g><g transform="translate(80 320)">
      <circle r="18" fill="#ffd65a" stroke="#7a5100" stroke-width="1.4"/>
      <circle r="14.0" fill="none" stroke="#b57e05" stroke-width="1.1" stroke-dasharray="2 3" opacity="0.8"/>
      <text x="0" y="6.8" text-anchor="middle" font-family="Georgia, serif" font-weight="900" font-size="21.6" fill="#b57e05">$</text>
      <ellipse cx="-6.3" cy="-6.3" rx="6.3" ry="3.2" fill="#ffffff" opacity="0.55"/>
    </g><g>
      <path d="M 340 308 L 355.4 325.6 L 348.8 352 L 331.2 352 L 324.6 325.6 Z" fill="#f59e0b" stroke="#ffffff" stroke-width="1.5" opacity="0.95"/>
      <path d="M 329.0 326.7 L 351.0 326.7" stroke="#e0f7ff" stroke-width="1.5" opacity="0.8"/>
      <path d="M 340 308 L 340 352" stroke="#e0f7ff" stroke-width="1" opacity="0.5"/>
      <path d="M 334.5 316.8 L 337.8 321.2" stroke="#ffffff" stroke-width="2" opacity="0.9"/>
    </g><g transform="translate(0 310)">
          <rect x="0" y="0" width="400" height="90" fill="rgba(0,0,0,0.55)"/>
          <rect x="0" y="0" width="400" height="3" fill="url(#gold-gt-fortune-20)"/>
          <text x="200.0" y="38" text-anchor="middle" font-family="Georgia, serif" font-weight="900" font-size="24" fill="url(#gold-gt-fortune-20)" filter="url(#shadow-gt-fortune-20)">FORTUNE GEMS</text>
          <text x="200.0" y="64" text-anchor="middle" font-family="system-ui, sans-serif" font-weight="600" font-size="13" fill="#ffffff" opacity="0.85">FORTUNE • 6726.BET</text>
        </g></svg>