<svg xmlns="http://www.w3.org/2000/svg" viewBox="0 0 400 400" preserveAspectRatio="xMidYMid slice" role="img" aria-hidden="true"><defs>
  <linearGradient id="bg-gt-pg-14" x1="0" y1="0" x2="1" y2="1">
    <stop offset="0%" stop-color="#0b1e3b"/>
    <stop offset="100%" stop-color="#0a0a12"/>
  </linearGradient>
  <radialGradient id="glow-gt-pg-14" cx="50%" cy="50%" r="60%">
    <stop offset="0%" stop-color="#22d3ee" stop-opacity="0.55"/>
    <stop offset="60%" stop-color="#6366f1" stop-opacity="0.15"/>
    <stop offset="100%" stop-color="#000000" stop-opacity="0"/>
  </radialGradient>
  <linearGradient id="gold-gt-pg-14" x1="0" y1="0" x2="0" y2="1">
    <stop offset="0%" stop-color="#e0f7ff"/>
    <stop offset="50%" stop-color="#22d3ee"/>
    <stop offset="100%" stop-color="#6366f1"/>
  </linearGradient>
  <filter id="blur-gt-pg-14" x="-10%" y="-10%" width="120%" height="120%">
    <feGaussianBlur stdDeviation="8"/>
  </filter>
  <filter id="shadow-gt-pg-14" x="-10%" y="-10%" width="120%" height="120%">
    <feDropShadow dx="0" dy="4" stdDeviation="6" flood-color="#000" flood-opacity="0.45"/>
  </filter>
  <filter id="neon-gt-pg-14" x="-20%" y="-20%" width="140%" height="140%">
    <feGaussianBlur stdDeviation="4" result="b"/>
    <feMerge>
      <feMergeNode in="b"/>
      <feMergeNode in="SourceGraphic"/>
    </feMerge>
  </filter>
</defs><rect width="400" height="400" fill="url(#bg-gt-pg-14)"/><rect x="6.4" y="355.2" width="4.3" height="2.1" fill="#22d3ee" opacity="0.7" transform="rotate(137 6.4 355.2)"/><rect x="69.8" y="123.3" width="6.3" height="3.2" fill="#6366f1" opacity="0.7" transform="rotate(0 69.8 123.3)"/><rect x="334.5" y="24.4" width="5.4" height="2.7" fill="#e0f7ff" opacity="0.7" transform="rotate(58 334.5 24.4)"/><rect x="219.5" y="152.4" width="6.0" height="3.0" fill="#22d3ee" opacity="0.7" transform="rotate(50 219.5 152.4)"/><rect x="202.4" y="199.0" width="3.9" height="2.0" fill="#6366f1" opacity="0.7" transform="rotate(278 202.4 199.0)"/><rect x="162.0" y="84.2" width="5.6" height="2.8" fill="#22d3ee" opacity="0.7" transform="rotate(355 162.0 84.2)"/><rect x="248.7" y="310.8" width="6.8" height="3.4" fill="#e0f7ff" opacity="0.7" transform="rotate(140 248.7 310.8)"/><rect x="36.8" y="162.0" width="6.8" height="3.4" fill="#22d3ee" opacity="0.7" transform="rotate(37 36.8 162.0)"/><rect x="177.3" y="173.5" width="6.5" height="3.3" fill="#22d3ee" opacity="0.7" transform="rotate(15 177.3 173.5)"/><rect x="41.6" y="219.4" width="6.0" height="3.0" fill="#e0f7ff" opacity="0.7" transform="rotate(324 41.6 219.4)"/><rect x="298.1" y="339.8" width="4.1" height="2.0" fill="#e0f7ff" opacity="0.7" transform="rotate(228 298.1 339.8)"/><rect x="117.8" y="357.9" width="3.3" height="1.6" fill="#22d3ee" opacity="0.7" transform="rotate(167 117.8 357.9)"/><rect x="319.0" y="102.0" width="6.3" height="3.2" fill="#22d3ee" opacity="0.7" transform="rotate(163 319.0 102.0)"/><rect x="376.7" y="28.5" width="4.2" height="2.1" fill="#22d3ee" opacity="0.7" transform="rotate(214 376.7 28.5)"/><rect x="252.0" y="259.3" width="4.4" height="2.2" fill="#22d3ee" opacity="0.7" transform="rotate(168 252.0 259.3)"/><rect x="209.5" y="327.4" width="3.7" height="1.8" fill="#22d3ee" opacity="0.7" transform="rotate(230 209.5 327.4)"/><rect x="287.1" y="110.1" width="4.3" height="2.2" fill="#6366f1" opacity="0.7" transform="rotate(60 287.1 110.1)"/><rect x="366.4" y="66.7" width="3.1" height="1.5" fill="#6366f1" opacity="0.7" transform="rotate(174 366.4 66.7)"/><rect x="177.5" y="280.4" width="5.4" height="2.7" fill="#e0f7ff" opacity="0.7" transform="rotate(19 177.5 280.4)"/><rect x="364.1" y="87.7" width="5.8" height="2.9" fill="#22d3ee" opacity="0.7" transform="rotate(282 364.1 87.7)"/><rect x="129.0" y="225.4" width="6.1" height="3.1" fill="#6366f1" opacity="0.7" transform="rotate(109 129.0 225.4)"/><rect x="236.7" y="360.5" width="6.6" height="3.3" fill="#22d3ee" opacity="0.7" transform="rotate(145 236.7 360.5)"/><rect x="68.5" y="374.4" width="5.6" height="2.8" fill="#e0f7ff" opacity="0.7" transform="rotate(14 68.5 374.4)"/><rect x="200.4" y="398.6" width="6.9" height="3.4" fill="#22d3ee" opacity="0.7" transform="rotate(266 200.4 398.6)"/><rect x="41.1" y="32.8" width="3.6" height="1.8" fill="#6366f1" opacity="0.7" transform="rotate(179 41.1 32.8)"/><rect x="2.6" y="296.8" width="6.6" height="3.3" fill="#e0f7ff" opacity="0.7" transform="rotate(293 2.6 296.8)"/><rect x="157.5" y="283.4" width="5.4" height="2.7" fill="#6366f1" opacity="0.7" transform="rotate(78 157.5 283.4)"/><rect x="394.3" y="263.9" width="6.3" height="3.2" fill="#6366f1" opacity="0.7" transform="rotate(238 394.3 263.9)"/><rect x="334.3" y="351.8" width="5.9" height="3.0" fill="#e0f7ff" opacity="0.7" transform="rotate(77 334.3 351.8)"/><rect x="265.5" y="354.2" width="5.9" height="2.9" fill="#6366f1" opacity="0.7" transform="rotate(168 265.5 354.2)"/><rect x="283.9" y="311.5" width="6.8" height="3.4" fill="#6366f1" opacity="0.7" transform="rotate(245 283.9 311.5)"/><rect x="78.9" y="354.4" width="5.7" height="2.8" fill="#e0f7ff" opacity="0.7" transform="rotate(85 78.9 354.4)"/><rect x="7.3" y="12.1" width="4.5" height="2.3" fill="#6366f1" opacity="0.7" transform="rotate(270 7.3 12.1)"/><rect x="6.7" y="262.3" width="4.2" height="2.1" fill="#22d3ee" opacity="0.7" transform="rotate(55 6.7 262.3)"/><rect x="349.1" y="124.3" width="3.0" height="1.5" fill="#6366f1" opacity="0.7" transform="rotate(136 349.1 124.3)"/><rect x="358.1" y="134.0" width="3.3" height="1.7" fill="#6366f1" opacity="0.7" transform="rotate(18 358.1 134.0)"/><rect x="116.4" y="49.3" width="5.4" height="2.7" fill="#e0f7ff" opacity="0.7" transform="rotate(108 116.4 49.3)"/><rect x="295.4" y="268.9" width="6.4" height="3.2" fill="#22d3ee" opacity="0.7" transform="rotate(179 295.4 268.9)"/><rect x="7.1" y="74.4" width="4.0" height="2.0" fill="#e0f7ff" opacity="0.7" transform="rotate(319 7.1 74.4)"/><rect x="69.2" y="182.6" width="7.0" height="3.5" fill="#6366f1" opacity="0.7" transform="rotate(251 69.2 182.6)"/><circle cx="70.5" cy="76.0" r="1.20" fill="#ffffff" opacity="0.39"/><circle cx="31.4" cy="266.3" r="1.26" fill="#ffffff" opacity="0.73"/><circle cx="214.7" cy="173.5" r="1.63" fill="#ffffff" opacity="0.50"/><circle cx="73.2" cy="179.4" r="1.55" fill="#ffffff" opacity="0.22"/><circle cx="320.0" cy="178.7" r="1.17" fill="#ffffff" opacity="0.46"/><circle cx="2.2" cy="253.7" r="1.78" fill="#ffffff" opacity="0.50"/><circle cx="272.5" cy="342.9" r="1.08" fill="#ffffff" opacity="0.35"/><circle cx="18.2" cy="163.8" r="1.13" fill="#ffffff" opacity="0.56"/><circle cx="236.4" cy="381.5" r="0.93" fill="#ffffff" opacity="0.53"/><circle cx="72.7" cy="98.8" r="1.31" fill="#ffffff" opacity="0.51"/><circle cx="6.6" cy="159.8" r="1.01" fill="#ffffff" opacity="0.64"/><circle cx="355.0" cy="16.3" r="0.99" fill="#ffffff" opacity="0.80"/><circle cx="299.3" cy="377.6" r="1.13" fill="#ffffff" opacity="0.53"/><circle cx="278.3" cy="140.5" r="1.30" fill="#ffffff" opacity="0.57"/><circle cx="297.1" cy="158.9" r="1.77" fill="#ffffff" opacity="0.40"/><circle cx="311.5" cy="49.6" r="1.75" fill="#ffffff" opacity="0.48"/><circle cx="223.3" cy="350.1" r="0.93" fill="#ffffff" opacity="0.45"/><circle cx="334.8" cy="306.1" r="0.64" fill="#ffffff" opacity="0.80"/><circle cx="3.0" cy="372.3" r="1.60" fill="#ffffff" opacity="0.57"/><circle cx="101.4" cy="121.6" r="1.42" fill="#ffffff" opacity="0.54"/><circle cx="399.1" cy="132.3" r="1.43" fill="#ffffff" opacity="0.44"/><circle cx="161.9" cy="379.5" r="1.22" fill="#ffffff" opacity="0.49"/><circle cx="376.4" cy="215.5" r="1.68" fill="#ffffff" opacity="0.73"/><circle cx="364.6" cy="93.0" r="0.57" fill="#ffffff" opacity="0.46"/><circle cx="204.5" cy="218.6" r="1.78" fill="#ffffff" opacity="0.58"/><circle cx="114.7" cy="255.6" r="1.10" fill="#ffffff" opacity="0.58"/><circle cx="51.4" cy="101.2" r="1.25" fill="#ffffff" opacity="0.54"/><circle cx="19.8" cy="242.9" r="1.23" fill="#ffffff" opacity="0.42"/><circle cx="143.8" cy="241.5" r="0.66" fill="#ffffff" opacity="0.30"/><circle cx="137.6" cy="389.3" r="1.37" fill="#ffffff" opacity="0.48"/><line x1="253.9" y1="180.0" x2="354.0" y2="180.0" stroke="#e0f7ff" stroke-width="2" opacity="0.55" stroke-linecap="round"/><line x1="248.6" y1="203.4" x2="338.7" y2="246.8" stroke="#e0f7ff" stroke-width="2" opacity="0.55" stroke-linecap="round"/><line x1="233.6" y1="222.1" x2="296.0" y2="300.4" stroke="#e0f7ff" stroke-width="2" opacity="0.55" stroke-linecap="round"/><line x1="212.0" y1="232.5" x2="234.3" y2="330.1" stroke="#e0f7ff" stroke-width="2" opacity="0.55" stroke-linecap="round"/><line x1="188.0" y1="232.5" x2="165.7" y2="330.1" stroke="#e0f7ff" stroke-width="2" opacity="0.55" stroke-linecap="round"/><line x1="166.4" y1="222.1" x2="104.0" y2="300.4" stroke="#e0f7ff" stroke-width="2" opacity="0.55" stroke-linecap="round"/><line x1="151.4" y1="203.4" x2="61.3" y2="246.8" stroke="#e0f7ff" stroke-width="2" opacity="0.55" stroke-linecap="round"/><line x1="146.1" y1="180.0" x2="46.0" y2="180.0" stroke="#e0f7ff" stroke-width="2" opacity="0.55" stroke-linecap="round"/><line x1="151.4" y1="156.6" x2="61.3" y2="113.2" stroke="#e0f7ff" stroke-width="2" opacity="0.55" stroke-linecap="round"/><line x1="166.4" y1="137.9" x2="104.0" y2="59.6" stroke="#e0f7ff" stroke-width="2" opacity="0.55" stroke-linecap="round"/><line x1="188.0" y1="127.5" x2="165.7" y2="29.9" stroke="#e0f7ff" stroke-width="2" opacity="0.55" stroke-linecap="round"/><line x1="212.0" y1="127.5" x2="234.3" y2="29.9" stroke="#e0f7ff" stroke-width="2" opacity="0.55" stroke-linecap="round"/><line x1="233.6" y1="137.9" x2="296.0" y2="59.6" stroke="#e0f7ff" stroke-width="2" opacity="0.55" stroke-linecap="round"/><line x1="248.6" y1="156.6" x2="338.7" y2="113.2" stroke="#e0f7ff" stroke-width="2" opacity="0.55" stroke-linecap="round"/><g>
      <path d="M 200.0 58.999999999999986 L 284.7 155.8 L 248.4 301.0 L 151.6 301.0 L 115.3 155.8 Z" fill="#22d3ee" stroke="#ffffff" stroke-width="1.5" opacity="0.95"/>
      <path d="M 139.5 161.85 L 260.5 161.85" stroke="#e0f7ff" stroke-width="1.5" opacity="0.8"/>
      <path d="M 200.0 58.999999999999986 L 200.0 301.0" stroke="#e0f7ff" stroke-width="1" opacity="0.5"/>
      <path d="M 169.75 107.39999999999999 L 187.9 131.6" stroke="#ffffff" stroke-width="2" opacity="0.9"/>
    </g><g transform="translate(70 70)">
      <circle r="26" fill="#ffd65a" stroke="#7a5100" stroke-width="2.1"/>
      <circle r="20.3" fill="none" stroke="#b57e05" stroke-width="1.6" stroke-dasharray="2 3" opacity="0.8"/>
      <text x="0" y="9.9" text-anchor="middle" font-family="Georgia, serif" font-weight="900" font-size="31.2" fill="#b57e05">$</text>
      <ellipse cx="-9.1" cy="-9.1" rx="9.1" ry="4.7" fill="#ffffff" opacity="0.55"/>
    </g><g transform="translate(330 70)">
      <circle r="22" fill="#ffd65a" stroke="#7a5100" stroke-width="1.8"/>
      <circle r="17.2" fill="none" stroke="#b57e05" stroke-width="1.3" stroke-dasharray="2 3" opacity="0.8"/>
      <text x="0" y="8.4" text-anchor="middle" font-family="Georgia, serif" font-weight="900" font-size="26.4" fill="#b57e05">$</text>
      <ellipse cx="-7.7" cy="-7.7" rx="7.7" ry="4.0" fill="#ffffff" opacity="0.55"/>
    </g><g transform="translate(80 320)">
      <circle r="18" fill="#ffd65a" stroke="#7a5100" stroke-width="1.4"/>
      <circle r="14.0" fill="none" stroke="#b57e05" stroke-width="1.1" stroke-dasharray="2 3" opacity="0.8"/>
      <text x="0" y="6.8" text-anchor="middle" font-family="Georgia, serif" font-weight="900" font-size="21.6" fill="#b57e05">$</text>
      <ellipse cx="-6.3" cy="-6.3" rx="6.3" ry="3.2" fill="#ffffff" opacity="0.55"/>
    </g><g>
      <path d="M 340 308 L 355.4 325.6 L 348.8 352 L 331.2 352 L 324.6 325.6 Z" fill="#22d3ee" stroke="#ffffff" stroke-width="1.5" opacity="0.95"/>
      <path d="M 329.0 326.7 L 351.0 326.7" stroke="#e0f7ff" stroke-width="1.5" opacity="0.8"/>
      <path d="M 340 308 L 340 352" stroke="#e0f7ff" stroke-width="1" opacity="0.5"/>
      <path d="M 334.5 316.8 L 337.8 321.2" stroke="#ffffff" stroke-width="2" opacity="0.9"/>
    </g><g transform="translate(0 310)">
          <rect x="0" y="0" width="400" height="90" fill="rgba(0,0,0,0.55)"/>
          <rect x="0" y="0" width="400" height="3" fill="url(#gold-gt-pg-14)"/>
          <text x="200.0" y="38" text-anchor="middle" font-family="Georgia, serif" font-weight="900" font-size="24" fill="url(#gold-gt-pg-14)" filter="url(#shadow-gt-pg-14)">PG MAGIC</text>
          <text x="200.0" y="64" text-anchor="middle" font-family="system-ui, sans-serif" font-weight="600" font-size="13" fill="#ffffff" opacity="0.85">PG • 6726.BET</text>
        </g></svg>