<svg xmlns="http://www.w3.org/2000/svg" viewBox="0 0 400 400" preserveAspectRatio="xMidYMid slice" role="img" aria-hidden="true"><defs>
  <linearGradient id="bg-gt-rabbit-1" x1="0" y1="0" x2="1" y2="1">
    <stop offset="0%" stop-color="#3a0b22"/>
    <stop offset="100%" stop-color="#0a0a12"/>
  </linearGradient>
  <radialGradient id="glow-gt-rabbit-1" cx="50%" cy="50%" r="60%">
    <stop offset="0%" stop-color="#ff5ea0" stop-opacity="0.55"/>
    <stop offset="60%" stop-color="#b634ff" stop-opacity="0.15"/>
    <stop offset="100%" stop-color="#000000" stop-opacity="0"/>
  </radialGradient>
  <linearGradient id="gold-gt-rabbit-1" x1="0" y1="0" x2="0" y2="1">
    <stop offset="0%" stop-color="#ffb3e0"/>
    <stop offset="50%" stop-color="#ff5ea0"/>
    <stop offset="100%" stop-color="#b634ff"/>
  </linearGradient>
  <filter id="blur-gt-rabbit-1" x="-10%" y="-10%" width="120%" height="120%">
    <feGaussianBlur stdDeviation="8"/>
  </filter>
  <filter id="shadow-gt-rabbit-1" x="-10%" y="-10%" width="120%" height="120%">
    <feDropShadow dx="0" dy="4" stdDeviation="6" flood-color="#000" flood-opacity="0.45"/>
  </filter>
  <filter id="neon-gt-rabbit-1" x="-20%" y="-20%" width="140%" height="140%">
    <feGaussianBlur stdDeviation="4" result="b"/>
    <feMerge>
      <feMergeNode in="b"/>
      <feMergeNode in="SourceGraphic"/>
    </feMerge>
  </filter>
</defs><rect width="400" height="400" fill="url(#bg-gt-rabbit-1)"/><circle cx="200.0" cy="200.0" r="40" fill="none" stroke="#ffb3e0" stroke-width="2" opacity="0.40"/><circle cx="200.0" cy="200.0" r="80" fill="none" stroke="#ffb3e0" stroke-width="2" opacity="0.34"/><circle cx="200.0" cy="200.0" r="120" fill="none" stroke="#ffb3e0" stroke-width="2" opacity="0.28"/><circle cx="200.0" cy="200.0" r="160" fill="none" stroke="#ffb3e0" stroke-width="2" opacity="0.22"/><circle cx="200.0" cy="200.0" r="200" fill="none" stroke="#ffb3e0" stroke-width="2" opacity="0.16"/><circle cx="32.0" cy="125.3" r="0.67" fill="#ffffff" opacity="0.38"/><circle cx="398.9" cy="242.2" r="0.62" fill="#ffffff" opacity="0.64"/><circle cx="96.3" cy="389.5" r="0.57" fill="#ffffff" opacity="0.25"/><circle cx="197.5" cy="216.5" r="0.74" fill="#ffffff" opacity="0.36"/><circle cx="260.2" cy="270.7" r="1.20" fill="#ffffff" opacity="0.76"/><circle cx="239.7" cy="189.4" r="1.44" fill="#ffffff" opacity="0.39"/><circle cx="350.8" cy="318.8" r="0.98" fill="#ffffff" opacity="0.49"/><circle cx="268.8" cy="105.9" r="1.48" fill="#ffffff" opacity="0.43"/><circle cx="267.9" cy="360.6" r="0.55" fill="#ffffff" opacity="0.78"/><circle cx="315.5" cy="40.8" r="0.54" fill="#ffffff" opacity="0.34"/><circle cx="34.9" cy="311.6" r="0.98" fill="#ffffff" opacity="0.49"/><circle cx="244.2" cy="312.9" r="1.76" fill="#ffffff" opacity="0.22"/><circle cx="259.8" cy="386.1" r="1.35" fill="#ffffff" opacity="0.39"/><circle cx="62.7" cy="208.7" r="1.78" fill="#ffffff" opacity="0.48"/><circle cx="350.7" cy="30.8" r="1.39" fill="#ffffff" opacity="0.59"/><circle cx="105.1" cy="154.6" r="0.51" fill="#ffffff" opacity="0.55"/><circle cx="219.7" cy="162.8" r="1.42" fill="#ffffff" opacity="0.77"/><circle cx="328.2" cy="306.1" r="1.55" fill="#ffffff" opacity="0.58"/><circle cx="109.9" cy="151.9" r="0.58" fill="#ffffff" opacity="0.56"/><circle cx="221.1" cy="190.3" r="0.76" fill="#ffffff" opacity="0.55"/><circle cx="258.1" cy="235.3" r="0.81" fill="#ffffff" opacity="0.52"/><circle cx="48.3" cy="29.7" r="0.76" fill="#ffffff" opacity="0.74"/><circle cx="210.6" cy="346.1" r="1.06" fill="#ffffff" opacity="0.32"/><circle cx="262.5" cy="99.6" r="1.58" fill="#ffffff" opacity="0.51"/><circle cx="108.8" cy="154.5" r="1.39" fill="#ffffff" opacity="0.44"/><circle cx="77.9" cy="393.1" r="0.68" fill="#ffffff" opacity="0.46"/><circle cx="143.6" cy="53.5" r="0.64" fill="#ffffff" opacity="0.60"/><circle cx="274.5" cy="143.6" r="0.71" fill="#ffffff" opacity="0.79"/><circle cx="347.7" cy="272.6" r="0.56" fill="#ffffff" opacity="0.40"/><circle cx="168.4" cy="273.1" r="1.04" fill="#ffffff" opacity="0.47"/><line x1="249.3" y1="180.0" x2="341.0" y2="180.0" stroke="#ffb3e0" stroke-width="2" opacity="0.55" stroke-linecap="round"/><line x1="244.5" y1="201.4" x2="327.0" y2="241.2" stroke="#ffb3e0" stroke-width="2" opacity="0.55" stroke-linecap="round"/><line x1="230.8" y1="218.6" x2="287.9" y2="290.2" stroke="#ffb3e0" stroke-width="2" opacity="0.55" stroke-linecap="round"/><line x1="211.0" y1="228.1" x2="231.4" y2="317.5" stroke="#ffb3e0" stroke-width="2" opacity="0.55" stroke-linecap="round"/><line x1="189.0" y1="228.1" x2="168.6" y2="317.5" stroke="#ffb3e0" stroke-width="2" opacity="0.55" stroke-linecap="round"/><line x1="169.2" y1="218.6" x2="112.1" y2="290.2" stroke="#ffb3e0" stroke-width="2" opacity="0.55" stroke-linecap="round"/><line x1="155.5" y1="201.4" x2="73.0" y2="241.2" stroke="#ffb3e0" stroke-width="2" opacity="0.55" stroke-linecap="round"/><line x1="150.7" y1="180.0" x2="59.0" y2="180.0" stroke="#ffb3e0" stroke-width="2" opacity="0.55" stroke-linecap="round"/><line x1="155.5" y1="158.6" x2="73.0" y2="118.8" stroke="#ffb3e0" stroke-width="2" opacity="0.55" stroke-linecap="round"/><line x1="169.2" y1="141.4" x2="112.1" y2="69.8" stroke="#ffb3e0" stroke-width="2" opacity="0.55" stroke-linecap="round"/><line x1="189.0" y1="131.9" x2="168.6" y2="42.5" stroke="#ffb3e0" stroke-width="2" opacity="0.55" stroke-linecap="round"/><line x1="211.0" y1="131.9" x2="231.4" y2="42.5" stroke="#ffb3e0" stroke-width="2" opacity="0.55" stroke-linecap="round"/><line x1="230.8" y1="141.4" x2="287.9" y2="69.8" stroke="#ffb3e0" stroke-width="2" opacity="0.55" stroke-linecap="round"/><line x1="244.5" y1="158.6" x2="327.0" y2="118.8" stroke="#ffb3e0" stroke-width="2" opacity="0.55" stroke-linecap="round"/><g transform="translate(200.0 180.0)">
      <!-- ears -->
      <ellipse cx="-44.0" cy="-143.0" rx="22.0" ry="77.0" fill="#ffffff"/>
      <ellipse cx="44.0" cy="-143.0" rx="22.0" ry="77.0" fill="#ffffff"/>
      <ellipse cx="-44.0" cy="-143.0" rx="11.0" ry="52.8" fill="#ff5ea0" opacity="0.85"/>
      <ellipse cx="44.0" cy="-143.0" rx="11.0" ry="52.8" fill="#ff5ea0" opacity="0.85"/>
      <!-- head -->
      <ellipse rx="105.6" ry="96.8" fill="#ffffff"/>
      <!-- cheeks -->
      <circle cx="-61.60000000000001" cy="22.0" r="17.6" fill="#ff5ea0" opacity="0.55"/>
      <circle cx="61.60000000000001" cy="22.0" r="17.6" fill="#ff5ea0" opacity="0.55"/>
      <!-- eyes -->
      <circle cx="-33.0" cy="-11.0" r="13.2" fill="#2a0a22"/>
      <circle cx="33.0" cy="-11.0" r="13.2" fill="#2a0a22"/>
      <circle cx="-28.6" cy="-15.400000000000002" r="4.4" fill="#fff"/>
      <circle cx="37.400000000000006" cy="-15.400000000000002" r="4.4" fill="#fff"/>
      <!-- nose + mouth -->
      <path d="M -8.8 17.6 L 8.8 17.6 L 0 30.800000000000004 Z" fill="#ff5ea0"/>
      <path d="M 0 30.800000000000004 L 0 44.0" stroke="#2a0a22" stroke-width="4.4"/>
      <path d="M 0 44.0 Q -17.6 57.2 -26.4 48.4" stroke="#2a0a22" stroke-width="4.4" fill="none"/>
      <path d="M 0 44.0 Q 17.6 57.2 26.4 48.4" stroke="#2a0a22" stroke-width="4.4" fill="none"/>
      <!-- teeth -->
      <rect x="-8.8" y="48.4" width="7.700000000000001" height="17.6" fill="#fff"/>
      <rect x="1.1" y="48.4" width="7.700000000000001" height="17.6" fill="#fff"/>
    </g><g transform="translate(70 70)">
      <circle r="26" fill="#ffd65a" stroke="#7a5100" stroke-width="2.1"/>
      <circle r="20.3" fill="none" stroke="#b57e05" stroke-width="1.6" stroke-dasharray="2 3" opacity="0.8"/>
      <text x="0" y="9.9" text-anchor="middle" font-family="Georgia, serif" font-weight="900" font-size="31.2" fill="#b57e05">$</text>
      <ellipse cx="-9.1" cy="-9.1" rx="9.1" ry="4.7" fill="#ffffff" opacity="0.55"/>
    </g><g transform="translate(330 70)">
      <circle r="22" fill="#ffd65a" stroke="#7a5100" stroke-width="1.8"/>
      <circle r="17.2" fill="none" stroke="#b57e05" stroke-width="1.3" stroke-dasharray="2 3" opacity="0.8"/>
      <text x="0" y="8.4" text-anchor="middle" font-family="Georgia, serif" font-weight="900" font-size="26.4" fill="#b57e05">$</text>
      <ellipse cx="-7.7" cy="-7.7" rx="7.7" ry="4.0" fill="#ffffff" opacity="0.55"/>
    </g><g transform="translate(80 320)">
      <circle r="18" fill="#ffd65a" stroke="#7a5100" stroke-width="1.4"/>
      <circle r="14.0" fill="none" stroke="#b57e05" stroke-width="1.1" stroke-dasharray="2 3" opacity="0.8"/>
      <text x="0" y="6.8" text-anchor="middle" font-family="Georgia, serif" font-weight="900" font-size="21.6" fill="#b57e05">$</text>
      <ellipse cx="-6.3" cy="-6.3" rx="6.3" ry="3.2" fill="#ffffff" opacity="0.55"/>
    </g><g>
      <path d="M 340 308 L 355.4 325.6 L 348.8 352 L 331.2 352 L 324.6 325.6 Z" fill="#ff5ea0" stroke="#ffffff" stroke-width="1.5" opacity="0.95"/>
      <path d="M 329.0 326.7 L 351.0 326.7" stroke="#e0f7ff" stroke-width="1.5" opacity="0.8"/>
      <path d="M 340 308 L 340 352" stroke="#e0f7ff" stroke-width="1" opacity="0.5"/>
      <path d="M 334.5 316.8 L 337.8 321.2" stroke="#ffffff" stroke-width="2" opacity="0.9"/>
    </g><g transform="translate(0 310)">
          <rect x="0" y="0" width="400" height="90" fill="rgba(0,0,0,0.55)"/>
          <rect x="0" y="0" width="400" height="3" fill="url(#gold-gt-rabbit-1)"/>
          <text x="200.0" y="38" text-anchor="middle" font-family="Georgia, serif" font-weight="900" font-size="24" fill="url(#gold-gt-rabbit-1)" filter="url(#shadow-gt-rabbit-1)">RABBIT LUCKY</text>
          <text x="200.0" y="64" text-anchor="middle" font-family="system-ui, sans-serif" font-weight="600" font-size="13" fill="#ffffff" opacity="0.85">RABBIT • 6726.BET</text>
        </g></svg>