<svg xmlns="http://www.w3.org/2000/svg" viewBox="0 0 400 400" preserveAspectRatio="xMidYMid slice" role="img" aria-hidden="true"><defs>
  <linearGradient id="bg-gt-spin-7" x1="0" y1="0" x2="1" y2="1">
    <stop offset="0%" stop-color="#2a0b3b"/>
    <stop offset="100%" stop-color="#0a0a12"/>
  </linearGradient>
  <radialGradient id="glow-gt-spin-7" cx="50%" cy="50%" r="60%">
    <stop offset="0%" stop-color="#a855f7" stop-opacity="0.55"/>
    <stop offset="60%" stop-color="#ec4899" stop-opacity="0.15"/>
    <stop offset="100%" stop-color="#000000" stop-opacity="0"/>
  </radialGradient>
  <linearGradient id="gold-gt-spin-7" x1="0" y1="0" x2="0" y2="1">
    <stop offset="0%" stop-color="#f0abfc"/>
    <stop offset="50%" stop-color="#a855f7"/>
    <stop offset="100%" stop-color="#ec4899"/>
  </linearGradient>
  <filter id="blur-gt-spin-7" x="-10%" y="-10%" width="120%" height="120%">
    <feGaussianBlur stdDeviation="8"/>
  </filter>
  <filter id="shadow-gt-spin-7" x="-10%" y="-10%" width="120%" height="120%">
    <feDropShadow dx="0" dy="4" stdDeviation="6" flood-color="#000" flood-opacity="0.45"/>
  </filter>
  <filter id="neon-gt-spin-7" x="-20%" y="-20%" width="140%" height="140%">
    <feGaussianBlur stdDeviation="4" result="b"/>
    <feMerge>
      <feMergeNode in="b"/>
      <feMergeNode in="SourceGraphic"/>
    </feMerge>
  </filter>
</defs><rect width="400" height="400" fill="url(#bg-gt-spin-7)"/><rect x="-100" y="-50" width="600" height="18" fill="#a855f7" opacity="0.08" transform="rotate(19 200.0 200.0)"/><rect x="-100" y="10" width="600" height="18" fill="#a855f7" opacity="0.08" transform="rotate(49 200.0 200.0)"/><rect x="-100" y="70" width="600" height="18" fill="#a855f7" opacity="0.08" transform="rotate(79 200.0 200.0)"/><rect x="-100" y="130" width="600" height="18" fill="#a855f7" opacity="0.08" transform="rotate(109 200.0 200.0)"/><rect x="-100" y="190" width="600" height="18" fill="#a855f7" opacity="0.08" transform="rotate(139 200.0 200.0)"/><rect x="-100" y="250" width="600" height="18" fill="#a855f7" opacity="0.08" transform="rotate(169 200.0 200.0)"/><circle cx="110.7" cy="377.0" r="1.00" fill="#ffffff" opacity="0.62"/><circle cx="18.5" cy="334.6" r="1.45" fill="#ffffff" opacity="0.37"/><circle cx="191.0" cy="255.7" r="0.63" fill="#ffffff" opacity="0.21"/><circle cx="364.2" cy="317.9" r="1.64" fill="#ffffff" opacity="0.34"/><circle cx="114.8" cy="74.2" r="0.73" fill="#ffffff" opacity="0.49"/><circle cx="293.2" cy="199.3" r="1.68" fill="#ffffff" opacity="0.69"/><circle cx="284.4" cy="285.4" r="0.60" fill="#ffffff" opacity="0.42"/><circle cx="184.1" cy="349.2" r="0.85" fill="#ffffff" opacity="0.35"/><circle cx="341.5" cy="31.5" r="1.21" fill="#ffffff" opacity="0.29"/><circle cx="308.9" cy="231.9" r="1.74" fill="#ffffff" opacity="0.45"/><circle cx="26.7" cy="96.3" r="1.30" fill="#ffffff" opacity="0.54"/><circle cx="331.3" cy="48.0" r="1.72" fill="#ffffff" opacity="0.69"/><circle cx="323.8" cy="271.1" r="0.98" fill="#ffffff" opacity="0.39"/><circle cx="308.3" cy="314.3" r="1.37" fill="#ffffff" opacity="0.45"/><circle cx="84.7" cy="146.1" r="1.61" fill="#ffffff" opacity="0.69"/><circle cx="97.1" cy="173.2" r="0.94" fill="#ffffff" opacity="0.63"/><circle cx="120.4" cy="120.1" r="1.32" fill="#ffffff" opacity="0.40"/><circle cx="231.4" cy="147.4" r="1.10" fill="#ffffff" opacity="0.25"/><circle cx="108.2" cy="302.5" r="1.65" fill="#ffffff" opacity="0.79"/><circle cx="94.8" cy="234.1" r="1.68" fill="#ffffff" opacity="0.21"/><circle cx="377.2" cy="397.7" r="0.54" fill="#ffffff" opacity="0.29"/><circle cx="383.0" cy="207.5" r="0.99" fill="#ffffff" opacity="0.46"/><circle cx="177.1" cy="169.0" r="1.49" fill="#ffffff" opacity="0.55"/><circle cx="277.4" cy="97.3" r="1.52" fill="#ffffff" opacity="0.79"/><circle cx="212.5" cy="152.1" r="1.03" fill="#ffffff" opacity="0.64"/><circle cx="264.9" cy="229.4" r="0.73" fill="#ffffff" opacity="0.48"/><circle cx="105.1" cy="61.2" r="1.15" fill="#ffffff" opacity="0.71"/><circle cx="240.2" cy="355.8" r="0.97" fill="#ffffff" opacity="0.42"/><circle cx="6.4" cy="110.8" r="0.74" fill="#ffffff" opacity="0.49"/><circle cx="216.4" cy="338.7" r="1.04" fill="#ffffff" opacity="0.48"/><line x1="251.4" y1="180.0" x2="347.0" y2="180.0" stroke="#f0abfc" stroke-width="2" opacity="0.55" stroke-linecap="round"/><line x1="246.4" y1="202.3" x2="332.4" y2="243.8" stroke="#f0abfc" stroke-width="2" opacity="0.55" stroke-linecap="round"/><line x1="232.1" y1="220.2" x2="291.7" y2="294.9" stroke="#f0abfc" stroke-width="2" opacity="0.55" stroke-linecap="round"/><line x1="211.4" y1="230.2" x2="232.7" y2="323.3" stroke="#f0abfc" stroke-width="2" opacity="0.55" stroke-linecap="round"/><line x1="188.6" y1="230.2" x2="167.3" y2="323.3" stroke="#f0abfc" stroke-width="2" opacity="0.55" stroke-linecap="round"/><line x1="167.9" y1="220.2" x2="108.3" y2="294.9" stroke="#f0abfc" stroke-width="2" opacity="0.55" stroke-linecap="round"/><line x1="153.6" y1="202.3" x2="67.6" y2="243.8" stroke="#f0abfc" stroke-width="2" opacity="0.55" stroke-linecap="round"/><line x1="148.6" y1="180.0" x2="53.0" y2="180.0" stroke="#f0abfc" stroke-width="2" opacity="0.55" stroke-linecap="round"/><line x1="153.6" y1="157.7" x2="67.6" y2="116.2" stroke="#f0abfc" stroke-width="2" opacity="0.55" stroke-linecap="round"/><line x1="167.9" y1="139.8" x2="108.3" y2="65.1" stroke="#f0abfc" stroke-width="2" opacity="0.55" stroke-linecap="round"/><line x1="188.6" y1="129.8" x2="167.3" y2="36.7" stroke="#f0abfc" stroke-width="2" opacity="0.55" stroke-linecap="round"/><line x1="211.4" y1="129.8" x2="232.7" y2="36.7" stroke="#f0abfc" stroke-width="2" opacity="0.55" stroke-linecap="round"/><line x1="232.1" y1="139.8" x2="291.7" y2="65.1" stroke="#f0abfc" stroke-width="2" opacity="0.55" stroke-linecap="round"/><line x1="246.4" y1="157.7" x2="332.4" y2="116.2" stroke="#f0abfc" stroke-width="2" opacity="0.55" stroke-linecap="round"/><g>
      <polyline points="200.0,180.0 201.1,180.2 202.0,180.9 202.7,181.9 202.9,183.3 202.7,184.8 202.0,186.3 200.8,187.7 199.0,188.7 196.9,189.4 194.4,189.5 191.8,188.9 189.3,187.7 186.9,185.7 184.9,183.1 183.5,179.9 182.8,176.2 183.0,172.2 184.1,168.2 186.2,164.3 189.2,160.8 193.1,157.9 197.8,155.9 203.0,154.9 208.5,155.0 214.1,156.4 219.4,159.0 224.3,162.9 228.3,167.9 231.3,173.9 233.0,180.6 233.2,187.7 231.9,194.9 229.0,201.9 224.5,208.3 218.6,213.7 211.5,217.9 203.4,220.6 194.7,221.5 185.9,220.5 177.2,217.6 169.1,212.8 162.0,206.3 156.3,198.2 152.4,188.9 150.5,178.8 150.8,168.2 153.3,157.7 158.1,147.8 165.0,139.0 173.8,131.6 184.2,126.2 195.7,123.0 207.8,122.2 220.1,124.1 231.9,128.6 242.6,135.5 251.9,144.8 259.1,156.0 263.9,168.6 266.0,182.2 265.1,196.2 261.3,209.9 254.6,222.7 245.2,234.0 233.5,243.2 219.9,249.8 204.9,253.5 189.4,254.0 173.8,251.2 158.9,245.1 145.5,235.9 134.1,223.9 125.4,209.6 119.7,193.6 117.6,176.5 119.0,159.2 124.2,142.2 132.9,126.6 144.8,112.9 159.5,101.9 176.3,94.1 194.7,90.0 213.8,89.7 232.7,93.6 250.6,101.3 266.6,112.8 280.1,127.6 290.3,145.0 296.7,164.4 298.9,185.0 296.7,205.8 290.2,225.9 279.5,244.4 265.0,260.4 247.4,273.2 227.2,282.0 205.4,286.6 182.9,286.4 160.7,281.5 139.7,272.0 121.1,258.2 105.6,240.7 94.0,220.0 86.9,197.2 84.7,173.2 87.6,149.0 95.5,125.8 108.3,104.5 125.4,86.2 146.1,71.7 169.6,61.8 194.8,56.9 220.8,57.5 246.3,63.5 270.2,74.7 291.4,90.9 308.9,111.3 321.8,135.2 329.6,161.4" fill="none" stroke="#a855f7" stroke-width="13.2" stroke-linecap="round" opacity="0.9" filter="url(#neon)"/>
      <circle cx="200.0" cy="180.0" r="26.4" fill="#fff" opacity="0.9"/>
    </g><g transform="translate(70 70)">
      <circle r="26" fill="#ffd65a" stroke="#7a5100" stroke-width="2.1"/>
      <circle r="20.3" fill="none" stroke="#b57e05" stroke-width="1.6" stroke-dasharray="2 3" opacity="0.8"/>
      <text x="0" y="9.9" text-anchor="middle" font-family="Georgia, serif" font-weight="900" font-size="31.2" fill="#b57e05">$</text>
      <ellipse cx="-9.1" cy="-9.1" rx="9.1" ry="4.7" fill="#ffffff" opacity="0.55"/>
    </g><g transform="translate(330 70)">
      <circle r="22" fill="#ffd65a" stroke="#7a5100" stroke-width="1.8"/>
      <circle r="17.2" fill="none" stroke="#b57e05" stroke-width="1.3" stroke-dasharray="2 3" opacity="0.8"/>
      <text x="0" y="8.4" text-anchor="middle" font-family="Georgia, serif" font-weight="900" font-size="26.4" fill="#b57e05">$</text>
      <ellipse cx="-7.7" cy="-7.7" rx="7.7" ry="4.0" fill="#ffffff" opacity="0.55"/>
    </g><g transform="translate(80 320)">
      <circle r="18" fill="#ffd65a" stroke="#7a5100" stroke-width="1.4"/>
      <circle r="14.0" fill="none" stroke="#b57e05" stroke-width="1.1" stroke-dasharray="2 3" opacity="0.8"/>
      <text x="0" y="6.8" text-anchor="middle" font-family="Georgia, serif" font-weight="900" font-size="21.6" fill="#b57e05">$</text>
      <ellipse cx="-6.3" cy="-6.3" rx="6.3" ry="3.2" fill="#ffffff" opacity="0.55"/>
    </g><g>
      <path d="M 340 308 L 355.4 325.6 L 348.8 352 L 331.2 352 L 324.6 325.6 Z" fill="#a855f7" stroke="#ffffff" stroke-width="1.5" opacity="0.95"/>
      <path d="M 329.0 326.7 L 351.0 326.7" stroke="#e0f7ff" stroke-width="1.5" opacity="0.8"/>
      <path d="M 340 308 L 340 352" stroke="#e0f7ff" stroke-width="1" opacity="0.5"/>
      <path d="M 334.5 316.8 L 337.8 321.2" stroke="#ffffff" stroke-width="2" opacity="0.9"/>
    </g><g transform="translate(0 310)">
          <rect x="0" y="0" width="400" height="90" fill="rgba(0,0,0,0.55)"/>
          <rect x="0" y="0" width="400" height="3" fill="url(#gold-gt-spin-7)"/>
          <text x="200.0" y="38" text-anchor="middle" font-family="Georgia, serif" font-weight="900" font-size="24" fill="url(#gold-gt-spin-7)" filter="url(#shadow-gt-spin-7)">SPIN QUASAR</text>
          <text x="200.0" y="64" text-anchor="middle" font-family="system-ui, sans-serif" font-weight="600" font-size="13" fill="#ffffff" opacity="0.85">SPIN • 6726.BET</text>
        </g></svg>