<svg xmlns="http://www.w3.org/2000/svg" viewBox="0 0 400 400" preserveAspectRatio="xMidYMid slice" role="img" aria-hidden="true"><defs>
  <linearGradient id="bg-gt-tiger-18" x1="0" y1="0" x2="1" y2="1">
    <stop offset="0%" stop-color="#3b1e0b"/>
    <stop offset="100%" stop-color="#0a0a12"/>
  </linearGradient>
  <radialGradient id="glow-gt-tiger-18" cx="50%" cy="50%" r="60%">
    <stop offset="0%" stop-color="#ff8a1f" stop-opacity="0.55"/>
    <stop offset="60%" stop-color="#ff3d00" stop-opacity="0.15"/>
    <stop offset="100%" stop-color="#000000" stop-opacity="0"/>
  </radialGradient>
  <linearGradient id="gold-gt-tiger-18" x1="0" y1="0" x2="0" y2="1">
    <stop offset="0%" stop-color="#ffd65a"/>
    <stop offset="50%" stop-color="#ff8a1f"/>
    <stop offset="100%" stop-color="#ff3d00"/>
  </linearGradient>
  <filter id="blur-gt-tiger-18" x="-10%" y="-10%" width="120%" height="120%">
    <feGaussianBlur stdDeviation="8"/>
  </filter>
  <filter id="shadow-gt-tiger-18" x="-10%" y="-10%" width="120%" height="120%">
    <feDropShadow dx="0" dy="4" stdDeviation="6" flood-color="#000" flood-opacity="0.45"/>
  </filter>
  <filter id="neon-gt-tiger-18" x="-20%" y="-20%" width="140%" height="140%">
    <feGaussianBlur stdDeviation="4" result="b"/>
    <feMerge>
      <feMergeNode in="b"/>
      <feMergeNode in="SourceGraphic"/>
    </feMerge>
  </filter>
</defs><rect width="400" height="400" fill="url(#bg-gt-tiger-18)"/><path d="M 367.4082524053837 122.35236370642036 L 370.45002661486546 129.4498368618779 L 377.54749977032304 132.49161107135973 L 370.45002661486546 135.53338528084154 L 367.4082524053837 142.6308584362991 L 364.3664781959019 135.53338528084154 L 357.2690050404443 132.49161107135973 L 364.3664781959019 129.4498368618779 Z" fill="#ffd65a" opacity="0.85"/><path d="M 244.07054454168727 127.72063297837222 L 245.65398790722534 131.41533416462772 L 249.34868909348086 132.9987775301658 L 245.65398790722534 134.58222089570387 L 244.07054454168727 138.27692208195936 L 242.4871011761492 134.58222089570387 L 238.79239998989368 132.9987775301658 L 242.4871011761492 131.41533416462772 Z" fill="#ffd65a" opacity="0.85"/><path d="M 60.0432691609881 141.84380841921595 L 62.382346161129234 147.3016547528786 L 67.84019249479189 149.64073175301974 L 62.382346161129234 151.97980875316088 L 60.0432691609881 157.43765508682353 L 57.70419216084697 151.97980875316088 L 52.24634582718432 149.64073175301974 L 57.70419216084697 147.3016547528786 Z" fill="#ffd65a" opacity="0.85"/><path d="M 339.29554632957564 230.58266869548453 L 343.2792255803834 239.87792028070265 L 352.57447716560154 243.86159953151042 L 343.2792255803834 247.8452787823182 L 339.29554632957564 257.1405303675363 L 335.3118670787679 247.8452787823182 L 326.01661549354975 243.86159953151042 L 335.3118670787679 239.87792028070265 Z" fill="#ffd65a" opacity="0.85"/><path d="M 124.37641445380154 316.43776283321387 L 126.3689318950555 321.08697019613976 L 131.01813925798137 323.0794876373937 L 126.3689318950555 325.07200507864763 L 124.37641445380154 329.7212124415735 L 122.38389701254759 325.07200507864763 L 117.73468964962171 323.0794876373937 L 122.38389701254759 321.08697019613976 Z" fill="#ffd65a" opacity="0.85"/><path d="M 367.3440608282447 317.0257012832677 L 369.86530952795715 322.9086149159301 L 375.74822316061955 325.42986361564255 L 369.86530952795715 327.951112315355 L 367.3440608282447 333.83402594801737 L 364.8228121285323 327.951112315355 L 358.9398984958699 325.42986361564255 L 364.8228121285323 322.9086149159301 Z" fill="#ffd65a" opacity="0.85"/><path d="M 371.4994317288543 178.85475152570328 L 375.0615379982267 187.16633282090552 L 383.37311929342894 190.72843909027793 L 375.0615379982267 194.29054535965034 L 371.4994317288543 202.60212665485258 L 367.9373254594819 194.29054535965034 L 359.62574416427964 190.72843909027793 L 367.9373254594819 187.16633282090552 Z" fill="#ffd65a" opacity="0.85"/><path d="M 193.54104688765648 42.44397178406543 L 195.66803832161457 47.40695179663433 L 200.63101833418347 49.533943230592435 L 195.66803832161457 51.66093466455054 L 193.54104688765648 56.62391467711944 L 191.41405545369838 51.66093466455054 L 186.4510754411295 49.533943230592435 L 191.41405545369838 47.40695179663433 Z" fill="#ffd65a" opacity="0.85"/><path d="M 325.4178168842587 241.5983282969185 L 328.7769628957709 249.43633565711372 L 336.61497025596617 252.79548166862597 L 328.7769628957709 256.1546276801382 L 325.4178168842587 263.9926350403334 L 322.05867087274646 256.1546276801382 L 314.2206635125512 252.79548166862597 L 322.05867087274646 249.43633565711372 Z" fill="#ffd65a" opacity="0.85"/><path d="M 260.7737398556955 349.58668374242563 L 264.07867970320973 357.29821005329217 L 271.79020601407626 360.6031499008064 L 264.07867970320973 363.9080897483206 L 260.7737398556955 371.61961605918714 L 257.4688000081813 363.9080897483206 L 249.75727369731476 360.6031499008064 L 257.4688000081813 357.29821005329217 Z" fill="#ffd65a" opacity="0.85"/><path d="M 316.8347061777612 16.14409805384544 L 321.02973679285793 25.932502822404476 L 330.81814156141695 30.127533437501206 L 321.02973679285793 34.32256405259793 L 316.8347061777612 44.11096882115697 L 312.6396755626644 34.32256405259793 L 302.8512707941054 30.127533437501206 L 312.6396755626644 25.932502822404476 Z" fill="#ffd65a" opacity="0.85"/><path d="M 93.52610849206968 13.391900789840268 L 96.64643938470647 20.672672872659426 L 103.92721146752562 23.793003765296206 L 96.64643938470647 26.913334657932985 L 93.52610849206968 34.19410674075215 L 90.4057775994329 26.913334657932985 L 83.12500551661374 23.793003765296206 L 90.4057775994329 20.672672872659426 Z" fill="#ffd65a" opacity="0.85"/><path d="M 5.5309707644349615 175.41442889203395 L 8.41637918321986 182.1470485358654 L 15.14899882705129 185.03245695465029 L 8.41637918321986 187.91786537343518 L 5.5309707644349615 194.65048501726662 L 2.6455623456500628 187.91786537343518 L -4.087057298181367 185.03245695465029 L 2.6455623456500628 182.1470485358654 Z" fill="#ffd65a" opacity="0.85"/><path d="M 33.89910014757813 127.28341876184452 L 36.208589221120576 132.67222660011024 L 41.59739705938628 134.98171567365267 L 36.208589221120576 137.2912047471951 L 33.89910014757813 142.68001258546082 L 31.589611074035687 137.2912047471951 L 26.200803235769982 134.98171567365267 L 31.589611074035687 132.67222660011024 Z" fill="#ffd65a" opacity="0.85"/><path d="M 384.0412797981631 331.6018960738242 L 385.278675552441 334.4891528338059 L 388.1659323124227 335.7265485880838 L 385.278675552441 336.9639443423617 L 384.0412797981631 339.8512011023434 L 382.8038840438852 336.9639443423617 L 379.9166272839035 335.7265485880838 L 382.8038840438852 334.4891528338059 Z" fill="#ffd65a" opacity="0.85"/><path d="M 289.0332525517629 331.00511529101243 L 291.2974926160366 336.2883421076511 L 296.58071943267527 338.55258217192477 L 291.2974926160366 340.81682223619845 L 289.0332525517629 346.1000490528371 L 286.76901248748925 340.81682223619845 L 281.4857856708506 338.55258217192477 L 286.76901248748925 336.2883421076511 Z" fill="#ffd65a" opacity="0.85"/><path d="M 237.63280345271264 66.04788111326579 L 240.50956705097792 72.7603295092181 L 247.22201544693021 75.63709310748337 L 240.50956705097792 78.51385670574864 L 237.63280345271264 85.22630510170094 L 234.75603985444735 78.51385670574864 L 228.04359145849506 75.63709310748337 L 234.75603985444735 72.7603295092181 Z" fill="#ffd65a" opacity="0.85"/><path d="M 185.5005062896436 60.53000053910092 L 188.2811244528571 67.01810958659911 L 194.76923350035528 69.79872774981261 L 188.2811244528571 72.57934591302612 L 185.5005062896436 79.06745496052432 L 182.71988812643008 72.57934591302612 L 176.2317790789319 69.79872774981261 L 182.71988812643008 67.01810958659911 Z" fill="#ffd65a" opacity="0.85"/><path d="M 351.8716157047519 318.8388521526938 L 354.938123042243 325.9940359401729 L 362.0933068297221 329.060543277664 L 354.938123042243 332.1270506151551 L 351.8716157047519 339.28223440263423 L 348.8051083672608 332.1270506151551 L 341.64992457978167 329.060543277664 L 348.8051083672608 325.9940359401729 Z" fill="#ffd65a" opacity="0.85"/><path d="M 206.47720445942946 116.25412438271324 L 208.2163516905715 120.31213458871136 L 212.27436189656964 122.05128181985341 L 208.2163516905715 123.79042905099547 L 206.47720445942946 127.84843925699359 L 204.7380572282874 123.79042905099547 L 200.68004702228927 122.05128181985341 L 204.7380572282874 120.31213458871136 Z" fill="#ffd65a" opacity="0.85"/><path d="M 353.17223480174016 355.68638325605536 L 355.04302256081723 360.0515546939019 L 359.40819399866376 361.92234245297897 L 355.04302256081723 363.79313021205604 L 353.17223480174016 368.15830164990257 L 351.3014470426631 363.79313021205604 L 346.93627560481656 361.92234245297897 L 351.3014470426631 360.0515546939019 Z" fill="#ffd65a" opacity="0.85"/><path d="M 283.602468388578 61.29608789014192 L 287.7445300190529 70.96089836124989 L 297.40934049016084 75.10295999172473 L 287.7445300190529 79.24502162219957 L 283.602468388578 88.90983209330754 L 279.46040675810315 79.24502162219957 L 269.7955962869952 75.10295999172473 L 279.46040675810315 70.96089836124989 Z" fill="#ffd65a" opacity="0.85"/><path d="M 154.93034413174897 185.64479768442936 L 157.93370870723234 192.65264836055724 L 164.94155938336021 195.6560129360406 L 157.93370870723234 198.65937751152399 L 154.93034413174897 205.66722818765186 L 151.9269795562656 198.65937751152399 L 144.91912888013772 195.6560129360406 L 151.9269795562656 192.65264836055724 Z" fill="#ffd65a" opacity="0.85"/><path d="M 100.1354243505324 145.8578502970372 L 104.001708790849 154.87918065777592 L 113.02303915158772 158.74546509809252 L 104.001708790849 162.61174953840913 L 100.1354243505324 171.63307989914784 L 96.26913991021581 162.61174953840913 L 87.24780954947708 158.74546509809252 L 96.26913991021581 154.87918065777592 Z" fill="#ffd65a" opacity="0.85"/><path d="M 205.96928737072028 264.3388972107246 L 209.38621341434296 272.3117246458442 L 217.3590408494625 275.72865068946686 L 209.38621341434296 279.1455767330895 L 205.96928737072028 287.1184041682091 L 202.5523613270976 279.1455767330895 L 194.57953389197806 275.72865068946686 L 202.5523613270976 272.3117246458442 Z" fill="#ffd65a" opacity="0.85"/><circle cx="44.2" cy="86.3" r="1.53" fill="#ffffff" opacity="0.77"/><circle cx="365.1" cy="68.4" r="0.54" fill="#ffffff" opacity="0.75"/><circle cx="197.2" cy="337.9" r="1.51" fill="#ffffff" opacity="0.39"/><circle cx="206.2" cy="378.0" r="1.02" fill="#ffffff" opacity="0.69"/><circle cx="379.7" cy="173.7" r="0.73" fill="#ffffff" opacity="0.54"/><circle cx="313.6" cy="325.7" r="1.52" fill="#ffffff" opacity="0.74"/><circle cx="70.2" cy="12.5" r="0.79" fill="#ffffff" opacity="0.44"/><circle cx="59.0" cy="279.8" r="0.96" fill="#ffffff" opacity="0.79"/><circle cx="225.9" cy="76.2" r="1.12" fill="#ffffff" opacity="0.29"/><circle cx="82.3" cy="333.5" r="1.29" fill="#ffffff" opacity="0.84"/><circle cx="176.1" cy="188.2" r="0.96" fill="#ffffff" opacity="0.38"/><circle cx="13.8" cy="241.7" r="0.93" fill="#ffffff" opacity="0.36"/><circle cx="309.8" cy="130.5" r="0.85" fill="#ffffff" opacity="0.60"/><circle cx="34.4" cy="230.1" r="0.58" fill="#ffffff" opacity="0.64"/><circle cx="49.8" cy="123.3" r="1.62" fill="#ffffff" opacity="0.63"/><circle cx="361.6" cy="162.3" r="0.61" fill="#ffffff" opacity="0.49"/><circle cx="352.6" cy="57.7" r="0.79" fill="#ffffff" opacity="0.55"/><circle cx="204.5" cy="335.0" r="1.70" fill="#ffffff" opacity="0.44"/><circle cx="208.4" cy="322.8" r="1.15" fill="#ffffff" opacity="0.78"/><circle cx="162.5" cy="136.8" r="1.44" fill="#ffffff" opacity="0.41"/><circle cx="21.8" cy="287.8" r="1.56" fill="#ffffff" opacity="0.59"/><circle cx="396.7" cy="326.2" r="0.92" fill="#ffffff" opacity="0.67"/><circle cx="317.4" cy="337.0" r="1.71" fill="#ffffff" opacity="0.61"/><circle cx="300.7" cy="321.6" r="1.47" fill="#ffffff" opacity="0.34"/><circle cx="197.6" cy="302.0" r="0.69" fill="#ffffff" opacity="0.56"/><circle cx="88.5" cy="267.5" r="0.98" fill="#ffffff" opacity="0.34"/><circle cx="350.7" cy="94.6" r="1.34" fill="#ffffff" opacity="0.79"/><circle cx="204.8" cy="43.8" r="0.52" fill="#ffffff" opacity="0.66"/><circle cx="288.2" cy="363.4" r="1.56" fill="#ffffff" opacity="0.55"/><circle cx="200.4" cy="387.5" r="0.50" fill="#ffffff" opacity="0.31"/><line x1="255.3" y1="180.0" x2="358.0" y2="180.0" stroke="#ffd65a" stroke-width="2" opacity="0.55" stroke-linecap="round"/><line x1="249.8" y1="204.0" x2="342.4" y2="248.6" stroke="#ffd65a" stroke-width="2" opacity="0.55" stroke-linecap="round"/><line x1="234.5" y1="223.2" x2="298.5" y2="303.5" stroke="#ffd65a" stroke-width="2" opacity="0.55" stroke-linecap="round"/><line x1="212.3" y1="233.9" x2="235.2" y2="334.0" stroke="#ffd65a" stroke-width="2" opacity="0.55" stroke-linecap="round"/><line x1="187.7" y1="233.9" x2="164.8" y2="334.0" stroke="#ffd65a" stroke-width="2" opacity="0.55" stroke-linecap="round"/><line x1="165.5" y1="223.2" x2="101.5" y2="303.5" stroke="#ffd65a" stroke-width="2" opacity="0.55" stroke-linecap="round"/><line x1="150.2" y1="204.0" x2="57.6" y2="248.6" stroke="#ffd65a" stroke-width="2" opacity="0.55" stroke-linecap="round"/><line x1="144.7" y1="180.0" x2="42.0" y2="180.0" stroke="#ffd65a" stroke-width="2" opacity="0.55" stroke-linecap="round"/><line x1="150.2" y1="156.0" x2="57.6" y2="111.4" stroke="#ffd65a" stroke-width="2" opacity="0.55" stroke-linecap="round"/><line x1="165.5" y1="136.8" x2="101.5" y2="56.5" stroke="#ffd65a" stroke-width="2" opacity="0.55" stroke-linecap="round"/><line x1="187.7" y1="126.1" x2="164.8" y2="26.0" stroke="#ffd65a" stroke-width="2" opacity="0.55" stroke-linecap="round"/><line x1="212.3" y1="126.1" x2="235.2" y2="26.0" stroke="#ffd65a" stroke-width="2" opacity="0.55" stroke-linecap="round"/><line x1="234.5" y1="136.8" x2="298.5" y2="56.5" stroke="#ffd65a" stroke-width="2" opacity="0.55" stroke-linecap="round"/><line x1="249.8" y1="156.0" x2="342.4" y2="111.4" stroke="#ffd65a" stroke-width="2" opacity="0.55" stroke-linecap="round"/><g transform="translate(200.0 180.0)">
      <!-- ears -->
      <path d="M -99.0 -121.00000000000001 L -44.0 -165.0 L -33.0 -88.0 Z" fill="#ff8a1f"/>
      <path d="M 99.0 -121.00000000000001 L 44.0 -165.0 L 33.0 -88.0 Z" fill="#ff8a1f"/>
      <!-- head -->
      <ellipse rx="121.00000000000001" ry="105.6" fill="#ff8a1f"/>
      <!-- stripes -->
      <path d="M -88.0 -44.0 Q -66.0 -77.0 -33.0 -55.0" stroke="#2a1300" stroke-width="13.2" fill="none" stroke-linecap="round"/>
      <path d="M 88.0 -44.0 Q 66.0 -77.0 33.0 -55.0" stroke="#2a1300" stroke-width="13.2" fill="none" stroke-linecap="round"/>
      <path d="M -99.0 11.0 L -55.0 22.0" stroke="#2a1300" stroke-width="11.0" stroke-linecap="round"/>
      <path d="M 99.0 11.0 L 55.0 22.0" stroke="#2a1300" stroke-width="11.0" stroke-linecap="round"/>
      <!-- face -->
      <ellipse cx="0" cy="11.0" rx="66.0" ry="61.60000000000001" fill="#ffe0b8" opacity="0.95"/>
      <!-- eyes -->
      <circle cx="-39.6" cy="-22.0" r="17.6" fill="#fff"/>
      <circle cx="39.6" cy="-22.0" r="17.6" fill="#fff"/>
      <circle cx="-39.6" cy="-22.0" r="9.9" fill="#2a1300"/>
      <circle cx="39.6" cy="-22.0" r="9.9" fill="#2a1300"/>
      <!-- nose -->
      <path d="M -11.0 15.400000000000002 L 11.0 15.400000000000002 L 0 33.0 Z" fill="#2a1300"/>
      <!-- mouth -->
      <path d="M 0 33.0 Q -17.6 55.0 -26.4 44.0" stroke="#2a1300" stroke-width="5.5" fill="none" stroke-linecap="round"/>
      <path d="M 0 33.0 Q 17.6 55.0 26.4 44.0" stroke="#2a1300" stroke-width="5.5" fill="none" stroke-linecap="round"/>
    </g><g transform="translate(70 70)">
      <circle r="26" fill="#ffd65a" stroke="#7a5100" stroke-width="2.1"/>
      <circle r="20.3" fill="none" stroke="#b57e05" stroke-width="1.6" stroke-dasharray="2 3" opacity="0.8"/>
      <text x="0" y="9.9" text-anchor="middle" font-family="Georgia, serif" font-weight="900" font-size="31.2" fill="#b57e05">$</text>
      <ellipse cx="-9.1" cy="-9.1" rx="9.1" ry="4.7" fill="#ffffff" opacity="0.55"/>
    </g><g transform="translate(330 70)">
      <circle r="22" fill="#ffd65a" stroke="#7a5100" stroke-width="1.8"/>
      <circle r="17.2" fill="none" stroke="#b57e05" stroke-width="1.3" stroke-dasharray="2 3" opacity="0.8"/>
      <text x="0" y="8.4" text-anchor="middle" font-family="Georgia, serif" font-weight="900" font-size="26.4" fill="#b57e05">$</text>
      <ellipse cx="-7.7" cy="-7.7" rx="7.7" ry="4.0" fill="#ffffff" opacity="0.55"/>
    </g><g transform="translate(80 320)">
      <circle r="18" fill="#ffd65a" stroke="#7a5100" stroke-width="1.4"/>
      <circle r="14.0" fill="none" stroke="#b57e05" stroke-width="1.1" stroke-dasharray="2 3" opacity="0.8"/>
      <text x="0" y="6.8" text-anchor="middle" font-family="Georgia, serif" font-weight="900" font-size="21.6" fill="#b57e05">$</text>
      <ellipse cx="-6.3" cy="-6.3" rx="6.3" ry="3.2" fill="#ffffff" opacity="0.55"/>
    </g><g>
      <path d="M 340 308 L 355.4 325.6 L 348.8 352 L 331.2 352 L 324.6 325.6 Z" fill="#ff8a1f" stroke="#ffffff" stroke-width="1.5" opacity="0.95"/>
      <path d="M 329.0 326.7 L 351.0 326.7" stroke="#e0f7ff" stroke-width="1.5" opacity="0.8"/>
      <path d="M 340 308 L 340 352" stroke="#e0f7ff" stroke-width="1" opacity="0.5"/>
      <path d="M 334.5 316.8 L 337.8 321.2" stroke="#ffffff" stroke-width="2" opacity="0.9"/>
    </g><g transform="translate(0 310)">
          <rect x="0" y="0" width="400" height="90" fill="rgba(0,0,0,0.55)"/>
          <rect x="0" y="0" width="400" height="3" fill="url(#gold-gt-tiger-18)"/>
          <text x="200.0" y="38" text-anchor="middle" font-family="Georgia, serif" font-weight="900" font-size="24" fill="url(#gold-gt-tiger-18)" filter="url(#shadow-gt-tiger-18)">TIGER FIRE</text>
          <text x="200.0" y="64" text-anchor="middle" font-family="system-ui, sans-serif" font-weight="600" font-size="13" fill="#ffffff" opacity="0.85">TIGER • 6726.BET</text>
        </g></svg>