<svg xmlns="http://www.w3.org/2000/svg" viewBox="0 0 400 400" preserveAspectRatio="xMidYMid slice" role="img" aria-hidden="true"><defs>
  <linearGradient id="bg-gt-tiger-1" x1="0" y1="0" x2="1" y2="1">
    <stop offset="0%" stop-color="#3b1e0b"/>
    <stop offset="100%" stop-color="#0a0a12"/>
  </linearGradient>
  <radialGradient id="glow-gt-tiger-1" cx="50%" cy="50%" r="60%">
    <stop offset="0%" stop-color="#ff8a1f" stop-opacity="0.55"/>
    <stop offset="60%" stop-color="#ff3d00" stop-opacity="0.15"/>
    <stop offset="100%" stop-color="#000000" stop-opacity="0"/>
  </radialGradient>
  <linearGradient id="gold-gt-tiger-1" x1="0" y1="0" x2="0" y2="1">
    <stop offset="0%" stop-color="#ffd65a"/>
    <stop offset="50%" stop-color="#ff8a1f"/>
    <stop offset="100%" stop-color="#ff3d00"/>
  </linearGradient>
  <filter id="blur-gt-tiger-1" x="-10%" y="-10%" width="120%" height="120%">
    <feGaussianBlur stdDeviation="8"/>
  </filter>
  <filter id="shadow-gt-tiger-1" x="-10%" y="-10%" width="120%" height="120%">
    <feDropShadow dx="0" dy="4" stdDeviation="6" flood-color="#000" flood-opacity="0.45"/>
  </filter>
  <filter id="neon-gt-tiger-1" x="-20%" y="-20%" width="140%" height="140%">
    <feGaussianBlur stdDeviation="4" result="b"/>
    <feMerge>
      <feMergeNode in="b"/>
      <feMergeNode in="SourceGraphic"/>
    </feMerge>
  </filter>
</defs><rect width="400" height="400" fill="url(#bg-gt-tiger-1)"/><circle cx="200.0" cy="200.0" r="40" fill="none" stroke="#ffd65a" stroke-width="2" opacity="0.40"/><circle cx="200.0" cy="200.0" r="80" fill="none" stroke="#ffd65a" stroke-width="2" opacity="0.34"/><circle cx="200.0" cy="200.0" r="120" fill="none" stroke="#ffd65a" stroke-width="2" opacity="0.28"/><circle cx="200.0" cy="200.0" r="160" fill="none" stroke="#ffd65a" stroke-width="2" opacity="0.22"/><circle cx="200.0" cy="200.0" r="200" fill="none" stroke="#ffd65a" stroke-width="2" opacity="0.16"/><circle cx="89.7" cy="271.0" r="1.64" fill="#ffffff" opacity="0.62"/><circle cx="138.5" cy="395.4" r="0.55" fill="#ffffff" opacity="0.31"/><circle cx="272.8" cy="330.2" r="1.55" fill="#ffffff" opacity="0.52"/><circle cx="245.8" cy="165.4" r="1.75" fill="#ffffff" opacity="0.27"/><circle cx="16.8" cy="301.3" r="1.15" fill="#ffffff" opacity="0.34"/><circle cx="252.8" cy="183.5" r="1.59" fill="#ffffff" opacity="0.39"/><circle cx="60.7" cy="239.0" r="1.37" fill="#ffffff" opacity="0.25"/><circle cx="62.3" cy="138.7" r="0.70" fill="#ffffff" opacity="0.76"/><circle cx="156.6" cy="181.8" r="0.63" fill="#ffffff" opacity="0.26"/><circle cx="359.0" cy="122.2" r="1.19" fill="#ffffff" opacity="0.61"/><circle cx="83.6" cy="349.3" r="1.65" fill="#ffffff" opacity="0.46"/><circle cx="332.8" cy="117.6" r="0.64" fill="#ffffff" opacity="0.81"/><circle cx="86.9" cy="36.2" r="0.64" fill="#ffffff" opacity="0.72"/><circle cx="53.2" cy="46.6" r="1.33" fill="#ffffff" opacity="0.53"/><circle cx="273.8" cy="296.8" r="1.69" fill="#ffffff" opacity="0.69"/><circle cx="365.7" cy="29.0" r="1.12" fill="#ffffff" opacity="0.41"/><circle cx="127.3" cy="127.0" r="1.55" fill="#ffffff" opacity="0.56"/><circle cx="144.5" cy="339.6" r="1.25" fill="#ffffff" opacity="0.61"/><circle cx="336.6" cy="394.7" r="1.29" fill="#ffffff" opacity="0.44"/><circle cx="205.1" cy="220.4" r="1.16" fill="#ffffff" opacity="0.42"/><circle cx="334.1" cy="36.3" r="1.65" fill="#ffffff" opacity="0.49"/><circle cx="18.4" cy="292.3" r="0.67" fill="#ffffff" opacity="0.69"/><circle cx="190.4" cy="228.3" r="0.85" fill="#ffffff" opacity="0.77"/><circle cx="328.1" cy="65.0" r="1.46" fill="#ffffff" opacity="0.26"/><circle cx="20.5" cy="245.1" r="1.68" fill="#ffffff" opacity="0.37"/><circle cx="313.6" cy="249.6" r="1.18" fill="#ffffff" opacity="0.39"/><circle cx="186.7" cy="261.3" r="1.21" fill="#ffffff" opacity="0.83"/><circle cx="186.4" cy="305.5" r="0.76" fill="#ffffff" opacity="0.77"/><circle cx="209.9" cy="60.1" r="1.76" fill="#ffffff" opacity="0.84"/><circle cx="156.5" cy="334.8" r="1.52" fill="#ffffff" opacity="0.78"/><line x1="249.3" y1="180.0" x2="341.0" y2="180.0" stroke="#ffd65a" stroke-width="2" opacity="0.55" stroke-linecap="round"/><line x1="244.5" y1="201.4" x2="327.0" y2="241.2" stroke="#ffd65a" stroke-width="2" opacity="0.55" stroke-linecap="round"/><line x1="230.8" y1="218.6" x2="287.9" y2="290.2" stroke="#ffd65a" stroke-width="2" opacity="0.55" stroke-linecap="round"/><line x1="211.0" y1="228.1" x2="231.4" y2="317.5" stroke="#ffd65a" stroke-width="2" opacity="0.55" stroke-linecap="round"/><line x1="189.0" y1="228.1" x2="168.6" y2="317.5" stroke="#ffd65a" stroke-width="2" opacity="0.55" stroke-linecap="round"/><line x1="169.2" y1="218.6" x2="112.1" y2="290.2" stroke="#ffd65a" stroke-width="2" opacity="0.55" stroke-linecap="round"/><line x1="155.5" y1="201.4" x2="73.0" y2="241.2" stroke="#ffd65a" stroke-width="2" opacity="0.55" stroke-linecap="round"/><line x1="150.7" y1="180.0" x2="59.0" y2="180.0" stroke="#ffd65a" stroke-width="2" opacity="0.55" stroke-linecap="round"/><line x1="155.5" y1="158.6" x2="73.0" y2="118.8" stroke="#ffd65a" stroke-width="2" opacity="0.55" stroke-linecap="round"/><line x1="169.2" y1="141.4" x2="112.1" y2="69.8" stroke="#ffd65a" stroke-width="2" opacity="0.55" stroke-linecap="round"/><line x1="189.0" y1="131.9" x2="168.6" y2="42.5" stroke="#ffd65a" stroke-width="2" opacity="0.55" stroke-linecap="round"/><line x1="211.0" y1="131.9" x2="231.4" y2="42.5" stroke="#ffd65a" stroke-width="2" opacity="0.55" stroke-linecap="round"/><line x1="230.8" y1="141.4" x2="287.9" y2="69.8" stroke="#ffd65a" stroke-width="2" opacity="0.55" stroke-linecap="round"/><line x1="244.5" y1="158.6" x2="327.0" y2="118.8" stroke="#ffd65a" stroke-width="2" opacity="0.55" stroke-linecap="round"/><g transform="translate(200.0 180.0)">
      <!-- ears -->
      <path d="M -99.0 -121.00000000000001 L -44.0 -165.0 L -33.0 -88.0 Z" fill="#ff8a1f"/>
      <path d="M 99.0 -121.00000000000001 L 44.0 -165.0 L 33.0 -88.0 Z" fill="#ff8a1f"/>
      <!-- head -->
      <ellipse rx="121.00000000000001" ry="105.6" fill="#ff8a1f"/>
      <!-- stripes -->
      <path d="M -88.0 -44.0 Q -66.0 -77.0 -33.0 -55.0" stroke="#2a1300" stroke-width="13.2" fill="none" stroke-linecap="round"/>
      <path d="M 88.0 -44.0 Q 66.0 -77.0 33.0 -55.0" stroke="#2a1300" stroke-width="13.2" fill="none" stroke-linecap="round"/>
      <path d="M -99.0 11.0 L -55.0 22.0" stroke="#2a1300" stroke-width="11.0" stroke-linecap="round"/>
      <path d="M 99.0 11.0 L 55.0 22.0" stroke="#2a1300" stroke-width="11.0" stroke-linecap="round"/>
      <!-- face -->
      <ellipse cx="0" cy="11.0" rx="66.0" ry="61.60000000000001" fill="#ffe0b8" opacity="0.95"/>
      <!-- eyes -->
      <circle cx="-39.6" cy="-22.0" r="17.6" fill="#fff"/>
      <circle cx="39.6" cy="-22.0" r="17.6" fill="#fff"/>
      <circle cx="-39.6" cy="-22.0" r="9.9" fill="#2a1300"/>
      <circle cx="39.6" cy="-22.0" r="9.9" fill="#2a1300"/>
      <!-- nose -->
      <path d="M -11.0 15.400000000000002 L 11.0 15.400000000000002 L 0 33.0 Z" fill="#2a1300"/>
      <!-- mouth -->
      <path d="M 0 33.0 Q -17.6 55.0 -26.4 44.0" stroke="#2a1300" stroke-width="5.5" fill="none" stroke-linecap="round"/>
      <path d="M 0 33.0 Q 17.6 55.0 26.4 44.0" stroke="#2a1300" stroke-width="5.5" fill="none" stroke-linecap="round"/>
    </g><g transform="translate(70 70)">
      <circle r="26" fill="#ffd65a" stroke="#7a5100" stroke-width="2.1"/>
      <circle r="20.3" fill="none" stroke="#b57e05" stroke-width="1.6" stroke-dasharray="2 3" opacity="0.8"/>
      <text x="0" y="9.9" text-anchor="middle" font-family="Georgia, serif" font-weight="900" font-size="31.2" fill="#b57e05">$</text>
      <ellipse cx="-9.1" cy="-9.1" rx="9.1" ry="4.7" fill="#ffffff" opacity="0.55"/>
    </g><g transform="translate(330 70)">
      <circle r="22" fill="#ffd65a" stroke="#7a5100" stroke-width="1.8"/>
      <circle r="17.2" fill="none" stroke="#b57e05" stroke-width="1.3" stroke-dasharray="2 3" opacity="0.8"/>
      <text x="0" y="8.4" text-anchor="middle" font-family="Georgia, serif" font-weight="900" font-size="26.4" fill="#b57e05">$</text>
      <ellipse cx="-7.7" cy="-7.7" rx="7.7" ry="4.0" fill="#ffffff" opacity="0.55"/>
    </g><g transform="translate(80 320)">
      <circle r="18" fill="#ffd65a" stroke="#7a5100" stroke-width="1.4"/>
      <circle r="14.0" fill="none" stroke="#b57e05" stroke-width="1.1" stroke-dasharray="2 3" opacity="0.8"/>
      <text x="0" y="6.8" text-anchor="middle" font-family="Georgia, serif" font-weight="900" font-size="21.6" fill="#b57e05">$</text>
      <ellipse cx="-6.3" cy="-6.3" rx="6.3" ry="3.2" fill="#ffffff" opacity="0.55"/>
    </g><g>
      <path d="M 340 308 L 355.4 325.6 L 348.8 352 L 331.2 352 L 324.6 325.6 Z" fill="#ff8a1f" stroke="#ffffff" stroke-width="1.5" opacity="0.95"/>
      <path d="M 329.0 326.7 L 351.0 326.7" stroke="#e0f7ff" stroke-width="1.5" opacity="0.8"/>
      <path d="M 340 308 L 340 352" stroke="#e0f7ff" stroke-width="1" opacity="0.5"/>
      <path d="M 334.5 316.8 L 337.8 321.2" stroke="#ffffff" stroke-width="2" opacity="0.9"/>
    </g><g transform="translate(0 310)">
          <rect x="0" y="0" width="400" height="90" fill="rgba(0,0,0,0.55)"/>
          <rect x="0" y="0" width="400" height="3" fill="url(#gold-gt-tiger-1)"/>
          <text x="200.0" y="38" text-anchor="middle" font-family="Georgia, serif" font-weight="900" font-size="24" fill="url(#gold-gt-tiger-1)" filter="url(#shadow-gt-tiger-1)">TIGER GOLDEN</text>
          <text x="200.0" y="64" text-anchor="middle" font-family="system-ui, sans-serif" font-weight="600" font-size="13" fill="#ffffff" opacity="0.85">TIGER • 6726.BET</text>
        </g></svg>