<svg xmlns="http://www.w3.org/2000/svg" viewBox="0 0 400 400" preserveAspectRatio="xMidYMid slice" role="img" aria-hidden="true"><defs>
  <linearGradient id="bg-gt-tiger-14" x1="0" y1="0" x2="1" y2="1">
    <stop offset="0%" stop-color="#3b1e0b"/>
    <stop offset="100%" stop-color="#0a0a12"/>
  </linearGradient>
  <radialGradient id="glow-gt-tiger-14" cx="50%" cy="50%" r="60%">
    <stop offset="0%" stop-color="#ff8a1f" stop-opacity="0.55"/>
    <stop offset="60%" stop-color="#ff3d00" stop-opacity="0.15"/>
    <stop offset="100%" stop-color="#000000" stop-opacity="0"/>
  </radialGradient>
  <linearGradient id="gold-gt-tiger-14" x1="0" y1="0" x2="0" y2="1">
    <stop offset="0%" stop-color="#ffd65a"/>
    <stop offset="50%" stop-color="#ff8a1f"/>
    <stop offset="100%" stop-color="#ff3d00"/>
  </linearGradient>
  <filter id="blur-gt-tiger-14" x="-10%" y="-10%" width="120%" height="120%">
    <feGaussianBlur stdDeviation="8"/>
  </filter>
  <filter id="shadow-gt-tiger-14" x="-10%" y="-10%" width="120%" height="120%">
    <feDropShadow dx="0" dy="4" stdDeviation="6" flood-color="#000" flood-opacity="0.45"/>
  </filter>
  <filter id="neon-gt-tiger-14" x="-20%" y="-20%" width="140%" height="140%">
    <feGaussianBlur stdDeviation="4" result="b"/>
    <feMerge>
      <feMergeNode in="b"/>
      <feMergeNode in="SourceGraphic"/>
    </feMerge>
  </filter>
</defs><rect width="400" height="400" fill="url(#bg-gt-tiger-14)"/><rect x="296.4" y="14.6" width="6.3" height="3.2" fill="#ffd65a" opacity="0.7" transform="rotate(81 296.4 14.6)"/><rect x="55.8" y="309.8" width="6.7" height="3.4" fill="#ff3d00" opacity="0.7" transform="rotate(158 55.8 309.8)"/><rect x="68.9" y="394.2" width="6.2" height="3.1" fill="#ff8a1f" opacity="0.7" transform="rotate(102 68.9 394.2)"/><rect x="167.5" y="95.3" width="6.0" height="3.0" fill="#ff8a1f" opacity="0.7" transform="rotate(136 167.5 95.3)"/><rect x="173.8" y="234.1" width="3.1" height="1.6" fill="#ff8a1f" opacity="0.7" transform="rotate(35 173.8 234.1)"/><rect x="204.9" y="191.4" width="5.4" height="2.7" fill="#ff8a1f" opacity="0.7" transform="rotate(324 204.9 191.4)"/><rect x="61.7" y="22.8" width="6.7" height="3.3" fill="#ff3d00" opacity="0.7" transform="rotate(228 61.7 22.8)"/><rect x="178.4" y="394.2" width="5.7" height="2.9" fill="#ffd65a" opacity="0.7" transform="rotate(351 178.4 394.2)"/><rect x="383.7" y="160.4" width="6.9" height="3.5" fill="#ff8a1f" opacity="0.7" transform="rotate(218 383.7 160.4)"/><rect x="386.8" y="34.9" width="5.9" height="2.9" fill="#ff3d00" opacity="0.7" transform="rotate(20 386.8 34.9)"/><rect x="372.0" y="373.5" width="6.7" height="3.4" fill="#ffd65a" opacity="0.7" transform="rotate(109 372.0 373.5)"/><rect x="44.8" y="104.9" width="4.8" height="2.4" fill="#ff8a1f" opacity="0.7" transform="rotate(349 44.8 104.9)"/><rect x="200.4" y="140.2" width="3.3" height="1.7" fill="#ff8a1f" opacity="0.7" transform="rotate(352 200.4 140.2)"/><rect x="267.5" y="173.3" width="4.2" height="2.1" fill="#ffd65a" opacity="0.7" transform="rotate(191 267.5 173.3)"/><rect x="254.7" y="25.8" width="5.0" height="2.5" fill="#ff8a1f" opacity="0.7" transform="rotate(328 254.7 25.8)"/><rect x="234.2" y="103.8" width="4.9" height="2.5" fill="#ff3d00" opacity="0.7" transform="rotate(353 234.2 103.8)"/><rect x="321.2" y="390.6" width="6.8" height="3.4" fill="#ff3d00" opacity="0.7" transform="rotate(254 321.2 390.6)"/><rect x="5.8" y="95.5" width="5.1" height="2.5" fill="#ff3d00" opacity="0.7" transform="rotate(117 5.8 95.5)"/><rect x="118.9" y="252.8" width="6.7" height="3.4" fill="#ff3d00" opacity="0.7" transform="rotate(259 118.9 252.8)"/><rect x="326.4" y="196.4" width="3.0" height="1.5" fill="#ff8a1f" opacity="0.7" transform="rotate(112 326.4 196.4)"/><rect x="142.1" y="363.7" width="5.0" height="2.5" fill="#ff8a1f" opacity="0.7" transform="rotate(67 142.1 363.7)"/><rect x="162.4" y="118.5" width="5.5" height="2.8" fill="#ffd65a" opacity="0.7" transform="rotate(74 162.4 118.5)"/><rect x="252.5" y="337.3" width="3.3" height="1.7" fill="#ff3d00" opacity="0.7" transform="rotate(297 252.5 337.3)"/><rect x="170.9" y="262.6" width="6.6" height="3.3" fill="#ff8a1f" opacity="0.7" transform="rotate(91 170.9 262.6)"/><rect x="379.0" y="43.0" width="5.4" height="2.7" fill="#ff3d00" opacity="0.7" transform="rotate(156 379.0 43.0)"/><rect x="177.0" y="195.1" width="6.5" height="3.2" fill="#ff3d00" opacity="0.7" transform="rotate(72 177.0 195.1)"/><rect x="396.7" y="387.0" width="6.9" height="3.4" fill="#ffd65a" opacity="0.7" transform="rotate(144 396.7 387.0)"/><rect x="103.6" y="316.3" width="6.9" height="3.5" fill="#ffd65a" opacity="0.7" transform="rotate(41 103.6 316.3)"/><rect x="89.1" y="340.9" width="4.5" height="2.3" fill="#ff8a1f" opacity="0.7" transform="rotate(249 89.1 340.9)"/><rect x="204.1" y="235.6" width="4.3" height="2.2" fill="#ff8a1f" opacity="0.7" transform="rotate(91 204.1 235.6)"/><rect x="324.3" y="186.0" width="6.8" height="3.4" fill="#ff3d00" opacity="0.7" transform="rotate(328 324.3 186.0)"/><rect x="388.3" y="111.2" width="5.1" height="2.6" fill="#ff3d00" opacity="0.7" transform="rotate(127 388.3 111.2)"/><rect x="211.0" y="228.2" width="4.0" height="2.0" fill="#ffd65a" opacity="0.7" transform="rotate(199 211.0 228.2)"/><rect x="216.8" y="194.3" width="6.9" height="3.4" fill="#ff8a1f" opacity="0.7" transform="rotate(234 216.8 194.3)"/><rect x="147.9" y="162.2" width="3.1" height="1.5" fill="#ff8a1f" opacity="0.7" transform="rotate(227 147.9 162.2)"/><rect x="145.5" y="281.5" width="6.1" height="3.1" fill="#ff3d00" opacity="0.7" transform="rotate(81 145.5 281.5)"/><rect x="388.1" y="288.7" width="4.1" height="2.1" fill="#ff3d00" opacity="0.7" transform="rotate(182 388.1 288.7)"/><rect x="376.1" y="382.3" width="3.7" height="1.9" fill="#ffd65a" opacity="0.7" transform="rotate(125 376.1 382.3)"/><rect x="323.6" y="249.2" width="4.1" height="2.0" fill="#ff3d00" opacity="0.7" transform="rotate(117 323.6 249.2)"/><rect x="98.1" y="27.7" width="4.2" height="2.1" fill="#ffd65a" opacity="0.7" transform="rotate(119 98.1 27.7)"/><circle cx="280.5" cy="394.3" r="1.27" fill="#ffffff" opacity="0.49"/><circle cx="238.8" cy="19.0" r="1.09" fill="#ffffff" opacity="0.75"/><circle cx="287.4" cy="268.2" r="0.83" fill="#ffffff" opacity="0.63"/><circle cx="254.9" cy="149.2" r="1.76" fill="#ffffff" opacity="0.25"/><circle cx="98.0" cy="140.4" r="1.09" fill="#ffffff" opacity="0.58"/><circle cx="208.2" cy="30.3" r="1.40" fill="#ffffff" opacity="0.60"/><circle cx="186.5" cy="244.5" r="0.76" fill="#ffffff" opacity="0.30"/><circle cx="267.5" cy="62.4" r="0.74" fill="#ffffff" opacity="0.34"/><circle cx="7.6" cy="336.8" r="0.92" fill="#ffffff" opacity="0.80"/><circle cx="225.6" cy="349.1" r="0.77" fill="#ffffff" opacity="0.55"/><circle cx="134.6" cy="5.5" r="1.08" fill="#ffffff" opacity="0.44"/><circle cx="303.2" cy="318.8" r="1.80" fill="#ffffff" opacity="0.60"/><circle cx="244.2" cy="72.6" r="1.76" fill="#ffffff" opacity="0.33"/><circle cx="186.2" cy="268.9" r="1.17" fill="#ffffff" opacity="0.59"/><circle cx="346.0" cy="307.3" r="1.11" fill="#ffffff" opacity="0.69"/><circle cx="29.5" cy="318.7" r="1.43" fill="#ffffff" opacity="0.44"/><circle cx="267.2" cy="191.7" r="1.19" fill="#ffffff" opacity="0.54"/><circle cx="38.2" cy="295.2" r="0.67" fill="#ffffff" opacity="0.25"/><circle cx="396.8" cy="258.2" r="0.73" fill="#ffffff" opacity="0.70"/><circle cx="113.5" cy="177.5" r="1.06" fill="#ffffff" opacity="0.77"/><circle cx="170.4" cy="147.9" r="1.29" fill="#ffffff" opacity="0.48"/><circle cx="214.7" cy="272.5" r="1.14" fill="#ffffff" opacity="0.26"/><circle cx="230.5" cy="34.4" r="1.08" fill="#ffffff" opacity="0.47"/><circle cx="251.1" cy="39.7" r="1.31" fill="#ffffff" opacity="0.71"/><circle cx="201.2" cy="375.9" r="0.64" fill="#ffffff" opacity="0.80"/><circle cx="262.2" cy="294.1" r="1.58" fill="#ffffff" opacity="0.35"/><circle cx="13.2" cy="33.4" r="1.64" fill="#ffffff" opacity="0.42"/><circle cx="333.3" cy="298.4" r="1.72" fill="#ffffff" opacity="0.68"/><circle cx="29.2" cy="119.6" r="1.60" fill="#ffffff" opacity="0.60"/><circle cx="361.7" cy="15.2" r="1.52" fill="#ffffff" opacity="0.41"/><line x1="253.9" y1="180.0" x2="354.0" y2="180.0" stroke="#ffd65a" stroke-width="2" opacity="0.55" stroke-linecap="round"/><line x1="248.6" y1="203.4" x2="338.7" y2="246.8" stroke="#ffd65a" stroke-width="2" opacity="0.55" stroke-linecap="round"/><line x1="233.6" y1="222.1" x2="296.0" y2="300.4" stroke="#ffd65a" stroke-width="2" opacity="0.55" stroke-linecap="round"/><line x1="212.0" y1="232.5" x2="234.3" y2="330.1" stroke="#ffd65a" stroke-width="2" opacity="0.55" stroke-linecap="round"/><line x1="188.0" y1="232.5" x2="165.7" y2="330.1" stroke="#ffd65a" stroke-width="2" opacity="0.55" stroke-linecap="round"/><line x1="166.4" y1="222.1" x2="104.0" y2="300.4" stroke="#ffd65a" stroke-width="2" opacity="0.55" stroke-linecap="round"/><line x1="151.4" y1="203.4" x2="61.3" y2="246.8" stroke="#ffd65a" stroke-width="2" opacity="0.55" stroke-linecap="round"/><line x1="146.1" y1="180.0" x2="46.0" y2="180.0" stroke="#ffd65a" stroke-width="2" opacity="0.55" stroke-linecap="round"/><line x1="151.4" y1="156.6" x2="61.3" y2="113.2" stroke="#ffd65a" stroke-width="2" opacity="0.55" stroke-linecap="round"/><line x1="166.4" y1="137.9" x2="104.0" y2="59.6" stroke="#ffd65a" stroke-width="2" opacity="0.55" stroke-linecap="round"/><line x1="188.0" y1="127.5" x2="165.7" y2="29.9" stroke="#ffd65a" stroke-width="2" opacity="0.55" stroke-linecap="round"/><line x1="212.0" y1="127.5" x2="234.3" y2="29.9" stroke="#ffd65a" stroke-width="2" opacity="0.55" stroke-linecap="round"/><line x1="233.6" y1="137.9" x2="296.0" y2="59.6" stroke="#ffd65a" stroke-width="2" opacity="0.55" stroke-linecap="round"/><line x1="248.6" y1="156.6" x2="338.7" y2="113.2" stroke="#ffd65a" stroke-width="2" opacity="0.55" stroke-linecap="round"/><g transform="translate(200.0 180.0)">
      <!-- ears -->
      <path d="M -99.0 -121.00000000000001 L -44.0 -165.0 L -33.0 -88.0 Z" fill="#ff8a1f"/>
      <path d="M 99.0 -121.00000000000001 L 44.0 -165.0 L 33.0 -88.0 Z" fill="#ff8a1f"/>
      <!-- head -->
      <ellipse rx="121.00000000000001" ry="105.6" fill="#ff8a1f"/>
      <!-- stripes -->
      <path d="M -88.0 -44.0 Q -66.0 -77.0 -33.0 -55.0" stroke="#2a1300" stroke-width="13.2" fill="none" stroke-linecap="round"/>
      <path d="M 88.0 -44.0 Q 66.0 -77.0 33.0 -55.0" stroke="#2a1300" stroke-width="13.2" fill="none" stroke-linecap="round"/>
      <path d="M -99.0 11.0 L -55.0 22.0" stroke="#2a1300" stroke-width="11.0" stroke-linecap="round"/>
      <path d="M 99.0 11.0 L 55.0 22.0" stroke="#2a1300" stroke-width="11.0" stroke-linecap="round"/>
      <!-- face -->
      <ellipse cx="0" cy="11.0" rx="66.0" ry="61.60000000000001" fill="#ffe0b8" opacity="0.95"/>
      <!-- eyes -->
      <circle cx="-39.6" cy="-22.0" r="17.6" fill="#fff"/>
      <circle cx="39.6" cy="-22.0" r="17.6" fill="#fff"/>
      <circle cx="-39.6" cy="-22.0" r="9.9" fill="#2a1300"/>
      <circle cx="39.6" cy="-22.0" r="9.9" fill="#2a1300"/>
      <!-- nose -->
      <path d="M -11.0 15.400000000000002 L 11.0 15.400000000000002 L 0 33.0 Z" fill="#2a1300"/>
      <!-- mouth -->
      <path d="M 0 33.0 Q -17.6 55.0 -26.4 44.0" stroke="#2a1300" stroke-width="5.5" fill="none" stroke-linecap="round"/>
      <path d="M 0 33.0 Q 17.6 55.0 26.4 44.0" stroke="#2a1300" stroke-width="5.5" fill="none" stroke-linecap="round"/>
    </g><g transform="translate(70 70)">
      <circle r="26" fill="#ffd65a" stroke="#7a5100" stroke-width="2.1"/>
      <circle r="20.3" fill="none" stroke="#b57e05" stroke-width="1.6" stroke-dasharray="2 3" opacity="0.8"/>
      <text x="0" y="9.9" text-anchor="middle" font-family="Georgia, serif" font-weight="900" font-size="31.2" fill="#b57e05">$</text>
      <ellipse cx="-9.1" cy="-9.1" rx="9.1" ry="4.7" fill="#ffffff" opacity="0.55"/>
    </g><g transform="translate(330 70)">
      <circle r="22" fill="#ffd65a" stroke="#7a5100" stroke-width="1.8"/>
      <circle r="17.2" fill="none" stroke="#b57e05" stroke-width="1.3" stroke-dasharray="2 3" opacity="0.8"/>
      <text x="0" y="8.4" text-anchor="middle" font-family="Georgia, serif" font-weight="900" font-size="26.4" fill="#b57e05">$</text>
      <ellipse cx="-7.7" cy="-7.7" rx="7.7" ry="4.0" fill="#ffffff" opacity="0.55"/>
    </g><g transform="translate(80 320)">
      <circle r="18" fill="#ffd65a" stroke="#7a5100" stroke-width="1.4"/>
      <circle r="14.0" fill="none" stroke="#b57e05" stroke-width="1.1" stroke-dasharray="2 3" opacity="0.8"/>
      <text x="0" y="6.8" text-anchor="middle" font-family="Georgia, serif" font-weight="900" font-size="21.6" fill="#b57e05">$</text>
      <ellipse cx="-6.3" cy="-6.3" rx="6.3" ry="3.2" fill="#ffffff" opacity="0.55"/>
    </g><g>
      <path d="M 340 308 L 355.4 325.6 L 348.8 352 L 331.2 352 L 324.6 325.6 Z" fill="#ff8a1f" stroke="#ffffff" stroke-width="1.5" opacity="0.95"/>
      <path d="M 329.0 326.7 L 351.0 326.7" stroke="#e0f7ff" stroke-width="1.5" opacity="0.8"/>
      <path d="M 340 308 L 340 352" stroke="#e0f7ff" stroke-width="1" opacity="0.5"/>
      <path d="M 334.5 316.8 L 337.8 321.2" stroke="#ffffff" stroke-width="2" opacity="0.9"/>
    </g><g transform="translate(0 310)">
          <rect x="0" y="0" width="400" height="90" fill="rgba(0,0,0,0.55)"/>
          <rect x="0" y="0" width="400" height="3" fill="url(#gold-gt-tiger-14)"/>
          <text x="200.0" y="38" text-anchor="middle" font-family="Georgia, serif" font-weight="900" font-size="24" fill="url(#gold-gt-tiger-14)" filter="url(#shadow-gt-tiger-14)">TIGER RUSH</text>
          <text x="200.0" y="64" text-anchor="middle" font-family="system-ui, sans-serif" font-weight="600" font-size="13" fill="#ffffff" opacity="0.85">TIGER • 6726.BET</text>
        </g></svg>