<svg xmlns="http://www.w3.org/2000/svg" viewBox="0 0 400 400" preserveAspectRatio="xMidYMid slice" role="img" aria-hidden="true"><defs>
  <linearGradient id="bg-gt-tigrinho-1" x1="0" y1="0" x2="1" y2="1">
    <stop offset="0%" stop-color="#3b2a05"/>
    <stop offset="100%" stop-color="#0a0a12"/>
  </linearGradient>
  <radialGradient id="glow-gt-tigrinho-1" cx="50%" cy="50%" r="60%">
    <stop offset="0%" stop-color="#ffd65a" stop-opacity="0.55"/>
    <stop offset="60%" stop-color="#ff8a1f" stop-opacity="0.15"/>
    <stop offset="100%" stop-color="#000000" stop-opacity="0"/>
  </radialGradient>
  <linearGradient id="gold-gt-tigrinho-1" x1="0" y1="0" x2="0" y2="1">
    <stop offset="0%" stop-color="#ffffe0"/>
    <stop offset="50%" stop-color="#ffd65a"/>
    <stop offset="100%" stop-color="#ff8a1f"/>
  </linearGradient>
  <filter id="blur-gt-tigrinho-1" x="-10%" y="-10%" width="120%" height="120%">
    <feGaussianBlur stdDeviation="8"/>
  </filter>
  <filter id="shadow-gt-tigrinho-1" x="-10%" y="-10%" width="120%" height="120%">
    <feDropShadow dx="0" dy="4" stdDeviation="6" flood-color="#000" flood-opacity="0.45"/>
  </filter>
  <filter id="neon-gt-tigrinho-1" x="-20%" y="-20%" width="140%" height="140%">
    <feGaussianBlur stdDeviation="4" result="b"/>
    <feMerge>
      <feMergeNode in="b"/>
      <feMergeNode in="SourceGraphic"/>
    </feMerge>
  </filter>
</defs><rect width="400" height="400" fill="url(#bg-gt-tigrinho-1)"/><circle cx="200.0" cy="200.0" r="40" fill="none" stroke="#ffffe0" stroke-width="2" opacity="0.40"/><circle cx="200.0" cy="200.0" r="80" fill="none" stroke="#ffffe0" stroke-width="2" opacity="0.34"/><circle cx="200.0" cy="200.0" r="120" fill="none" stroke="#ffffe0" stroke-width="2" opacity="0.28"/><circle cx="200.0" cy="200.0" r="160" fill="none" stroke="#ffffe0" stroke-width="2" opacity="0.22"/><circle cx="200.0" cy="200.0" r="200" fill="none" stroke="#ffffe0" stroke-width="2" opacity="0.16"/><circle cx="333.9" cy="307.6" r="0.65" fill="#ffffff" opacity="0.76"/><circle cx="86.7" cy="394.6" r="1.38" fill="#ffffff" opacity="0.25"/><circle cx="72.5" cy="270.2" r="0.78" fill="#ffffff" opacity="0.70"/><circle cx="182.2" cy="22.8" r="1.28" fill="#ffffff" opacity="0.68"/><circle cx="65.4" cy="181.6" r="1.45" fill="#ffffff" opacity="0.32"/><circle cx="278.5" cy="268.3" r="1.22" fill="#ffffff" opacity="0.31"/><circle cx="273.7" cy="217.8" r="1.75" fill="#ffffff" opacity="0.22"/><circle cx="386.4" cy="115.7" r="1.40" fill="#ffffff" opacity="0.21"/><circle cx="203.3" cy="11.0" r="1.27" fill="#ffffff" opacity="0.33"/><circle cx="300.7" cy="125.0" r="1.22" fill="#ffffff" opacity="0.32"/><circle cx="255.5" cy="172.6" r="1.74" fill="#ffffff" opacity="0.48"/><circle cx="112.9" cy="39.2" r="1.57" fill="#ffffff" opacity="0.59"/><circle cx="62.1" cy="391.6" r="1.21" fill="#ffffff" opacity="0.61"/><circle cx="226.9" cy="316.8" r="0.78" fill="#ffffff" opacity="0.41"/><circle cx="381.2" cy="62.4" r="0.66" fill="#ffffff" opacity="0.81"/><circle cx="221.4" cy="333.5" r="0.54" fill="#ffffff" opacity="0.84"/><circle cx="3.8" cy="15.9" r="0.70" fill="#ffffff" opacity="0.44"/><circle cx="240.0" cy="184.1" r="1.57" fill="#ffffff" opacity="0.48"/><circle cx="109.8" cy="345.9" r="1.23" fill="#ffffff" opacity="0.67"/><circle cx="23.5" cy="66.6" r="0.94" fill="#ffffff" opacity="0.56"/><circle cx="195.5" cy="251.4" r="1.10" fill="#ffffff" opacity="0.39"/><circle cx="40.0" cy="163.3" r="1.67" fill="#ffffff" opacity="0.38"/><circle cx="309.0" cy="202.3" r="1.01" fill="#ffffff" opacity="0.28"/><circle cx="121.3" cy="110.1" r="0.79" fill="#ffffff" opacity="0.65"/><circle cx="232.6" cy="321.4" r="1.20" fill="#ffffff" opacity="0.49"/><circle cx="46.0" cy="215.3" r="0.85" fill="#ffffff" opacity="0.56"/><circle cx="377.3" cy="14.6" r="1.71" fill="#ffffff" opacity="0.58"/><circle cx="341.5" cy="196.4" r="0.92" fill="#ffffff" opacity="0.47"/><circle cx="127.5" cy="33.5" r="1.41" fill="#ffffff" opacity="0.75"/><circle cx="20.8" cy="306.9" r="1.77" fill="#ffffff" opacity="0.46"/><line x1="249.3" y1="180.0" x2="341.0" y2="180.0" stroke="#ffffe0" stroke-width="2" opacity="0.55" stroke-linecap="round"/><line x1="244.5" y1="201.4" x2="327.0" y2="241.2" stroke="#ffffe0" stroke-width="2" opacity="0.55" stroke-linecap="round"/><line x1="230.8" y1="218.6" x2="287.9" y2="290.2" stroke="#ffffe0" stroke-width="2" opacity="0.55" stroke-linecap="round"/><line x1="211.0" y1="228.1" x2="231.4" y2="317.5" stroke="#ffffe0" stroke-width="2" opacity="0.55" stroke-linecap="round"/><line x1="189.0" y1="228.1" x2="168.6" y2="317.5" stroke="#ffffe0" stroke-width="2" opacity="0.55" stroke-linecap="round"/><line x1="169.2" y1="218.6" x2="112.1" y2="290.2" stroke="#ffffe0" stroke-width="2" opacity="0.55" stroke-linecap="round"/><line x1="155.5" y1="201.4" x2="73.0" y2="241.2" stroke="#ffffe0" stroke-width="2" opacity="0.55" stroke-linecap="round"/><line x1="150.7" y1="180.0" x2="59.0" y2="180.0" stroke="#ffffe0" stroke-width="2" opacity="0.55" stroke-linecap="round"/><line x1="155.5" y1="158.6" x2="73.0" y2="118.8" stroke="#ffffe0" stroke-width="2" opacity="0.55" stroke-linecap="round"/><line x1="169.2" y1="141.4" x2="112.1" y2="69.8" stroke="#ffffe0" stroke-width="2" opacity="0.55" stroke-linecap="round"/><line x1="189.0" y1="131.9" x2="168.6" y2="42.5" stroke="#ffffe0" stroke-width="2" opacity="0.55" stroke-linecap="round"/><line x1="211.0" y1="131.9" x2="231.4" y2="42.5" stroke="#ffffe0" stroke-width="2" opacity="0.55" stroke-linecap="round"/><line x1="230.8" y1="141.4" x2="287.9" y2="69.8" stroke="#ffffe0" stroke-width="2" opacity="0.55" stroke-linecap="round"/><line x1="244.5" y1="158.6" x2="327.0" y2="118.8" stroke="#ffffe0" stroke-width="2" opacity="0.55" stroke-linecap="round"/><g transform="translate(200.0 180.0)">
      <!-- ears -->
      <path d="M -99.0 -121.00000000000001 L -44.0 -165.0 L -33.0 -88.0 Z" fill="#ffd65a"/>
      <path d="M 99.0 -121.00000000000001 L 44.0 -165.0 L 33.0 -88.0 Z" fill="#ffd65a"/>
      <!-- head -->
      <ellipse rx="121.00000000000001" ry="105.6" fill="#ffd65a"/>
      <!-- stripes -->
      <path d="M -88.0 -44.0 Q -66.0 -77.0 -33.0 -55.0" stroke="#2a1300" stroke-width="13.2" fill="none" stroke-linecap="round"/>
      <path d="M 88.0 -44.0 Q 66.0 -77.0 33.0 -55.0" stroke="#2a1300" stroke-width="13.2" fill="none" stroke-linecap="round"/>
      <path d="M -99.0 11.0 L -55.0 22.0" stroke="#2a1300" stroke-width="11.0" stroke-linecap="round"/>
      <path d="M 99.0 11.0 L 55.0 22.0" stroke="#2a1300" stroke-width="11.0" stroke-linecap="round"/>
      <!-- face -->
      <ellipse cx="0" cy="11.0" rx="66.0" ry="61.60000000000001" fill="#ffe0b8" opacity="0.95"/>
      <!-- eyes -->
      <circle cx="-39.6" cy="-22.0" r="17.6" fill="#fff"/>
      <circle cx="39.6" cy="-22.0" r="17.6" fill="#fff"/>
      <circle cx="-39.6" cy="-22.0" r="9.9" fill="#2a1300"/>
      <circle cx="39.6" cy="-22.0" r="9.9" fill="#2a1300"/>
      <!-- nose -->
      <path d="M -11.0 15.400000000000002 L 11.0 15.400000000000002 L 0 33.0 Z" fill="#2a1300"/>
      <!-- mouth -->
      <path d="M 0 33.0 Q -17.6 55.0 -26.4 44.0" stroke="#2a1300" stroke-width="5.5" fill="none" stroke-linecap="round"/>
      <path d="M 0 33.0 Q 17.6 55.0 26.4 44.0" stroke="#2a1300" stroke-width="5.5" fill="none" stroke-linecap="round"/>
    </g><g transform="translate(70 70)">
      <circle r="26" fill="#ffd65a" stroke="#7a5100" stroke-width="2.1"/>
      <circle r="20.3" fill="none" stroke="#b57e05" stroke-width="1.6" stroke-dasharray="2 3" opacity="0.8"/>
      <text x="0" y="9.9" text-anchor="middle" font-family="Georgia, serif" font-weight="900" font-size="31.2" fill="#b57e05">$</text>
      <ellipse cx="-9.1" cy="-9.1" rx="9.1" ry="4.7" fill="#ffffff" opacity="0.55"/>
    </g><g transform="translate(330 70)">
      <circle r="22" fill="#ffd65a" stroke="#7a5100" stroke-width="1.8"/>
      <circle r="17.2" fill="none" stroke="#b57e05" stroke-width="1.3" stroke-dasharray="2 3" opacity="0.8"/>
      <text x="0" y="8.4" text-anchor="middle" font-family="Georgia, serif" font-weight="900" font-size="26.4" fill="#b57e05">$</text>
      <ellipse cx="-7.7" cy="-7.7" rx="7.7" ry="4.0" fill="#ffffff" opacity="0.55"/>
    </g><g transform="translate(80 320)">
      <circle r="18" fill="#ffd65a" stroke="#7a5100" stroke-width="1.4"/>
      <circle r="14.0" fill="none" stroke="#b57e05" stroke-width="1.1" stroke-dasharray="2 3" opacity="0.8"/>
      <text x="0" y="6.8" text-anchor="middle" font-family="Georgia, serif" font-weight="900" font-size="21.6" fill="#b57e05">$</text>
      <ellipse cx="-6.3" cy="-6.3" rx="6.3" ry="3.2" fill="#ffffff" opacity="0.55"/>
    </g><g>
      <path d="M 340 308 L 355.4 325.6 L 348.8 352 L 331.2 352 L 324.6 325.6 Z" fill="#ffd65a" stroke="#ffffff" stroke-width="1.5" opacity="0.95"/>
      <path d="M 329.0 326.7 L 351.0 326.7" stroke="#e0f7ff" stroke-width="1.5" opacity="0.8"/>
      <path d="M 340 308 L 340 352" stroke="#e0f7ff" stroke-width="1" opacity="0.5"/>
      <path d="M 334.5 316.8 L 337.8 321.2" stroke="#ffffff" stroke-width="2" opacity="0.9"/>
    </g><g transform="translate(0 310)">
          <rect x="0" y="0" width="400" height="90" fill="rgba(0,0,0,0.55)"/>
          <rect x="0" y="0" width="400" height="3" fill="url(#gold-gt-tigrinho-1)"/>
          <text x="200.0" y="38" text-anchor="middle" font-family="Georgia, serif" font-weight="900" font-size="24" fill="url(#gold-gt-tigrinho-1)" filter="url(#shadow-gt-tigrinho-1)">TIGRINHO BÔNUS</text>
          <text x="200.0" y="64" text-anchor="middle" font-family="system-ui, sans-serif" font-weight="600" font-size="13" fill="#ffffff" opacity="0.85">TIGRINHO • 6726.BET</text>
        </g></svg>