<svg xmlns="http://www.w3.org/2000/svg" viewBox="0 0 400 400" preserveAspectRatio="xMidYMid slice" role="img" aria-hidden="true"><defs>
  <linearGradient id="bg-gt-tigrinho-0" x1="0" y1="0" x2="1" y2="1">
    <stop offset="0%" stop-color="#3b2a05"/>
    <stop offset="100%" stop-color="#0a0a12"/>
  </linearGradient>
  <radialGradient id="glow-gt-tigrinho-0" cx="50%" cy="50%" r="60%">
    <stop offset="0%" stop-color="#ffd65a" stop-opacity="0.55"/>
    <stop offset="60%" stop-color="#ff8a1f" stop-opacity="0.15"/>
    <stop offset="100%" stop-color="#000000" stop-opacity="0"/>
  </radialGradient>
  <linearGradient id="gold-gt-tigrinho-0" x1="0" y1="0" x2="0" y2="1">
    <stop offset="0%" stop-color="#ffffe0"/>
    <stop offset="50%" stop-color="#ffd65a"/>
    <stop offset="100%" stop-color="#ff8a1f"/>
  </linearGradient>
  <filter id="blur-gt-tigrinho-0" x="-10%" y="-10%" width="120%" height="120%">
    <feGaussianBlur stdDeviation="8"/>
  </filter>
  <filter id="shadow-gt-tigrinho-0" x="-10%" y="-10%" width="120%" height="120%">
    <feDropShadow dx="0" dy="4" stdDeviation="6" flood-color="#000" flood-opacity="0.45"/>
  </filter>
  <filter id="neon-gt-tigrinho-0" x="-20%" y="-20%" width="140%" height="140%">
    <feGaussianBlur stdDeviation="4" result="b"/>
    <feMerge>
      <feMergeNode in="b"/>
      <feMergeNode in="SourceGraphic"/>
    </feMerge>
  </filter>
</defs><rect width="400" height="400" fill="url(#bg-gt-tigrinho-0)"/><circle cx="200.0" cy="200.0" r="240.0" fill="url(#glow-gt-tigrinho-0)"/><circle cx="4.3" cy="167.1" r="1.57" fill="#ffffff" opacity="0.54"/><circle cx="84.0" cy="109.7" r="0.90" fill="#ffffff" opacity="0.60"/><circle cx="252.1" cy="100.4" r="1.56" fill="#ffffff" opacity="0.84"/><circle cx="262.1" cy="262.3" r="1.68" fill="#ffffff" opacity="0.59"/><circle cx="259.0" cy="382.2" r="0.85" fill="#ffffff" opacity="0.76"/><circle cx="151.0" cy="152.7" r="1.27" fill="#ffffff" opacity="0.51"/><circle cx="309.4" cy="299.5" r="1.05" fill="#ffffff" opacity="0.25"/><circle cx="188.0" cy="250.5" r="0.78" fill="#ffffff" opacity="0.63"/><circle cx="209.1" cy="72.0" r="0.51" fill="#ffffff" opacity="0.41"/><circle cx="253.4" cy="52.3" r="1.22" fill="#ffffff" opacity="0.31"/><circle cx="42.3" cy="134.1" r="1.67" fill="#ffffff" opacity="0.64"/><circle cx="67.8" cy="25.9" r="0.53" fill="#ffffff" opacity="0.37"/><circle cx="77.6" cy="133.0" r="0.58" fill="#ffffff" opacity="0.21"/><circle cx="272.2" cy="149.6" r="0.91" fill="#ffffff" opacity="0.38"/><circle cx="368.1" cy="217.1" r="0.70" fill="#ffffff" opacity="0.46"/><circle cx="238.6" cy="203.2" r="1.73" fill="#ffffff" opacity="0.46"/><circle cx="85.0" cy="209.5" r="1.52" fill="#ffffff" opacity="0.31"/><circle cx="261.4" cy="308.5" r="0.79" fill="#ffffff" opacity="0.52"/><circle cx="104.9" cy="153.7" r="0.63" fill="#ffffff" opacity="0.28"/><circle cx="392.5" cy="156.5" r="1.71" fill="#ffffff" opacity="0.66"/><circle cx="23.3" cy="20.0" r="1.75" fill="#ffffff" opacity="0.59"/><circle cx="6.5" cy="72.9" r="1.79" fill="#ffffff" opacity="0.55"/><circle cx="398.1" cy="347.3" r="1.16" fill="#ffffff" opacity="0.48"/><circle cx="86.7" cy="40.1" r="0.85" fill="#ffffff" opacity="0.22"/><circle cx="288.0" cy="276.4" r="1.09" fill="#ffffff" opacity="0.51"/><circle cx="225.1" cy="368.8" r="1.59" fill="#ffffff" opacity="0.81"/><circle cx="332.1" cy="78.7" r="0.88" fill="#ffffff" opacity="0.70"/><circle cx="302.6" cy="117.2" r="1.63" fill="#ffffff" opacity="0.59"/><circle cx="347.3" cy="381.8" r="0.65" fill="#ffffff" opacity="0.45"/><circle cx="291.9" cy="269.0" r="1.06" fill="#ffffff" opacity="0.28"/><line x1="249.0" y1="180.0" x2="340.0" y2="180.0" stroke="#ffffe0" stroke-width="2" opacity="0.55" stroke-linecap="round"/><line x1="244.1" y1="201.3" x2="326.1" y2="240.7" stroke="#ffffe0" stroke-width="2" opacity="0.55" stroke-linecap="round"/><line x1="230.6" y1="218.3" x2="287.3" y2="289.5" stroke="#ffffe0" stroke-width="2" opacity="0.55" stroke-linecap="round"/><line x1="210.9" y1="227.8" x2="231.2" y2="316.5" stroke="#ffffe0" stroke-width="2" opacity="0.55" stroke-linecap="round"/><line x1="189.1" y1="227.8" x2="168.8" y2="316.5" stroke="#ffffe0" stroke-width="2" opacity="0.55" stroke-linecap="round"/><line x1="169.4" y1="218.3" x2="112.7" y2="289.5" stroke="#ffffe0" stroke-width="2" opacity="0.55" stroke-linecap="round"/><line x1="155.9" y1="201.3" x2="73.9" y2="240.7" stroke="#ffffe0" stroke-width="2" opacity="0.55" stroke-linecap="round"/><line x1="151.0" y1="180.0" x2="60.0" y2="180.0" stroke="#ffffe0" stroke-width="2" opacity="0.55" stroke-linecap="round"/><line x1="155.9" y1="158.7" x2="73.9" y2="119.3" stroke="#ffffe0" stroke-width="2" opacity="0.55" stroke-linecap="round"/><line x1="169.4" y1="141.7" x2="112.7" y2="70.5" stroke="#ffffe0" stroke-width="2" opacity="0.55" stroke-linecap="round"/><line x1="189.1" y1="132.2" x2="168.8" y2="43.5" stroke="#ffffe0" stroke-width="2" opacity="0.55" stroke-linecap="round"/><line x1="210.9" y1="132.2" x2="231.2" y2="43.5" stroke="#ffffe0" stroke-width="2" opacity="0.55" stroke-linecap="round"/><line x1="230.6" y1="141.7" x2="287.3" y2="70.5" stroke="#ffffe0" stroke-width="2" opacity="0.55" stroke-linecap="round"/><line x1="244.1" y1="158.7" x2="326.1" y2="119.3" stroke="#ffffe0" stroke-width="2" opacity="0.55" stroke-linecap="round"/><g transform="translate(200.0 180.0)">
      <!-- ears -->
      <path d="M -99.0 -121.00000000000001 L -44.0 -165.0 L -33.0 -88.0 Z" fill="#ffd65a"/>
      <path d="M 99.0 -121.00000000000001 L 44.0 -165.0 L 33.0 -88.0 Z" fill="#ffd65a"/>
      <!-- head -->
      <ellipse rx="121.00000000000001" ry="105.6" fill="#ffd65a"/>
      <!-- stripes -->
      <path d="M -88.0 -44.0 Q -66.0 -77.0 -33.0 -55.0" stroke="#2a1300" stroke-width="13.2" fill="none" stroke-linecap="round"/>
      <path d="M 88.0 -44.0 Q 66.0 -77.0 33.0 -55.0" stroke="#2a1300" stroke-width="13.2" fill="none" stroke-linecap="round"/>
      <path d="M -99.0 11.0 L -55.0 22.0" stroke="#2a1300" stroke-width="11.0" stroke-linecap="round"/>
      <path d="M 99.0 11.0 L 55.0 22.0" stroke="#2a1300" stroke-width="11.0" stroke-linecap="round"/>
      <!-- face -->
      <ellipse cx="0" cy="11.0" rx="66.0" ry="61.60000000000001" fill="#ffe0b8" opacity="0.95"/>
      <!-- eyes -->
      <circle cx="-39.6" cy="-22.0" r="17.6" fill="#fff"/>
      <circle cx="39.6" cy="-22.0" r="17.6" fill="#fff"/>
      <circle cx="-39.6" cy="-22.0" r="9.9" fill="#2a1300"/>
      <circle cx="39.6" cy="-22.0" r="9.9" fill="#2a1300"/>
      <!-- nose -->
      <path d="M -11.0 15.400000000000002 L 11.0 15.400000000000002 L 0 33.0 Z" fill="#2a1300"/>
      <!-- mouth -->
      <path d="M 0 33.0 Q -17.6 55.0 -26.4 44.0" stroke="#2a1300" stroke-width="5.5" fill="none" stroke-linecap="round"/>
      <path d="M 0 33.0 Q 17.6 55.0 26.4 44.0" stroke="#2a1300" stroke-width="5.5" fill="none" stroke-linecap="round"/>
    </g><g transform="translate(70 70)">
      <circle r="26" fill="#ffd65a" stroke="#7a5100" stroke-width="2.1"/>
      <circle r="20.3" fill="none" stroke="#b57e05" stroke-width="1.6" stroke-dasharray="2 3" opacity="0.8"/>
      <text x="0" y="9.9" text-anchor="middle" font-family="Georgia, serif" font-weight="900" font-size="31.2" fill="#b57e05">$</text>
      <ellipse cx="-9.1" cy="-9.1" rx="9.1" ry="4.7" fill="#ffffff" opacity="0.55"/>
    </g><g transform="translate(330 70)">
      <circle r="22" fill="#ffd65a" stroke="#7a5100" stroke-width="1.8"/>
      <circle r="17.2" fill="none" stroke="#b57e05" stroke-width="1.3" stroke-dasharray="2 3" opacity="0.8"/>
      <text x="0" y="8.4" text-anchor="middle" font-family="Georgia, serif" font-weight="900" font-size="26.4" fill="#b57e05">$</text>
      <ellipse cx="-7.7" cy="-7.7" rx="7.7" ry="4.0" fill="#ffffff" opacity="0.55"/>
    </g><g transform="translate(80 320)">
      <circle r="18" fill="#ffd65a" stroke="#7a5100" stroke-width="1.4"/>
      <circle r="14.0" fill="none" stroke="#b57e05" stroke-width="1.1" stroke-dasharray="2 3" opacity="0.8"/>
      <text x="0" y="6.8" text-anchor="middle" font-family="Georgia, serif" font-weight="900" font-size="21.6" fill="#b57e05">$</text>
      <ellipse cx="-6.3" cy="-6.3" rx="6.3" ry="3.2" fill="#ffffff" opacity="0.55"/>
    </g><g>
      <path d="M 340 308 L 355.4 325.6 L 348.8 352 L 331.2 352 L 324.6 325.6 Z" fill="#ffd65a" stroke="#ffffff" stroke-width="1.5" opacity="0.95"/>
      <path d="M 329.0 326.7 L 351.0 326.7" stroke="#e0f7ff" stroke-width="1.5" opacity="0.8"/>
      <path d="M 340 308 L 340 352" stroke="#e0f7ff" stroke-width="1" opacity="0.5"/>
      <path d="M 334.5 316.8 L 337.8 321.2" stroke="#ffffff" stroke-width="2" opacity="0.9"/>
    </g><g transform="translate(0 310)">
          <rect x="0" y="0" width="400" height="90" fill="rgba(0,0,0,0.55)"/>
          <rect x="0" y="0" width="400" height="3" fill="url(#gold-gt-tigrinho-0)"/>
          <text x="200.0" y="38" text-anchor="middle" font-family="Georgia, serif" font-weight="900" font-size="24" fill="url(#gold-gt-tigrinho-0)" filter="url(#shadow-gt-tigrinho-0)">TIGRINHO CLÁSSICO</text>
          <text x="200.0" y="64" text-anchor="middle" font-family="system-ui, sans-serif" font-weight="600" font-size="13" fill="#ffffff" opacity="0.85">TIGRINHO • 6726.BET</text>
        </g></svg>