<svg xmlns="http://www.w3.org/2000/svg" viewBox="0 0 400 400" preserveAspectRatio="xMidYMid slice" role="img" aria-hidden="true"><defs>
  <linearGradient id="bg-gt-tigrinho-21" x1="0" y1="0" x2="1" y2="1">
    <stop offset="0%" stop-color="#3b2a05"/>
    <stop offset="100%" stop-color="#0a0a12"/>
  </linearGradient>
  <radialGradient id="glow-gt-tigrinho-21" cx="50%" cy="50%" r="60%">
    <stop offset="0%" stop-color="#ffd65a" stop-opacity="0.55"/>
    <stop offset="60%" stop-color="#ff8a1f" stop-opacity="0.15"/>
    <stop offset="100%" stop-color="#000000" stop-opacity="0"/>
  </radialGradient>
  <linearGradient id="gold-gt-tigrinho-21" x1="0" y1="0" x2="0" y2="1">
    <stop offset="0%" stop-color="#ffffe0"/>
    <stop offset="50%" stop-color="#ffd65a"/>
    <stop offset="100%" stop-color="#ff8a1f"/>
  </linearGradient>
  <filter id="blur-gt-tigrinho-21" x="-10%" y="-10%" width="120%" height="120%">
    <feGaussianBlur stdDeviation="8"/>
  </filter>
  <filter id="shadow-gt-tigrinho-21" x="-10%" y="-10%" width="120%" height="120%">
    <feDropShadow dx="0" dy="4" stdDeviation="6" flood-color="#000" flood-opacity="0.45"/>
  </filter>
  <filter id="neon-gt-tigrinho-21" x="-20%" y="-20%" width="140%" height="140%">
    <feGaussianBlur stdDeviation="4" result="b"/>
    <feMerge>
      <feMergeNode in="b"/>
      <feMergeNode in="SourceGraphic"/>
    </feMerge>
  </filter>
</defs><rect width="400" height="400" fill="url(#bg-gt-tigrinho-21)"/><circle cx="200.0" cy="200.0" r="54" fill="none" stroke="#ffffe0" stroke-width="2" opacity="0.40"/><circle cx="200.0" cy="200.0" r="94" fill="none" stroke="#ffffe0" stroke-width="2" opacity="0.34"/><circle cx="200.0" cy="200.0" r="134" fill="none" stroke="#ffffe0" stroke-width="2" opacity="0.28"/><circle cx="200.0" cy="200.0" r="174" fill="none" stroke="#ffffe0" stroke-width="2" opacity="0.22"/><circle cx="200.0" cy="200.0" r="214" fill="none" stroke="#ffffe0" stroke-width="2" opacity="0.16"/><circle cx="338.1" cy="310.7" r="0.67" fill="#ffffff" opacity="0.35"/><circle cx="34.4" cy="71.1" r="0.89" fill="#ffffff" opacity="0.80"/><circle cx="229.5" cy="142.1" r="1.42" fill="#ffffff" opacity="0.65"/><circle cx="368.0" cy="252.5" r="1.55" fill="#ffffff" opacity="0.73"/><circle cx="145.5" cy="313.6" r="0.69" fill="#ffffff" opacity="0.47"/><circle cx="358.5" cy="52.0" r="1.28" fill="#ffffff" opacity="0.53"/><circle cx="120.5" cy="46.4" r="1.04" fill="#ffffff" opacity="0.67"/><circle cx="336.9" cy="234.1" r="1.24" fill="#ffffff" opacity="0.39"/><circle cx="30.4" cy="133.7" r="1.05" fill="#ffffff" opacity="0.60"/><circle cx="71.7" cy="326.2" r="0.99" fill="#ffffff" opacity="0.31"/><circle cx="381.0" cy="365.5" r="1.30" fill="#ffffff" opacity="0.28"/><circle cx="22.8" cy="219.3" r="1.39" fill="#ffffff" opacity="0.21"/><circle cx="195.6" cy="239.7" r="1.18" fill="#ffffff" opacity="0.36"/><circle cx="270.6" cy="77.0" r="1.76" fill="#ffffff" opacity="0.47"/><circle cx="386.0" cy="216.4" r="1.56" fill="#ffffff" opacity="0.70"/><circle cx="357.9" cy="56.0" r="0.81" fill="#ffffff" opacity="0.59"/><circle cx="39.5" cy="38.0" r="1.74" fill="#ffffff" opacity="0.82"/><circle cx="358.9" cy="381.9" r="1.18" fill="#ffffff" opacity="0.84"/><circle cx="56.7" cy="225.5" r="1.14" fill="#ffffff" opacity="0.83"/><circle cx="236.9" cy="369.5" r="1.04" fill="#ffffff" opacity="0.51"/><circle cx="181.2" cy="376.9" r="0.96" fill="#ffffff" opacity="0.65"/><circle cx="12.7" cy="3.3" r="1.24" fill="#ffffff" opacity="0.63"/><circle cx="56.0" cy="171.8" r="0.91" fill="#ffffff" opacity="0.28"/><circle cx="325.6" cy="334.8" r="1.75" fill="#ffffff" opacity="0.56"/><circle cx="256.4" cy="292.5" r="1.02" fill="#ffffff" opacity="0.82"/><circle cx="47.9" cy="386.9" r="1.16" fill="#ffffff" opacity="0.32"/><circle cx="156.5" cy="310.6" r="1.51" fill="#ffffff" opacity="0.57"/><circle cx="219.8" cy="358.1" r="0.51" fill="#ffffff" opacity="0.80"/><circle cx="389.7" cy="87.9" r="1.14" fill="#ffffff" opacity="0.52"/><circle cx="356.0" cy="63.0" r="1.24" fill="#ffffff" opacity="0.36"/><line x1="256.4" y1="180.0" x2="361.0" y2="180.0" stroke="#ffffe0" stroke-width="2" opacity="0.55" stroke-linecap="round"/><line x1="250.8" y1="204.4" x2="345.1" y2="249.9" stroke="#ffffe0" stroke-width="2" opacity="0.55" stroke-linecap="round"/><line x1="235.1" y1="224.1" x2="300.4" y2="305.9" stroke="#ffffe0" stroke-width="2" opacity="0.55" stroke-linecap="round"/><line x1="212.5" y1="234.9" x2="235.8" y2="337.0" stroke="#ffffe0" stroke-width="2" opacity="0.55" stroke-linecap="round"/><line x1="187.5" y1="234.9" x2="164.2" y2="337.0" stroke="#ffffe0" stroke-width="2" opacity="0.55" stroke-linecap="round"/><line x1="164.9" y1="224.1" x2="99.6" y2="305.9" stroke="#ffffe0" stroke-width="2" opacity="0.55" stroke-linecap="round"/><line x1="149.2" y1="204.4" x2="54.9" y2="249.9" stroke="#ffffe0" stroke-width="2" opacity="0.55" stroke-linecap="round"/><line x1="143.7" y1="180.0" x2="39.0" y2="180.0" stroke="#ffffe0" stroke-width="2" opacity="0.55" stroke-linecap="round"/><line x1="149.2" y1="155.6" x2="54.9" y2="110.1" stroke="#ffffe0" stroke-width="2" opacity="0.55" stroke-linecap="round"/><line x1="164.9" y1="135.9" x2="99.6" y2="54.1" stroke="#ffffe0" stroke-width="2" opacity="0.55" stroke-linecap="round"/><line x1="187.5" y1="125.1" x2="164.2" y2="23.0" stroke="#ffffe0" stroke-width="2" opacity="0.55" stroke-linecap="round"/><line x1="212.5" y1="125.1" x2="235.8" y2="23.0" stroke="#ffffe0" stroke-width="2" opacity="0.55" stroke-linecap="round"/><line x1="235.1" y1="135.9" x2="300.4" y2="54.1" stroke="#ffffe0" stroke-width="2" opacity="0.55" stroke-linecap="round"/><line x1="250.8" y1="155.6" x2="345.1" y2="110.1" stroke="#ffffe0" stroke-width="2" opacity="0.55" stroke-linecap="round"/><g transform="translate(200.0 180.0)">
      <!-- ears -->
      <path d="M -99.0 -121.00000000000001 L -44.0 -165.0 L -33.0 -88.0 Z" fill="#ffd65a"/>
      <path d="M 99.0 -121.00000000000001 L 44.0 -165.0 L 33.0 -88.0 Z" fill="#ffd65a"/>
      <!-- head -->
      <ellipse rx="121.00000000000001" ry="105.6" fill="#ffd65a"/>
      <!-- stripes -->
      <path d="M -88.0 -44.0 Q -66.0 -77.0 -33.0 -55.0" stroke="#2a1300" stroke-width="13.2" fill="none" stroke-linecap="round"/>
      <path d="M 88.0 -44.0 Q 66.0 -77.0 33.0 -55.0" stroke="#2a1300" stroke-width="13.2" fill="none" stroke-linecap="round"/>
      <path d="M -99.0 11.0 L -55.0 22.0" stroke="#2a1300" stroke-width="11.0" stroke-linecap="round"/>
      <path d="M 99.0 11.0 L 55.0 22.0" stroke="#2a1300" stroke-width="11.0" stroke-linecap="round"/>
      <!-- face -->
      <ellipse cx="0" cy="11.0" rx="66.0" ry="61.60000000000001" fill="#ffe0b8" opacity="0.95"/>
      <!-- eyes -->
      <circle cx="-39.6" cy="-22.0" r="17.6" fill="#fff"/>
      <circle cx="39.6" cy="-22.0" r="17.6" fill="#fff"/>
      <circle cx="-39.6" cy="-22.0" r="9.9" fill="#2a1300"/>
      <circle cx="39.6" cy="-22.0" r="9.9" fill="#2a1300"/>
      <!-- nose -->
      <path d="M -11.0 15.400000000000002 L 11.0 15.400000000000002 L 0 33.0 Z" fill="#2a1300"/>
      <!-- mouth -->
      <path d="M 0 33.0 Q -17.6 55.0 -26.4 44.0" stroke="#2a1300" stroke-width="5.5" fill="none" stroke-linecap="round"/>
      <path d="M 0 33.0 Q 17.6 55.0 26.4 44.0" stroke="#2a1300" stroke-width="5.5" fill="none" stroke-linecap="round"/>
    </g><g transform="translate(70 70)">
      <circle r="26" fill="#ffd65a" stroke="#7a5100" stroke-width="2.1"/>
      <circle r="20.3" fill="none" stroke="#b57e05" stroke-width="1.6" stroke-dasharray="2 3" opacity="0.8"/>
      <text x="0" y="9.9" text-anchor="middle" font-family="Georgia, serif" font-weight="900" font-size="31.2" fill="#b57e05">$</text>
      <ellipse cx="-9.1" cy="-9.1" rx="9.1" ry="4.7" fill="#ffffff" opacity="0.55"/>
    </g><g transform="translate(330 70)">
      <circle r="22" fill="#ffd65a" stroke="#7a5100" stroke-width="1.8"/>
      <circle r="17.2" fill="none" stroke="#b57e05" stroke-width="1.3" stroke-dasharray="2 3" opacity="0.8"/>
      <text x="0" y="8.4" text-anchor="middle" font-family="Georgia, serif" font-weight="900" font-size="26.4" fill="#b57e05">$</text>
      <ellipse cx="-7.7" cy="-7.7" rx="7.7" ry="4.0" fill="#ffffff" opacity="0.55"/>
    </g><g transform="translate(80 320)">
      <circle r="18" fill="#ffd65a" stroke="#7a5100" stroke-width="1.4"/>
      <circle r="14.0" fill="none" stroke="#b57e05" stroke-width="1.1" stroke-dasharray="2 3" opacity="0.8"/>
      <text x="0" y="6.8" text-anchor="middle" font-family="Georgia, serif" font-weight="900" font-size="21.6" fill="#b57e05">$</text>
      <ellipse cx="-6.3" cy="-6.3" rx="6.3" ry="3.2" fill="#ffffff" opacity="0.55"/>
    </g><g>
      <path d="M 340 308 L 355.4 325.6 L 348.8 352 L 331.2 352 L 324.6 325.6 Z" fill="#ffd65a" stroke="#ffffff" stroke-width="1.5" opacity="0.95"/>
      <path d="M 329.0 326.7 L 351.0 326.7" stroke="#e0f7ff" stroke-width="1.5" opacity="0.8"/>
      <path d="M 340 308 L 340 352" stroke="#e0f7ff" stroke-width="1" opacity="0.5"/>
      <path d="M 334.5 316.8 L 337.8 321.2" stroke="#ffffff" stroke-width="2" opacity="0.9"/>
    </g><g transform="translate(0 310)">
          <rect x="0" y="0" width="400" height="90" fill="rgba(0,0,0,0.55)"/>
          <rect x="0" y="0" width="400" height="3" fill="url(#gold-gt-tigrinho-21)"/>
          <text x="200.0" y="38" text-anchor="middle" font-family="Georgia, serif" font-weight="900" font-size="24" fill="url(#gold-gt-tigrinho-21)" filter="url(#shadow-gt-tigrinho-21)">TIGRINHO MYSTIC</text>
          <text x="200.0" y="64" text-anchor="middle" font-family="system-ui, sans-serif" font-weight="600" font-size="13" fill="#ffffff" opacity="0.85">TIGRINHO • 6726.BET</text>
        </g></svg>