<svg xmlns="http://www.w3.org/2000/svg" viewBox="0 0 400 400" preserveAspectRatio="xMidYMid slice" role="img" aria-hidden="true"><defs>
  <linearGradient id="bg-gt-tigrinho-19" x1="0" y1="0" x2="1" y2="1">
    <stop offset="0%" stop-color="#3b2a05"/>
    <stop offset="100%" stop-color="#0a0a12"/>
  </linearGradient>
  <radialGradient id="glow-gt-tigrinho-19" cx="50%" cy="50%" r="60%">
    <stop offset="0%" stop-color="#ffd65a" stop-opacity="0.55"/>
    <stop offset="60%" stop-color="#ff8a1f" stop-opacity="0.15"/>
    <stop offset="100%" stop-color="#000000" stop-opacity="0"/>
  </radialGradient>
  <linearGradient id="gold-gt-tigrinho-19" x1="0" y1="0" x2="0" y2="1">
    <stop offset="0%" stop-color="#ffffe0"/>
    <stop offset="50%" stop-color="#ffd65a"/>
    <stop offset="100%" stop-color="#ff8a1f"/>
  </linearGradient>
  <filter id="blur-gt-tigrinho-19" x="-10%" y="-10%" width="120%" height="120%">
    <feGaussianBlur stdDeviation="8"/>
  </filter>
  <filter id="shadow-gt-tigrinho-19" x="-10%" y="-10%" width="120%" height="120%">
    <feDropShadow dx="0" dy="4" stdDeviation="6" flood-color="#000" flood-opacity="0.45"/>
  </filter>
  <filter id="neon-gt-tigrinho-19" x="-20%" y="-20%" width="140%" height="140%">
    <feGaussianBlur stdDeviation="4" result="b"/>
    <feMerge>
      <feMergeNode in="b"/>
      <feMergeNode in="SourceGraphic"/>
    </feMerge>
  </filter>
</defs><rect width="400" height="400" fill="url(#bg-gt-tigrinho-19)"/><rect x="7.9" y="248.5" width="4.8" height="2.4" fill="#ffd65a" opacity="0.7" transform="rotate(313 7.9 248.5)"/><rect x="206.1" y="306.0" width="3.5" height="1.7" fill="#ffffe0" opacity="0.7" transform="rotate(304 206.1 306.0)"/><rect x="165.3" y="74.2" width="6.0" height="3.0" fill="#ff8a1f" opacity="0.7" transform="rotate(7 165.3 74.2)"/><rect x="238.8" y="344.3" width="3.9" height="2.0" fill="#ffffe0" opacity="0.7" transform="rotate(191 238.8 344.3)"/><rect x="232.7" y="391.1" width="4.4" height="2.2" fill="#ff8a1f" opacity="0.7" transform="rotate(55 232.7 391.1)"/><rect x="381.5" y="182.8" width="6.1" height="3.1" fill="#ffffe0" opacity="0.7" transform="rotate(290 381.5 182.8)"/><rect x="69.6" y="381.7" width="3.2" height="1.6" fill="#ff8a1f" opacity="0.7" transform="rotate(43 69.6 381.7)"/><rect x="240.9" y="276.0" width="5.2" height="2.6" fill="#ffffe0" opacity="0.7" transform="rotate(253 240.9 276.0)"/><rect x="378.8" y="301.5" width="6.2" height="3.1" fill="#ffd65a" opacity="0.7" transform="rotate(297 378.8 301.5)"/><rect x="205.1" y="295.8" width="6.4" height="3.2" fill="#ffffe0" opacity="0.7" transform="rotate(321 205.1 295.8)"/><rect x="164.9" y="179.0" width="4.6" height="2.3" fill="#ffffe0" opacity="0.7" transform="rotate(129 164.9 179.0)"/><rect x="63.8" y="382.5" width="4.9" height="2.4" fill="#ff8a1f" opacity="0.7" transform="rotate(34 63.8 382.5)"/><rect x="218.5" y="170.2" width="6.9" height="3.5" fill="#ff8a1f" opacity="0.7" transform="rotate(176 218.5 170.2)"/><rect x="262.7" y="186.3" width="4.7" height="2.3" fill="#ffffe0" opacity="0.7" transform="rotate(17 262.7 186.3)"/><rect x="113.9" y="102.5" width="6.6" height="3.3" fill="#ffd65a" opacity="0.7" transform="rotate(98 113.9 102.5)"/><rect x="188.9" y="112.4" width="5.5" height="2.7" fill="#ffd65a" opacity="0.7" transform="rotate(265 188.9 112.4)"/><rect x="70.1" y="241.5" width="3.6" height="1.8" fill="#ffd65a" opacity="0.7" transform="rotate(190 70.1 241.5)"/><rect x="110.0" y="193.3" width="3.2" height="1.6" fill="#ffd65a" opacity="0.7" transform="rotate(14 110.0 193.3)"/><rect x="395.1" y="190.3" width="3.7" height="1.8" fill="#ff8a1f" opacity="0.7" transform="rotate(144 395.1 190.3)"/><rect x="139.8" y="103.5" width="3.7" height="1.9" fill="#ffffe0" opacity="0.7" transform="rotate(348 139.8 103.5)"/><rect x="307.9" y="48.9" width="3.0" height="1.5" fill="#ffffe0" opacity="0.7" transform="rotate(319 307.9 48.9)"/><rect x="42.4" y="294.2" width="3.5" height="1.8" fill="#ff8a1f" opacity="0.7" transform="rotate(27 42.4 294.2)"/><rect x="290.8" y="131.1" width="4.8" height="2.4" fill="#ffffe0" opacity="0.7" transform="rotate(165 290.8 131.1)"/><rect x="84.3" y="147.8" width="3.2" height="1.6" fill="#ff8a1f" opacity="0.7" transform="rotate(339 84.3 147.8)"/><rect x="267.2" y="61.1" width="4.9" height="2.5" fill="#ffffe0" opacity="0.7" transform="rotate(167 267.2 61.1)"/><rect x="247.6" y="34.7" width="6.4" height="3.2" fill="#ffd65a" opacity="0.7" transform="rotate(169 247.6 34.7)"/><rect x="120.2" y="251.5" width="5.2" height="2.6" fill="#ffffe0" opacity="0.7" transform="rotate(164 120.2 251.5)"/><rect x="326.8" y="128.0" width="3.9" height="2.0" fill="#ffffe0" opacity="0.7" transform="rotate(222 326.8 128.0)"/><rect x="295.7" y="187.9" width="5.5" height="2.7" fill="#ff8a1f" opacity="0.7" transform="rotate(285 295.7 187.9)"/><rect x="85.8" y="384.5" width="3.2" height="1.6" fill="#ffffe0" opacity="0.7" transform="rotate(45 85.8 384.5)"/><rect x="263.9" y="282.8" width="6.6" height="3.3" fill="#ffd65a" opacity="0.7" transform="rotate(260 263.9 282.8)"/><rect x="96.9" y="244.8" width="5.3" height="2.6" fill="#ff8a1f" opacity="0.7" transform="rotate(137 96.9 244.8)"/><rect x="330.2" y="109.5" width="5.0" height="2.5" fill="#ff8a1f" opacity="0.7" transform="rotate(294 330.2 109.5)"/><rect x="51.0" y="29.0" width="6.5" height="3.3" fill="#ffffe0" opacity="0.7" transform="rotate(139 51.0 29.0)"/><rect x="161.0" y="290.3" width="3.7" height="1.9" fill="#ffd65a" opacity="0.7" transform="rotate(27 161.0 290.3)"/><rect x="338.8" y="60.6" width="5.3" height="2.6" fill="#ffffe0" opacity="0.7" transform="rotate(90 338.8 60.6)"/><rect x="131.6" y="37.1" width="5.6" height="2.8" fill="#ffffe0" opacity="0.7" transform="rotate(262 131.6 37.1)"/><rect x="112.3" y="205.5" width="4.9" height="2.4" fill="#ff8a1f" opacity="0.7" transform="rotate(346 112.3 205.5)"/><rect x="93.9" y="73.5" width="5.7" height="2.8" fill="#ffd65a" opacity="0.7" transform="rotate(180 93.9 73.5)"/><rect x="215.2" y="75.7" width="4.7" height="2.4" fill="#ff8a1f" opacity="0.7" transform="rotate(122 215.2 75.7)"/><circle cx="334.3" cy="317.9" r="0.69" fill="#ffffff" opacity="0.41"/><circle cx="237.7" cy="198.5" r="0.91" fill="#ffffff" opacity="0.34"/><circle cx="98.2" cy="92.8" r="1.31" fill="#ffffff" opacity="0.43"/><circle cx="64.4" cy="348.8" r="0.95" fill="#ffffff" opacity="0.41"/><circle cx="235.0" cy="318.8" r="0.66" fill="#ffffff" opacity="0.30"/><circle cx="296.9" cy="53.2" r="1.28" fill="#ffffff" opacity="0.58"/><circle cx="116.5" cy="261.0" r="0.87" fill="#ffffff" opacity="0.52"/><circle cx="303.3" cy="393.5" r="1.28" fill="#ffffff" opacity="0.74"/><circle cx="235.4" cy="359.5" r="1.35" fill="#ffffff" opacity="0.84"/><circle cx="233.9" cy="233.1" r="1.32" fill="#ffffff" opacity="0.36"/><circle cx="8.7" cy="133.4" r="1.18" fill="#ffffff" opacity="0.31"/><circle cx="69.9" cy="281.2" r="1.67" fill="#ffffff" opacity="0.70"/><circle cx="166.3" cy="241.8" r="0.76" fill="#ffffff" opacity="0.39"/><circle cx="293.1" cy="133.0" r="0.67" fill="#ffffff" opacity="0.63"/><circle cx="241.6" cy="178.2" r="1.69" fill="#ffffff" opacity="0.51"/><circle cx="386.3" cy="367.4" r="1.21" fill="#ffffff" opacity="0.84"/><circle cx="198.3" cy="349.0" r="0.87" fill="#ffffff" opacity="0.50"/><circle cx="229.6" cy="281.3" r="1.23" fill="#ffffff" opacity="0.80"/><circle cx="273.5" cy="244.5" r="1.73" fill="#ffffff" opacity="0.39"/><circle cx="332.9" cy="91.7" r="0.55" fill="#ffffff" opacity="0.79"/><circle cx="253.4" cy="4.3" r="1.69" fill="#ffffff" opacity="0.43"/><circle cx="90.6" cy="39.5" r="0.62" fill="#ffffff" opacity="0.28"/><circle cx="7.2" cy="62.6" r="1.55" fill="#ffffff" opacity="0.24"/><circle cx="273.3" cy="264.4" r="1.62" fill="#ffffff" opacity="0.56"/><circle cx="288.4" cy="260.1" r="1.43" fill="#ffffff" opacity="0.34"/><circle cx="238.3" cy="66.8" r="1.13" fill="#ffffff" opacity="0.45"/><circle cx="293.2" cy="131.7" r="0.62" fill="#ffffff" opacity="0.62"/><circle cx="366.9" cy="191.3" r="1.03" fill="#ffffff" opacity="0.70"/><circle cx="65.0" cy="394.2" r="1.03" fill="#ffffff" opacity="0.49"/><circle cx="85.3" cy="80.4" r="1.48" fill="#ffffff" opacity="0.84"/><line x1="255.7" y1="180.0" x2="359.0" y2="180.0" stroke="#ffffe0" stroke-width="2" opacity="0.55" stroke-linecap="round"/><line x1="250.1" y1="204.1" x2="343.3" y2="249.0" stroke="#ffffe0" stroke-width="2" opacity="0.55" stroke-linecap="round"/><line x1="234.7" y1="223.5" x2="299.1" y2="304.3" stroke="#ffffe0" stroke-width="2" opacity="0.55" stroke-linecap="round"/><line x1="212.4" y1="234.3" x2="235.4" y2="335.0" stroke="#ffffe0" stroke-width="2" opacity="0.55" stroke-linecap="round"/><line x1="187.6" y1="234.3" x2="164.6" y2="335.0" stroke="#ffffe0" stroke-width="2" opacity="0.55" stroke-linecap="round"/><line x1="165.3" y1="223.5" x2="100.9" y2="304.3" stroke="#ffffe0" stroke-width="2" opacity="0.55" stroke-linecap="round"/><line x1="149.9" y1="204.1" x2="56.7" y2="249.0" stroke="#ffffe0" stroke-width="2" opacity="0.55" stroke-linecap="round"/><line x1="144.3" y1="180.0" x2="41.0" y2="180.0" stroke="#ffffe0" stroke-width="2" opacity="0.55" stroke-linecap="round"/><line x1="149.9" y1="155.9" x2="56.7" y2="111.0" stroke="#ffffe0" stroke-width="2" opacity="0.55" stroke-linecap="round"/><line x1="165.3" y1="136.5" x2="100.9" y2="55.7" stroke="#ffffe0" stroke-width="2" opacity="0.55" stroke-linecap="round"/><line x1="187.6" y1="125.7" x2="164.6" y2="25.0" stroke="#ffffe0" stroke-width="2" opacity="0.55" stroke-linecap="round"/><line x1="212.4" y1="125.7" x2="235.4" y2="25.0" stroke="#ffffe0" stroke-width="2" opacity="0.55" stroke-linecap="round"/><line x1="234.7" y1="136.5" x2="299.1" y2="55.7" stroke="#ffffe0" stroke-width="2" opacity="0.55" stroke-linecap="round"/><line x1="250.1" y1="155.9" x2="343.3" y2="111.0" stroke="#ffffe0" stroke-width="2" opacity="0.55" stroke-linecap="round"/><g transform="translate(200.0 180.0)">
      <!-- ears -->
      <path d="M -99.0 -121.00000000000001 L -44.0 -165.0 L -33.0 -88.0 Z" fill="#ffd65a"/>
      <path d="M 99.0 -121.00000000000001 L 44.0 -165.0 L 33.0 -88.0 Z" fill="#ffd65a"/>
      <!-- head -->
      <ellipse rx="121.00000000000001" ry="105.6" fill="#ffd65a"/>
      <!-- stripes -->
      <path d="M -88.0 -44.0 Q -66.0 -77.0 -33.0 -55.0" stroke="#2a1300" stroke-width="13.2" fill="none" stroke-linecap="round"/>
      <path d="M 88.0 -44.0 Q 66.0 -77.0 33.0 -55.0" stroke="#2a1300" stroke-width="13.2" fill="none" stroke-linecap="round"/>
      <path d="M -99.0 11.0 L -55.0 22.0" stroke="#2a1300" stroke-width="11.0" stroke-linecap="round"/>
      <path d="M 99.0 11.0 L 55.0 22.0" stroke="#2a1300" stroke-width="11.0" stroke-linecap="round"/>
      <!-- face -->
      <ellipse cx="0" cy="11.0" rx="66.0" ry="61.60000000000001" fill="#ffe0b8" opacity="0.95"/>
      <!-- eyes -->
      <circle cx="-39.6" cy="-22.0" r="17.6" fill="#fff"/>
      <circle cx="39.6" cy="-22.0" r="17.6" fill="#fff"/>
      <circle cx="-39.6" cy="-22.0" r="9.9" fill="#2a1300"/>
      <circle cx="39.6" cy="-22.0" r="9.9" fill="#2a1300"/>
      <!-- nose -->
      <path d="M -11.0 15.400000000000002 L 11.0 15.400000000000002 L 0 33.0 Z" fill="#2a1300"/>
      <!-- mouth -->
      <path d="M 0 33.0 Q -17.6 55.0 -26.4 44.0" stroke="#2a1300" stroke-width="5.5" fill="none" stroke-linecap="round"/>
      <path d="M 0 33.0 Q 17.6 55.0 26.4 44.0" stroke="#2a1300" stroke-width="5.5" fill="none" stroke-linecap="round"/>
    </g><g transform="translate(70 70)">
      <circle r="26" fill="#ffd65a" stroke="#7a5100" stroke-width="2.1"/>
      <circle r="20.3" fill="none" stroke="#b57e05" stroke-width="1.6" stroke-dasharray="2 3" opacity="0.8"/>
      <text x="0" y="9.9" text-anchor="middle" font-family="Georgia, serif" font-weight="900" font-size="31.2" fill="#b57e05">$</text>
      <ellipse cx="-9.1" cy="-9.1" rx="9.1" ry="4.7" fill="#ffffff" opacity="0.55"/>
    </g><g transform="translate(330 70)">
      <circle r="22" fill="#ffd65a" stroke="#7a5100" stroke-width="1.8"/>
      <circle r="17.2" fill="none" stroke="#b57e05" stroke-width="1.3" stroke-dasharray="2 3" opacity="0.8"/>
      <text x="0" y="8.4" text-anchor="middle" font-family="Georgia, serif" font-weight="900" font-size="26.4" fill="#b57e05">$</text>
      <ellipse cx="-7.7" cy="-7.7" rx="7.7" ry="4.0" fill="#ffffff" opacity="0.55"/>
    </g><g transform="translate(80 320)">
      <circle r="18" fill="#ffd65a" stroke="#7a5100" stroke-width="1.4"/>
      <circle r="14.0" fill="none" stroke="#b57e05" stroke-width="1.1" stroke-dasharray="2 3" opacity="0.8"/>
      <text x="0" y="6.8" text-anchor="middle" font-family="Georgia, serif" font-weight="900" font-size="21.6" fill="#b57e05">$</text>
      <ellipse cx="-6.3" cy="-6.3" rx="6.3" ry="3.2" fill="#ffffff" opacity="0.55"/>
    </g><g>
      <path d="M 340 308 L 355.4 325.6 L 348.8 352 L 331.2 352 L 324.6 325.6 Z" fill="#ffd65a" stroke="#ffffff" stroke-width="1.5" opacity="0.95"/>
      <path d="M 329.0 326.7 L 351.0 326.7" stroke="#e0f7ff" stroke-width="1.5" opacity="0.8"/>
      <path d="M 340 308 L 340 352" stroke="#e0f7ff" stroke-width="1" opacity="0.5"/>
      <path d="M 334.5 316.8 L 337.8 321.2" stroke="#ffffff" stroke-width="2" opacity="0.9"/>
    </g><g transform="translate(0 310)">
          <rect x="0" y="0" width="400" height="90" fill="rgba(0,0,0,0.55)"/>
          <rect x="0" y="0" width="400" height="3" fill="url(#gold-gt-tigrinho-19)"/>
          <text x="200.0" y="38" text-anchor="middle" font-family="Georgia, serif" font-weight="900" font-size="24" fill="url(#gold-gt-tigrinho-19)" filter="url(#shadow-gt-tigrinho-19)">TIGRINHO ROYAL</text>
          <text x="200.0" y="64" text-anchor="middle" font-family="system-ui, sans-serif" font-weight="600" font-size="13" fill="#ffffff" opacity="0.85">TIGRINHO • 6726.BET</text>
        </g></svg>