<svg xmlns="http://www.w3.org/2000/svg" viewBox="0 0 160 160" preserveAspectRatio="xMidYMid slice" role="img" aria-hidden="true"><defs>
      <linearGradient id="bg-av-6" x1="0" y1="0" x2="1" y2="1">
        <stop offset="0%" stop-color="#7f1d1d"/>
        <stop offset="100%" stop-color="#dc2626"/>
      </linearGradient>
      <radialGradient id="glow-av-6" cx="50%" cy="50%" r="60%">
        <stop offset="0%" stop-color="#fbbf24" stop-opacity="0.35"/>
        <stop offset="100%" stop-color="#000" stop-opacity="0"/>
      </radialGradient>
      <clipPath id="clip-av-6"><circle cx="80" cy="80" r="78"/></clipPath>
    </defs><circle cx="80" cy="80" r="80" fill="url(#bg-av-6)"/><circle cx="80" cy="80" r="80" fill="url(#glow-av-6)"/><g clip-path="url(#clip-av-6)"><ellipse cx="80" cy="165" rx="80" ry="45" fill="#fbbf24" opacity="0.95"/><rect x="70" y="100" width="20" height="22" fill="#fef2f2" opacity="0.9"/><ellipse cx="80" cy="82" rx="34" ry="38" fill="#fef2f2"/><path d="M44 72 Q50 30 80 40 Q110 30 116 72 Q100 54 80 60 Q60 54 44 72 Z" fill="#7f1d1d"/><ellipse cx="70" cy="85" rx="3.5" ry="4.5" fill="#7f1d1d"/><ellipse cx="90" cy="85" rx="3.5" ry="4.5" fill="#7f1d1d"/><circle cx="71" cy="84" r="1" fill="#fff"/><circle cx="91" cy="84" r="1" fill="#fff"/><path d="M64 78 Q70 75 76 78" stroke="#7f1d1d" stroke-width="2" fill="none" stroke-linecap="round"/><path d="M84 78 Q90 75 96 78" stroke="#7f1d1d" stroke-width="2" fill="none" stroke-linecap="round"/><circle cx="70" cy="85" r="8" fill="none" stroke="#7f1d1d" stroke-width="1.5"/><circle cx="90" cy="85" r="8" fill="none" stroke="#7f1d1d" stroke-width="1.5"/><line x1="78" y1="85" x2="82" y2="85" stroke="#7f1d1d" stroke-width="1.5"/><path d="M80 88 Q78 94 80 97 Q82 94 80 88" fill="none" stroke="#7f1d1d" stroke-width="1" opacity="0.5"/><path d="M72 104 Q80 110 88 104" stroke="#7f1d1d" stroke-width="2" fill="none" stroke-linecap="round"/></g><circle cx="80" cy="80" r="78" fill="none" stroke="#fbbf24" stroke-width="3" opacity="0.8"/></svg>